<svg width="120" height="120" viewBox="0 0 120 120" fill="none" xmlns="http://www.w3.org/2000/svg">
<path d="M83.3823 91.4715V97.8951C83.3823 101.084 80.789 103.682 77.5953 103.682H40.772C37.5784 103.682 34.9852 101.084 34.9852 97.8951V91.4715H83.3823ZM40.772 15.1179H77.5953C80.7165 15.1179 83.258 17.5973 83.3719 20.6874H34.9955C35.1093 17.5973 37.6508 15.1179 40.772 15.1179ZM100.552 33.2189C98.3207 33.2189 96.5039 35.0358 96.5039 37.2667C96.5039 37.4634 96.5246 37.6549 96.5505 37.8413L86.7002 44.0941V20.8996C86.7002 15.8839 82.6162 11.8 77.5953 11.8H40.772C35.7512 11.8 31.6673 15.8839 31.6673 20.8996V21.9349C31.631 22.0643 31.6102 22.204 31.6102 22.349C31.6102 22.4887 31.631 22.6285 31.6673 22.7631V61.1496L21.3822 67.1901C20.7248 66.7191 19.9173 66.4396 19.0477 66.4396C16.8168 66.4396 15 68.2564 15 70.4873C15 72.7182 16.8168 74.5351 19.0477 74.5351C21.2786 74.5351 23.0903 72.7182 23.0903 70.4873C23.0903 70.3372 23.0851 70.1923 23.0696 70.0473L31.6673 64.9954V89.401C31.631 89.5304 31.6102 89.6702 31.6102 89.8151C31.6102 89.9549 31.631 90.0946 31.6673 90.2292V97.8951C31.6673 102.916 35.7512 107 40.772 107H77.5953C82.6162 107 86.7002 102.916 86.7002 97.8951V55.461C86.7002 54.5448 85.9549 53.7994 85.0387 53.7994C84.1225 53.7994 83.3823 54.5448 83.3823 55.461V88.1536H34.9852V24.0053H83.3823V45.9005C83.3823 45.9937 83.3927 46.0869 83.4082 46.1801L79.2621 48.8096C78.6254 48.3903 77.8593 48.1418 77.0415 48.1418C74.8106 48.1418 72.9937 49.9586 72.9937 52.1896C72.9937 52.5778 73.0507 52.9505 73.1542 53.3077L59.9394 64.5088C59.3856 64.219 58.754 64.0534 58.0863 64.0534C57.1494 64.0534 56.2903 64.3743 55.607 64.9075L41.652 57.9145C40.829 57.5056 39.8352 57.8368 39.4211 58.6546C39.0122 59.4724 39.3435 60.4714 40.1613 60.8804L54.0489 67.8372C54.0437 67.9251 54.0386 68.0131 54.0386 68.1011C54.0386 70.332 55.8502 72.1437 58.0863 72.1437C60.3172 72.1437 62.129 70.332 62.129 68.1011C62.129 67.7595 62.0824 67.4282 62.0047 67.1125L75.3023 55.8388C75.8303 56.0872 76.4152 56.2322 77.0415 56.2322C79.2724 56.2322 81.0841 54.4205 81.0841 52.1896C81.0841 51.9929 81.0685 51.8014 81.0426 51.615L98.3259 40.6416C98.9677 41.066 99.7286 41.3145 100.552 41.3145C102.783 41.3145 104.599 39.4977 104.599 37.2667C104.599 35.0358 102.783 33.2189 100.552 33.2189Z" fill="#0C9B45"/>
<path d="M55.8292 98.7699H62.4651C63.3813 98.7699 64.1267 98.0297 64.1267 97.1135C64.1267 96.1973 63.3813 95.452 62.4651 95.452H55.8292C54.913 95.452 54.1729 96.1973 54.1729 97.1135C54.1729 98.0297 54.913 98.7699 55.8292 98.7699Z" fill="#0C9B45"/>
</svg>
