<svg width="24" height="24" viewBox="0 0 24 24" fill="none" xmlns="http://www.w3.org/2000/svg">
<path fill-rule="evenodd" clip-rule="evenodd" d="M9.27649 14.7235C9.15892 14.606 8.99948 14.5399 8.83323 14.5399C8.66698 14.5399 8.50754 14.606 8.38997 14.7235L3.25392 19.8596V16.3887C3.25392 16.2224 3.18786 16.063 3.07029 15.9454C2.95271 15.8278 2.79324 15.7618 2.62696 15.7618C2.46068 15.7618 2.30121 15.8278 2.18363 15.9454C2.06605 16.063 2 16.2224 2 16.3887V21.373C2 21.5393 2.06605 21.6988 2.18363 21.8164C2.30121 21.9339 2.46068 22 2.62696 22H7.61128C7.77756 22 7.93703 21.9339 8.05461 21.8164C8.17219 21.6988 8.23824 21.5393 8.23824 21.373C8.23824 21.2068 8.17219 21.0473 8.05461 20.9297C7.93703 20.8121 7.77756 20.7461 7.61128 20.7461H4.14044L9.27649 15.61C9.39403 15.4925 9.46005 15.333 9.46005 15.1668C9.46005 15.0005 9.39403 14.8411 9.27649 14.7235ZM14.7235 9.27649C14.8411 9.39403 15.0005 9.46005 15.1668 9.46005C15.333 9.46005 15.4925 9.39403 15.61 9.27649L20.7461 4.14044V7.61128C20.7461 7.77756 20.8121 7.93703 20.9297 8.05461C21.0473 8.17219 21.2068 8.23824 21.373 8.23824C21.5393 8.23824 21.6988 8.17219 21.8164 8.05461C21.9339 7.93703 22 7.77756 22 7.61128V2.62696C22 2.46068 21.9339 2.30121 21.8164 2.18363C21.6988 2.06605 21.5393 2 21.373 2H16.3887C16.2224 2 16.063 2.06605 15.9454 2.18363C15.8278 2.30121 15.7618 2.46068 15.7618 2.62696C15.7618 2.79324 15.8278 2.95271 15.9454 3.07029C16.063 3.18786 16.2224 3.25392 16.3887 3.25392H19.8596L14.7235 8.38997C14.606 8.50754 14.5399 8.66698 14.5399 8.83323C14.5399 8.99948 14.606 9.15892 14.7235 9.27649Z" fill="white"/>
</svg>
