<svg width="20" height="20" viewBox="0 0 20 20" fill="none" xmlns="http://www.w3.org/2000/svg">
<path d="M4 6C4 5.46957 4.21071 4.96086 4.58579 4.58579C4.96086 4.21071 5.46957 4 6 4H12C12.5304 4 13.0391 4.21071 13.4142 4.58579C13.7893 4.96086 14 5.46957 14 6V17.5C14 17.5904 13.9754 17.6792 13.9289 17.7568C13.8824 17.8343 13.8157 17.8979 13.736 17.9405C13.6563 17.9832 13.5664 18.0035 13.4761 17.9992C13.3858 17.9948 13.2983 17.9661 13.223 17.916L9 15.101L4.777 17.916C4.70171 17.9661 4.61423 17.9948 4.52389 17.9992C4.43355 18.0035 4.34373 17.9832 4.264 17.9405C4.18427 17.8979 4.1176 17.8343 4.07111 17.7568C4.02462 17.6792 4.00005 17.5904 4 17.5V6ZM6 5C5.73478 5 5.48043 5.10536 5.29289 5.29289C5.10536 5.48043 5 5.73478 5 6V16.566L8.723 14.084C8.80506 14.0294 8.90143 14.0003 9 14.0003C9.09857 14.0003 9.19494 14.0294 9.277 14.084L13 16.566V6C13 5.73478 12.8946 5.48043 12.7071 5.29289C12.5196 5.10536 12.2652 5 12 5H6Z" fill="white"/>
<path d="M6.26758 3H13.9996C14.2648 3 14.5191 3.10536 14.7067 3.29289C14.8942 3.48043 14.9996 3.73478 14.9996 4V15.768L15.2226 15.916C15.2979 15.9661 15.3853 15.9948 15.4757 15.9992C15.566 16.0035 15.6558 15.9832 15.7356 15.9405C15.8153 15.8979 15.882 15.8343 15.9285 15.7568C15.975 15.6792 15.9995 15.5904 15.9996 15.5V4C15.9996 3.46957 15.7889 2.96086 15.4138 2.58579C15.0387 2.21071 14.53 2 13.9996 2H7.99958C7.64851 2.00001 7.30364 2.09243 6.99961 2.26796C6.69558 2.4435 6.44311 2.69597 6.26758 3Z" fill="white"/>
</svg>
