<svg width="528" height="2" viewBox="0 0 528 2" fill="none" xmlns="http://www.w3.org/2000/svg">
<path d="M0.560547 1.74609V0.734375H3.95117V1.74609H0.560547ZM5.07227 1.74609V0.734375H8.46289V1.74609H5.07227ZM9.58398 1.74609V0.734375H12.9746V1.74609H9.58398ZM14.0957 1.74609V0.734375H17.4863V1.74609H14.0957ZM18.6074 1.74609V0.734375H21.998V1.74609H18.6074ZM23.1191 1.74609V0.734375H26.5098V1.74609H23.1191ZM27.6309 1.74609V0.734375H31.0215V1.74609H27.6309ZM32.1426 1.74609V0.734375H35.5332V1.74609H32.1426ZM36.6543 1.74609V0.734375H40.0449V1.74609H36.6543ZM41.166 1.74609V0.734375H44.5566V1.74609H41.166ZM45.6777 1.74609V0.734375H49.0684V1.74609H45.6777ZM50.1895 1.74609V0.734375H53.5801V1.74609H50.1895ZM54.7012 1.74609V0.734375H58.0918V1.74609H54.7012ZM59.2129 1.74609V0.734375H62.6035V1.74609H59.2129ZM63.7246 1.74609V0.734375H67.1152V1.74609H63.7246ZM68.2363 1.74609V0.734375H71.627V1.74609H68.2363ZM72.748 1.74609V0.734375H76.1387V1.74609H72.748ZM77.2598 1.74609V0.734375H80.6504V1.74609H77.2598ZM81.7715 1.74609V0.734375H85.1621V1.74609H81.7715ZM86.2832 1.74609V0.734375H89.6738V1.74609H86.2832ZM90.7949 1.74609V0.734375H94.1855V1.74609H90.7949ZM95.3066 1.74609V0.734375H98.6973V1.74609H95.3066ZM99.8184 1.74609V0.734375H103.209V1.74609H99.8184ZM104.33 1.74609V0.734375H107.721V1.74609H104.33ZM108.842 1.74609V0.734375H112.232V1.74609H108.842ZM113.354 1.74609V0.734375H116.744V1.74609H113.354ZM117.865 1.74609V0.734375H121.256V1.74609H117.865ZM122.377 1.74609V0.734375H125.768V1.74609H122.377ZM126.889 1.74609V0.734375H130.279V1.74609H126.889ZM131.4 1.74609V0.734375H134.791V1.74609H131.4ZM135.912 1.74609V0.734375H139.303V1.74609H135.912ZM140.424 1.74609V0.734375H143.814V1.74609H140.424ZM144.936 1.74609V0.734375H148.326V1.74609H144.936ZM149.447 1.74609V0.734375H152.838V1.74609H149.447ZM153.959 1.74609V0.734375H157.35V1.74609H153.959ZM158.471 1.74609V0.734375H161.861V1.74609H158.471ZM162.982 1.74609V0.734375H166.373V1.74609H162.982ZM167.494 1.74609V0.734375H170.885V1.74609H167.494ZM172.006 1.74609V0.734375H175.396V1.74609H172.006ZM176.518 1.74609V0.734375H179.908V1.74609H176.518ZM181.029 1.74609V0.734375H184.42V1.74609H181.029ZM185.541 1.74609V0.734375H188.932V1.74609H185.541ZM190.053 1.74609V0.734375H193.443V1.74609H190.053ZM194.564 1.74609V0.734375H197.955V1.74609H194.564ZM199.076 1.74609V0.734375H202.467V1.74609H199.076ZM203.588 1.74609V0.734375H206.979V1.74609H203.588ZM208.1 1.74609V0.734375H211.49V1.74609H208.1ZM212.611 1.74609V0.734375H216.002V1.74609H212.611ZM217.123 1.74609V0.734375H220.514V1.74609H217.123ZM221.635 1.74609V0.734375H225.025V1.74609H221.635ZM226.146 1.74609V0.734375H229.537V1.74609H226.146ZM230.658 1.74609V0.734375H234.049V1.74609H230.658ZM235.17 1.74609V0.734375H238.561V1.74609H235.17ZM239.682 1.74609V0.734375H243.072V1.74609H239.682ZM244.193 1.74609V0.734375H247.584V1.74609H244.193ZM248.705 1.74609V0.734375H252.096V1.74609H248.705ZM253.217 1.74609V0.734375H256.607V1.74609H253.217ZM257.729 1.74609V0.734375H261.119V1.74609H257.729ZM262.24 1.74609V0.734375H265.631V1.74609H262.24ZM266.752 1.74609V0.734375H270.143V1.74609H266.752ZM271.264 1.74609V0.734375H274.654V1.74609H271.264ZM275.775 1.74609V0.734375H279.166V1.74609H275.775ZM280.287 1.74609V0.734375H283.678V1.74609H280.287ZM284.799 1.74609V0.734375H288.189V1.74609H284.799ZM289.311 1.74609V0.734375H292.701V1.74609H289.311ZM293.822 1.74609V0.734375H297.213V1.74609H293.822ZM298.334 1.74609V0.734375H301.725V1.74609H298.334ZM302.846 1.74609V0.734375H306.236V1.74609H302.846ZM307.357 1.74609V0.734375H310.748V1.74609H307.357ZM311.869 1.74609V0.734375H315.26V1.74609H311.869ZM316.381 1.74609V0.734375H319.771V1.74609H316.381ZM320.893 1.74609V0.734375H324.283V1.74609H320.893ZM325.404 1.74609V0.734375H328.795V1.74609H325.404ZM329.916 1.74609V0.734375H333.307V1.74609H329.916ZM334.428 1.74609V0.734375H337.818V1.74609H334.428ZM338.939 1.74609V0.734375H342.33V1.74609H338.939ZM343.451 1.74609V0.734375H346.842V1.74609H343.451ZM347.963 1.74609V0.734375H351.354V1.74609H347.963ZM352.475 1.74609V0.734375H355.865V1.74609H352.475ZM356.986 1.74609V0.734375H360.377V1.74609H356.986ZM361.498 1.74609V0.734375H364.889V1.74609H361.498ZM366.01 1.74609V0.734375H369.4V1.74609H366.01ZM370.521 1.74609V0.734375H373.912V1.74609H370.521ZM375.033 1.74609V0.734375H378.424V1.74609H375.033ZM379.545 1.74609V0.734375H382.936V1.74609H379.545ZM384.057 1.74609V0.734375H387.447V1.74609H384.057ZM388.568 1.74609V0.734375H391.959V1.74609H388.568ZM393.08 1.74609V0.734375H396.471V1.74609H393.08ZM397.592 1.74609V0.734375H400.982V1.74609H397.592ZM402.104 1.74609V0.734375H405.494V1.74609H402.104ZM406.615 1.74609V0.734375H410.006V1.74609H406.615ZM411.127 1.74609V0.734375H414.518V1.74609H411.127ZM415.639 1.74609V0.734375H419.029V1.74609H415.639ZM420.15 1.74609V0.734375H423.541V1.74609H420.15ZM424.662 1.74609V0.734375H428.053V1.74609H424.662ZM429.174 1.74609V0.734375H432.564V1.74609H429.174ZM433.686 1.74609V0.734375H437.076V1.74609H433.686ZM438.197 1.74609V0.734375H441.588V1.74609H438.197ZM442.709 1.74609V0.734375H446.1V1.74609H442.709ZM447.221 1.74609V0.734375H450.611V1.74609H447.221ZM451.732 1.74609V0.734375H455.123V1.74609H451.732ZM456.244 1.74609V0.734375H459.635V1.74609H456.244ZM460.756 1.74609V0.734375H464.146V1.74609H460.756ZM465.268 1.74609V0.734375H468.658V1.74609H465.268ZM469.779 1.74609V0.734375H473.17V1.74609H469.779ZM474.291 1.74609V0.734375H477.682V1.74609H474.291ZM478.803 1.74609V0.734375H482.193V1.74609H478.803ZM483.314 1.74609V0.734375H486.705V1.74609H483.314ZM487.826 1.74609V0.734375H491.217V1.74609H487.826ZM492.338 1.74609V0.734375H495.729V1.74609H492.338ZM496.85 1.74609V0.734375H500.24V1.74609H496.85ZM501.361 1.74609V0.734375H504.752V1.74609H501.361ZM505.873 1.74609V0.734375H509.264V1.74609H505.873ZM510.385 1.74609V0.734375H513.775V1.74609H510.385ZM514.896 1.74609V0.734375H518.287V1.74609H514.896ZM519.408 1.74609V0.734375H522.799V1.74609H519.408ZM523.92 1.74609V0.734375H527.311V1.74609H523.92Z" fill="white" fill-opacity="0.9"/>
</svg>
