<svg width="24" height="24" viewBox="0 0 24 24" fill="none" xmlns="http://www.w3.org/2000/svg">
<path fill-rule="evenodd" clip-rule="evenodd" d="M6.13558 9.12539C6.17845 9.08549 6.22937 9.05383 6.28544 9.03223C6.3415 9.01063 6.40161 8.99951 6.46231 8.99951C6.52301 8.99951 6.58312 9.01063 6.63918 9.03223C6.69525 9.05383 6.74617 9.08549 6.78904 9.12539L12.0001 13.9644L17.2112 9.12539C17.2541 9.08555 17.305 9.05395 17.3611 9.03239C17.4172 9.01083 17.4773 8.99974 17.5379 8.99974C17.5986 8.99974 17.6587 9.01083 17.7148 9.03239C17.7708 9.05395 17.8218 9.08555 17.8647 9.12539C17.9076 9.16522 17.9416 9.21252 17.9648 9.26457C17.988 9.31662 18 9.3724 18 9.42874C18 9.48508 17.988 9.54086 17.9648 9.59291C17.9416 9.64496 17.9076 9.69225 17.8647 9.73209L12.3269 14.8736C12.284 14.9135 12.2331 14.9452 12.177 14.9668C12.1209 14.9884 12.0608 14.9995 12.0001 14.9995C11.9394 14.9995 11.8793 14.9884 11.8232 14.9668C11.7672 14.9452 11.7163 14.9135 11.6734 14.8736L6.13558 9.73209C6.0926 9.69229 6.0585 9.64501 6.03524 9.59295C6.01198 9.5409 6 9.4851 6 9.42874C6 9.37238 6.01198 9.31658 6.03524 9.26452C6.0585 9.21247 6.0926 9.16519 6.13558 9.12539Z" fill="#9FA4B2"/>
</svg>
