<svg width="25" height="24" viewBox="0 0 25 24" fill="none" xmlns="http://www.w3.org/2000/svg">
<path d="M11.6515 12L6.67574 7.02426C6.44142 6.78995 6.44142 6.41005 6.67574 6.17574C6.91005 5.94142 7.28995 5.94142 7.52426 6.17574L12.5 11.1515L17.4757 6.17574C17.7101 5.94142 18.09 5.94142 18.3243 6.17574C18.5586 6.41005 18.5586 6.78995 18.3243 7.02426L13.3485 12L18.3243 16.9757C18.5586 17.2101 18.5586 17.59 18.3243 17.8243C18.09 18.0586 17.7101 18.0586 17.4757 17.8243L12.5 12.8485L7.52426 17.8243C7.28995 18.0586 6.91005 18.0586 6.67574 17.8243C6.44142 17.59 6.44142 17.2101 6.67574 16.9757L11.6515 12Z" fill="white"/>
</svg>
