<svg width="24" height="24" viewBox="0 0 24 24" fill="none" xmlns="http://www.w3.org/2000/svg">
<g clip-path="url(#clip0_611_550)">
<path d="M2.625 15.2222C2.79076 15.2222 2.94973 15.2807 3.06694 15.3849C3.18415 15.4891 3.25 15.6304 3.25 15.7777V18.5555C3.25 18.8502 3.3817 19.1328 3.61612 19.3412C3.85054 19.5496 4.16848 19.6666 4.5 19.6666H19.5C19.8315 19.6666 20.1495 19.5496 20.3839 19.3412C20.6183 19.1328 20.75 18.8502 20.75 18.5555V15.7777C20.75 15.6304 20.8158 15.4891 20.9331 15.3849C21.0503 15.2807 21.2092 15.2222 21.375 15.2222C21.5408 15.2222 21.6997 15.2807 21.8169 15.3849C21.9342 15.4891 22 15.6304 22 15.7777V18.5555C22 19.1449 21.7366 19.7101 21.2678 20.1269C20.7989 20.5436 20.163 20.7777 19.5 20.7777H4.5C3.83696 20.7777 3.20107 20.5436 2.73223 20.1269C2.26339 19.7101 2 19.1449 2 18.5555V15.7777C2 15.6304 2.06585 15.4891 2.18306 15.3849C2.30027 15.2807 2.45924 15.2222 2.625 15.2222Z" fill="white"/>
<path d="M11.5507 17.2516C11.6096 17.3127 11.6797 17.3612 11.7568 17.3943C11.8339 17.4274 11.9166 17.4444 12.0001 17.4444C12.0836 17.4444 12.1663 17.4274 12.2434 17.3943C12.3205 17.3612 12.3906 17.3127 12.4496 17.2516L16.2584 13.3125C16.3776 13.1892 16.4446 13.022 16.4446 12.8477C16.4446 12.6733 16.3776 12.5062 16.2584 12.3829C16.1392 12.2596 15.9775 12.1903 15.8089 12.1903C15.6404 12.1903 15.4787 12.2596 15.3595 12.3829L12.6349 15.2019V3.65651C12.6349 3.48239 12.568 3.31541 12.449 3.19229C12.3299 3.06917 12.1685 3 12.0001 3C11.8317 3 11.6703 3.06917 11.5512 3.19229C11.4322 3.31541 11.3653 3.48239 11.3653 3.65651V15.2019L8.64072 12.3829C8.52152 12.2596 8.35985 12.1903 8.19127 12.1903C8.0227 12.1903 7.86103 12.2596 7.74183 12.3829C7.62263 12.5062 7.55566 12.6733 7.55566 12.8477C7.55566 13.022 7.62263 13.1892 7.74183 13.3125L11.5507 17.2516Z" fill="white"/>
</g>
<defs>
<clipPath id="clip0_611_550">
<rect width="20" height="17.7778" fill="white" transform="translate(2 3)"/>
</clipPath>
</defs>
</svg>
