<svg width="24" height="24" viewBox="0 0 24 24" fill="none" xmlns="http://www.w3.org/2000/svg">
<g clip-path="url(#clip0_1268_22652)">
<path d="M18.6989 15.99C20.8252 14.0925 22.0002 11.9425 22.0002 11.9425C22.0002 11.9425 18.2502 5.0675 12.0002 5.0675C10.7997 5.07164 9.61276 5.32179 8.5127 5.8025L9.4752 6.76625C10.2845 6.47145 11.1389 6.3196 12.0002 6.3175C14.6502 6.3175 16.8489 7.7775 18.4602 9.38875C19.2356 10.1684 19.9308 11.0239 20.5352 11.9425C20.4627 12.0513 20.3827 12.1713 20.2914 12.3025C19.8727 12.9025 19.2539 13.7025 18.4602 14.4963C18.2539 14.7025 18.0389 14.9063 17.8139 15.1038L18.6989 15.99Z" fill="white"/>
<path d="M16.1212 13.4125C16.4001 12.6323 16.4518 11.789 16.2702 10.9805C16.0885 10.1721 15.6811 9.43193 15.0952 8.84604C14.5093 8.26016 13.7691 7.8527 12.9607 7.67106C12.1523 7.48942 11.3089 7.54108 10.5287 7.82002L11.5575 8.84877C12.0378 8.78001 12.5276 8.82408 12.988 8.97747C13.4484 9.13087 13.8668 9.38939 14.2099 9.73253C14.5531 10.0757 14.8116 10.494 14.965 10.9544C15.1184 11.4148 15.1625 11.9046 15.0937 12.385L16.1212 13.4125ZM12.4425 15.0363L13.47 16.0638C12.6898 16.3427 11.8464 16.3944 11.038 16.2127C10.2296 16.0311 9.48936 15.6236 8.90348 15.0377C8.3176 14.4519 7.91013 13.7117 7.72849 12.9032C7.54685 12.0948 7.59851 11.2515 7.87745 10.4713L8.9062 11.5C8.83745 11.9804 8.88151 12.4702 9.03491 12.9306C9.18831 13.391 9.44682 13.8094 9.78997 14.1525C10.1331 14.4957 10.5515 14.7542 11.0119 14.9076C11.4723 15.061 11.9621 15.105 12.4425 15.0363Z" fill="white"/>
<path d="M6.1875 8.78C5.9625 8.98 5.74625 9.1825 5.54 9.38875C4.76456 10.1684 4.0694 11.0239 3.465 11.9425L3.70875 12.3025C4.1275 12.9025 4.74625 13.7025 5.54 14.4962C7.15125 16.1075 9.35125 17.5675 12 17.5675C12.895 17.5675 13.7375 17.4012 14.525 17.1175L15.4875 18.0825C14.3874 18.5632 13.2005 18.8133 12 18.8175C5.75 18.8175 2 11.9425 2 11.9425C2 11.9425 3.17375 9.79125 5.30125 7.895L6.18625 8.78125L6.1875 8.78ZM19.0575 19.885L4.0575 4.885L4.9425 4L19.9425 19L19.0575 19.885Z" fill="white"/>
</g>
<defs>
<clipPath id="clip0_1268_22652">
<rect width="20" height="15.885" fill="white" transform="translate(2 4)"/>
</clipPath>
</defs>
</svg>
