<svg width="24" height="24" viewBox="0 0 24 24" fill="none" xmlns="http://www.w3.org/2000/svg">
<path d="M21.8729 11.611C21.6942 11.3666 17.4371 5.6264 11.9999 5.6264C6.56274 5.6264 2.30539 11.3666 2.12691 11.6108C1.9577 11.8427 1.9577 12.1572 2.12691 12.389C2.30539 12.6334 6.56274 18.3737 11.9999 18.3737C17.4371 18.3737 21.6942 12.6334 21.8729 12.3892C22.0423 12.1574 22.0423 11.8427 21.8729 11.611ZM11.9999 17.055C7.99486 17.055 4.52606 13.2451 3.49922 11.9996C4.52473 10.753 7.98626 6.94508 11.9999 6.94508C16.0048 6.94508 19.4733 10.7543 20.5006 12.0005C19.4751 13.247 16.0135 17.055 11.9999 17.055Z" fill="white"/>
<path d="M12 8.0437C9.81867 8.0437 8.04395 9.81843 8.04395 11.9998C8.04395 14.1811 9.81867 15.9558 12 15.9558C14.1813 15.9558 15.9561 14.1811 15.9561 11.9998C15.9561 9.81843 14.1813 8.0437 12 8.0437ZM12 14.6371C10.5457 14.6371 9.36266 13.454 9.36266 11.9998C9.36266 10.5455 10.5457 9.36241 12 9.36241C13.4543 9.36241 14.6373 10.5455 14.6373 11.9998C14.6373 13.454 13.4543 14.6371 12 14.6371Z" fill="white"/>
</svg>
