<svg width="355" height="27" viewBox="0 0 355 27" fill="none" xmlns="http://www.w3.org/2000/svg">
<rect x="0.541016" y="1.33594" width="353.857" height="24.76" rx="7.5" fill="#262936"/>
<path d="M14.8709 16.3453H14.005V11.8242H12.4668V11.0913H16.4054V11.8242H14.8709V16.3453ZM21.8755 13.711C21.8755 14.1158 21.824 14.4848 21.7209 14.8181C21.62 15.1488 21.4681 15.4337 21.2641 15.6734C21.0606 15.9105 20.8056 16.0935 20.4986 16.2233C20.1921 16.3527 19.8326 16.4173 19.4209 16.4173C19.0014 16.4173 18.6371 16.3527 18.328 16.2233C18.0215 16.0935 17.7665 15.9095 17.5625 15.6698C17.3617 15.43 17.2108 15.144 17.1099 14.8107C17.0095 14.478 16.959 14.1089 16.959 13.7041C16.959 13.1626 17.0478 12.6905 17.225 12.2878C17.4048 11.883 17.6766 11.5692 18.0409 11.3463C18.4073 11.1213 18.8694 11.0088 19.4278 11.0088C19.974 11.0088 20.4282 11.1202 20.7899 11.3426C21.1516 11.5655 21.4223 11.8794 21.6021 12.2842C21.784 12.6869 21.8755 13.1626 21.8755 13.711ZM17.8648 13.711C17.8648 14.1158 17.9195 14.4669 18.0299 14.764C18.1403 15.0589 18.309 15.2865 18.5367 15.4469C18.7664 15.6051 19.0613 15.684 19.4209 15.684C19.7826 15.684 20.077 15.6051 20.3047 15.4469C20.5323 15.2865 20.7 15.0589 20.8077 14.764C20.9155 14.4669 20.9697 14.1158 20.9697 13.711C20.9697 13.0954 20.8461 12.6138 20.5996 12.2663C20.3551 11.9167 19.9645 11.7416 19.4278 11.7416C19.0687 11.7416 18.7727 11.821 18.5404 11.9787C18.3101 12.137 18.1403 12.3636 18.0299 12.658C17.9195 12.9503 17.8648 13.3014 17.8648 13.711ZM27.3881 16.3453H26.3277L23.7549 12.1511H23.7223C23.7318 12.2926 23.7402 12.4424 23.7476 12.6007C23.757 12.7589 23.7644 12.9219 23.7691 13.0896C23.7765 13.2573 23.7822 13.4271 23.787 13.5995V16.3453H23.0037V11.0913H24.0567L26.6263 15.2566H26.6516C26.6463 15.1341 26.6405 14.9942 26.6332 14.836C26.6263 14.6778 26.619 14.5148 26.6116 14.3471C26.6069 14.1772 26.6032 14.0127 26.6011 13.855V11.0913H27.3881V16.3453ZM28.7681 16.3453V11.0913H29.6308V16.3453H28.7681ZM34.2739 16.3453L33.7598 14.8864H31.751L31.2369 16.3453H30.3279L32.2825 11.0698H33.2388L35.1902 16.3453H34.2739ZM33.5369 14.1457L33.0374 12.7084C33.0185 12.6464 32.9906 12.5586 32.9549 12.4461C32.9186 12.331 32.8829 12.2148 32.8471 12.0975C32.8108 11.9777 32.7809 11.8773 32.7572 11.7958C32.7331 11.8941 32.7031 12.004 32.6673 12.1264C32.6337 12.2458 32.6 12.3588 32.5664 12.464C32.5354 12.5696 32.5117 12.6511 32.4949 12.7084L31.9918 14.1457H33.5369Z" fill="white" fill-opacity="0.9"/>
<path d="M42.5104 16.3453H41.6618V12.9634C41.6618 12.8509 41.6634 12.7384 41.6655 12.6259C41.6681 12.5134 41.6702 12.403 41.6729 12.2952C41.6776 12.1875 41.6834 12.0844 41.6908 11.9861C41.6403 12.0413 41.5782 12.1012 41.5036 12.1659C41.4321 12.2306 41.3553 12.2973 41.2738 12.3672L40.6703 12.8488L40.2461 12.3131L41.8059 11.0913H42.5104V16.3453ZM47.9872 15.1919H47.2754V16.3453H46.4416V15.1919H44.0517V14.5521L46.4527 11.0771H47.2754V14.4912H47.9872V15.1919ZM46.4416 14.4912V13.1863C46.4416 13.0786 46.4427 12.9697 46.4453 12.8593C46.4501 12.7468 46.4548 12.6391 46.4595 12.536C46.4642 12.433 46.469 12.3383 46.4742 12.2521C46.479 12.1633 46.4827 12.0902 46.4848 12.0329H46.4558C46.4106 12.1286 46.3601 12.2269 46.3049 12.3273C46.2497 12.4256 46.1914 12.5218 46.1288 12.6149L44.8351 14.4912H46.4416ZM49.5754 15.49L49.6259 15.5726C49.5828 15.745 49.5276 15.9311 49.4603 16.1298C49.3935 16.3285 49.3205 16.5272 49.2411 16.7265C49.1622 16.9273 49.0818 17.1166 49.0003 17.2942H48.382C48.4325 17.1003 48.4804 16.8963 48.5261 16.6834C48.5739 16.4726 48.617 16.2639 48.6554 16.0578C48.6959 15.8496 48.7285 15.6603 48.7527 15.49H49.5754ZM52.9389 16.3453H52.091V12.9634C52.091 12.8509 52.092 12.7384 52.0946 12.6259C52.0973 12.5134 52.0994 12.403 52.102 12.2952C52.1067 12.1875 52.1125 12.0844 52.1199 11.9861C52.0694 12.0413 52.0074 12.1012 51.9327 12.1659C51.8612 12.2306 51.7845 12.2973 51.703 12.3672L51.0989 12.8488L50.6752 12.3131L52.235 11.0913H52.9389V16.3453ZM56.4539 13.0607C56.7919 13.0607 57.0889 13.1217 57.345 13.2442C57.6036 13.3635 57.8049 13.5412 57.949 13.7756C58.0925 14.008 58.1646 14.2935 58.1646 14.631C58.1646 15 58.0867 15.3186 57.9311 15.5872C57.775 15.8527 57.5463 16.0578 57.2446 16.2018C56.9428 16.3453 56.5748 16.4174 56.1411 16.4174C55.8656 16.4174 55.608 16.3932 55.3688 16.3453C55.1312 16.2975 54.9267 16.2255 54.7542 16.1298V15.368C54.9335 15.4684 55.1496 15.551 55.4009 15.6156C55.6527 15.6782 55.8935 15.7092 56.1232 15.7092C56.3677 15.7092 56.5774 15.6735 56.7519 15.6015C56.927 15.5294 57.0611 15.4195 57.1546 15.2708C57.2503 15.1225 57.2982 14.9343 57.2982 14.7067C57.2982 14.4049 57.2014 14.1726 57.0075 14.0096C56.8156 13.844 56.5149 13.7615 56.1053 13.7615C55.9613 13.7615 55.8083 13.7746 55.6453 13.8009C55.485 13.825 55.3504 13.8513 55.2426 13.8802L54.8725 13.661L55.0702 11.0913H57.8013V11.8352H55.8141L55.6989 13.1432C55.7852 13.1243 55.8882 13.1064 56.0081 13.0896C56.1279 13.0701 56.2767 13.0607 56.4539 13.0607Z" fill="white" fill-opacity="0.9"/>
<path d="M69.1357 14.7679L66.77 12.665L64.4043 14.7679" stroke="#18C35D" stroke-width="1.5" stroke-linecap="round" stroke-linejoin="round"/>
<path d="M75.7595 13.4308H77.1968V14.0705H75.7595V15.5226H75.1197V14.0705H73.6855V13.4308H75.1197V11.9645H75.7595V13.4308ZM83.1515 12.2915C83.1515 12.5286 83.1037 12.7347 83.008 12.9098C82.9118 13.0849 82.7804 13.2283 82.6127 13.3408C82.4471 13.4512 82.2558 13.5301 82.0376 13.578V13.6032C82.4566 13.6558 82.7731 13.7877 82.9865 13.9985C83.202 14.2093 83.3098 14.4885 83.3098 14.836C83.3098 15.1404 83.2367 15.4122 83.0906 15.6519C82.9444 15.889 82.7205 16.0756 82.4187 16.2123C82.1164 16.349 81.7284 16.4174 81.2542 16.4174C80.9688 16.4174 80.7044 16.3942 80.4599 16.349C80.2181 16.3033 79.9878 16.2302 79.7696 16.1298V15.3785C79.9925 15.4889 80.2296 15.5741 80.4815 15.6335C80.7333 15.6934 80.9714 15.7234 81.1964 15.7234C81.6349 15.7234 81.9477 15.6419 82.1348 15.4795C82.3215 15.3139 82.415 15.0862 82.415 14.7966C82.415 14.6094 82.3656 14.4564 82.2673 14.3366C82.1716 14.2167 82.0218 14.1268 81.8183 14.0669C81.617 14.0069 81.3573 13.977 81.0387 13.977H80.575V13.2978H81.0419C81.3462 13.2978 81.5907 13.262 81.7752 13.19C81.9598 13.1158 82.0928 13.0139 82.1742 12.8845C82.2578 12.7552 82.2999 12.6043 82.2999 12.4319C82.2999 12.2064 82.2268 12.0318 82.0807 11.9072C81.9345 11.78 81.7179 11.7164 81.4304 11.7164C81.2527 11.7164 81.0913 11.7369 80.9451 11.7779C80.8011 11.8184 80.6681 11.8699 80.5461 11.9319C80.4241 11.9945 80.308 12.0618 80.1976 12.1333L79.7917 11.5477C79.9904 11.3989 80.2275 11.2732 80.503 11.1702C80.7785 11.0671 81.0997 11.0156 81.4661 11.0156C82.005 11.0156 82.4208 11.1318 82.7131 11.3642C83.0054 11.5944 83.1515 11.9036 83.1515 12.2915ZM85.1319 15.49L85.1819 15.5725C85.1387 15.745 85.0841 15.9311 85.0168 16.1298C84.9495 16.3285 84.8764 16.5272 84.7976 16.7265C84.7187 16.9273 84.6383 17.1165 84.5568 17.2942H83.9385C83.989 17.1002 84.0368 16.8963 84.0826 16.6834C84.1304 16.4725 84.1736 16.2638 84.2119 16.0578C84.2524 15.8496 84.285 15.6603 84.3086 15.49H85.1319ZM89.5626 13.3304C89.5626 13.6416 89.54 13.947 89.4948 14.2467C89.4517 14.5458 89.3749 14.8265 89.2645 15.0873C89.1568 15.3486 89.0069 15.5799 88.8156 15.7812C88.6263 15.9799 88.3866 16.1356 88.0964 16.2481C87.8068 16.3611 87.4572 16.4174 87.0471 16.4174C86.9441 16.4174 86.8242 16.411 86.688 16.3995C86.5534 16.3895 86.4436 16.3753 86.3574 16.3564V15.6519C86.4483 15.6782 86.5503 15.6998 86.6628 15.7166C86.7779 15.7308 86.8915 15.7381 87.004 15.7381C87.4472 15.7381 87.7926 15.6556 88.0391 15.49C88.2883 15.3249 88.4644 15.0973 88.5675 14.8071C88.6726 14.5174 88.7326 14.1878 88.7473 13.8187H88.7041C88.6342 13.9339 88.5469 14.0395 88.4418 14.1352C88.3361 14.2288 88.2058 14.304 88.0496 14.3618C87.894 14.4165 87.7048 14.4443 87.4819 14.4443C87.1801 14.4443 86.9167 14.3807 86.6917 14.2535C86.4688 14.1268 86.2948 13.9423 86.1702 13.7004C86.0482 13.456 85.9873 13.1626 85.9873 12.8199C85.9873 12.4487 86.0577 12.1286 86.1991 11.8604C86.3405 11.5918 86.5403 11.3857 86.7995 11.2422C87.0581 11.0961 87.3625 11.023 87.7121 11.023C87.9755 11.023 88.2189 11.0708 88.4418 11.1665C88.6668 11.2601 88.8634 11.4041 89.0311 11.5981C89.1989 11.7895 89.3292 12.0303 89.4228 12.3204C89.5164 12.608 89.5626 12.9445 89.5626 13.3304ZM87.7226 11.7201C87.4572 11.7201 87.24 11.81 87.0723 11.9898C86.9046 12.167 86.8211 12.4403 86.8211 12.8088C86.8211 13.1085 86.8925 13.3456 87.0366 13.5207C87.1801 13.6957 87.4004 13.783 87.6979 13.783C87.9035 13.783 88.0812 13.7409 88.2294 13.6574C88.3803 13.5711 88.4965 13.4618 88.578 13.3304C88.6621 13.1984 88.7041 13.0643 88.7041 12.9277C88.7041 12.7862 88.6836 12.6448 88.6426 12.5034C88.6048 12.3625 88.5449 12.2326 88.4634 12.1154C88.3819 11.9982 88.2788 11.9036 88.1542 11.8315C88.0317 11.7574 87.8882 11.7201 87.7226 11.7201ZM93.782 13.7146C93.782 14.1389 93.7484 14.5185 93.6811 14.8539C93.6164 15.1872 93.5134 15.4695 93.3725 15.7018C93.2311 15.9342 93.0466 16.1119 92.8189 16.2339C92.5913 16.3564 92.3158 16.4174 91.9925 16.4174C91.5872 16.4174 91.2533 16.3106 90.9894 16.0972C90.726 15.8816 90.531 15.5725 90.4038 15.1704C90.2765 14.765 90.2135 14.2803 90.2135 13.7146C90.2135 13.1495 90.2708 12.6653 90.3859 12.2626C90.5031 11.8578 90.6924 11.5476 90.9537 11.3321C91.215 11.1166 91.5609 11.0088 91.9925 11.0088C92.3994 11.0088 92.7348 11.1166 92.9987 11.3321C93.2642 11.545 93.4608 11.8542 93.588 12.2595C93.7173 12.6617 93.782 13.1469 93.782 13.7146ZM91.0651 13.7146C91.0651 14.1578 91.0941 14.5279 91.1514 14.8249C91.2113 15.1225 91.3096 15.3449 91.4458 15.4937C91.5824 15.6398 91.7649 15.7129 91.9925 15.7129C92.2196 15.7129 92.402 15.6398 92.5387 15.4937C92.6749 15.3475 92.7732 15.1257 92.8331 14.8286C92.8957 14.5316 92.9267 14.1604 92.9267 13.7146C92.9267 13.2741 92.8967 12.905 92.8368 12.608C92.7769 12.311 92.6785 12.0881 92.5419 11.9393C92.4057 11.7884 92.2222 11.7127 91.9925 11.7127C91.7622 11.7127 91.5787 11.7884 91.4426 11.9393C91.308 12.0881 91.2113 12.311 91.1514 12.608C91.0941 12.905 91.0651 13.2741 91.0651 13.7146ZM97.4689 11.0156C97.8547 11.0156 98.147 11.1597 98.3458 11.4472C98.545 11.7322 98.6444 12.1359 98.6444 12.658C98.6444 13.1779 98.5487 13.5843 98.3568 13.8766C98.1675 14.1689 97.8716 14.315 97.4689 14.315C97.093 14.315 96.8065 14.1689 96.6104 13.8766C96.4137 13.5843 96.3155 13.1779 96.3155 12.658C96.3155 12.1359 96.408 11.7322 96.5925 11.4472C96.7791 11.1597 97.0714 11.0156 97.4689 11.0156ZM97.4725 11.6049C97.3169 11.6049 97.2018 11.6927 97.1277 11.8673C97.0557 12.0423 97.0199 12.3073 97.0199 12.6616C97.0199 13.0139 97.0557 13.2799 97.1277 13.4597C97.2018 13.6368 97.3169 13.7257 97.4725 13.7257C97.6308 13.7257 97.748 13.6368 97.8248 13.4597C97.9041 13.2825 97.9436 13.0165 97.9436 12.6616C97.9436 12.3094 97.9052 12.046 97.8285 11.871C97.7517 11.6938 97.6334 11.6049 97.4725 11.6049ZM100.998 11.0913L98.0834 16.3453H97.39L100.305 11.0913H100.998ZM100.901 13.118C101.287 13.118 101.579 13.262 101.778 13.5496C101.979 13.8345 102.08 14.2382 102.08 14.7603C102.08 15.2781 101.984 15.6829 101.792 15.9752C101.603 16.2675 101.306 16.4137 100.901 16.4137C100.525 16.4137 100.239 16.2675 100.042 15.9752C99.8456 15.6829 99.7473 15.2781 99.7473 14.7603C99.7473 14.2382 99.8398 13.8345 100.024 13.5496C100.211 13.262 100.503 13.118 100.901 13.118ZM100.905 13.7073C100.749 13.7073 100.634 13.7951 100.56 13.9696C100.488 14.1447 100.452 14.4096 100.452 14.764C100.452 15.1162 100.488 15.3822 100.56 15.562C100.634 15.7392 100.749 15.828 100.905 15.828C101.065 15.828 101.184 15.7402 101.26 15.5657C101.337 15.388 101.375 15.1209 101.375 14.764C101.375 14.4117 101.337 14.1483 101.26 13.9733C101.184 13.7961 101.065 13.7073 100.905 13.7073Z" fill="#18C35D"/>
<path d="M130.527 16.3448H129.661V11.8237H128.123V11.0909H132.062V11.8237H130.527V16.3448ZM139.08 11.0909L137.708 16.3448H136.766L135.889 13.1969C135.868 13.1201 135.844 13.0292 135.817 12.9235C135.791 12.8184 135.765 12.7106 135.738 12.6002C135.714 12.4898 135.693 12.3894 135.673 12.2984C135.657 12.2049 135.645 12.1328 135.638 12.0829C135.633 12.1328 135.622 12.2038 135.605 12.2948C135.589 12.3857 135.568 12.4861 135.544 12.5965C135.522 12.7043 135.499 12.8121 135.472 12.9198C135.446 13.0255 135.422 13.1191 135.4 13.2006L134.538 16.3448H133.6L132.231 11.0909H133.097L133.855 14.1705C133.879 14.2688 133.903 14.3755 133.927 14.4907C133.953 14.6032 133.977 14.7167 133.999 14.8319C134.023 14.947 134.044 15.0595 134.064 15.1699C134.083 15.2777 134.098 15.376 134.11 15.4643C134.122 15.3733 134.138 15.2729 134.157 15.1625C134.176 15.05 134.197 14.9359 134.218 14.8213C134.242 14.7036 134.266 14.5911 134.29 14.4833C134.316 14.3755 134.343 14.2783 134.369 14.1921L135.224 11.0909H136.065L136.939 14.2031C136.965 14.2914 136.99 14.3913 137.014 14.5012C137.04 14.6116 137.065 14.7241 137.09 14.8392C137.113 14.9538 137.135 15.0653 137.154 15.173C137.173 15.2813 137.189 15.3781 137.201 15.4643C137.218 15.3471 137.239 15.213 137.266 15.0621C137.292 14.9107 137.322 14.7577 137.356 14.6021C137.389 14.446 137.422 14.3025 137.456 14.1705L138.211 11.0909H139.08ZM139.824 16.3448V11.0909H140.687V16.3448H139.824ZM146.458 16.3448H145.398L142.825 12.1507H142.793C142.803 12.2921 142.811 12.442 142.818 12.6002C142.827 12.7584 142.835 12.9214 142.839 13.0891C142.847 13.2568 142.852 13.4266 142.857 13.599V16.3448H142.074V11.0909H143.127L145.697 15.2561H145.722C145.717 15.1336 145.711 14.9938 145.703 14.8355C145.697 14.6773 145.689 14.5143 145.682 14.3466C145.677 14.1768 145.674 14.0123 145.671 13.8545V11.0909H146.458V16.3448ZM151.094 16.3448L150.58 14.886H148.572L148.058 16.3448H147.149L149.103 11.0693H150.059L152.011 16.3448H151.094ZM150.358 14.1453L149.858 12.708C149.839 12.6459 149.811 12.5581 149.776 12.4456C149.739 12.3305 149.704 12.2143 149.668 12.0971C149.632 11.9772 149.602 11.8768 149.578 11.7953C149.554 11.8936 149.524 12.0035 149.488 12.126C149.454 12.2453 149.421 12.3584 149.387 12.4635C149.356 12.5692 149.332 12.6507 149.316 12.708L148.812 14.1453H150.358Z" fill="white" fill-opacity="0.9"/>
<path d="M159.217 16.3453H158.369V12.9634C158.369 12.8509 158.37 12.7384 158.373 12.6259C158.375 12.5134 158.377 12.403 158.38 12.2952C158.385 12.1875 158.39 12.0844 158.398 11.9861C158.347 12.0413 158.285 12.1012 158.211 12.1659C158.139 12.2305 158.062 12.2973 157.981 12.3672L157.377 12.8488L156.953 12.3131L158.513 11.0913H159.217V16.3453ZM164.302 12.2915C164.302 12.5286 164.254 12.7347 164.159 12.9098C164.063 13.0848 163.931 13.2283 163.763 13.3408C163.598 13.4512 163.406 13.5301 163.188 13.578V13.6032C163.608 13.6558 163.924 13.7877 164.137 13.9985C164.353 14.2093 164.46 14.4885 164.46 14.836C164.46 15.1404 164.387 15.4122 164.241 15.6519C164.095 15.889 163.871 16.0756 163.569 16.2123C163.267 16.349 162.879 16.4173 162.405 16.4173C162.12 16.4173 161.855 16.3942 161.61 16.349C161.369 16.3033 161.138 16.2302 160.921 16.1298V15.3785C161.144 15.4889 161.381 15.5741 161.632 15.6335C161.884 15.6934 162.122 15.7234 162.347 15.7234C162.786 15.7234 163.098 15.6419 163.285 15.4795C163.472 15.3139 163.566 15.0862 163.566 14.7966C163.566 14.6094 163.517 14.4564 163.418 14.3366C163.322 14.2167 163.173 14.1268 162.969 14.0669C162.768 14.0069 162.508 13.977 162.189 13.977H161.726V13.2977H162.193C162.497 13.2977 162.741 13.262 162.926 13.19C163.11 13.1158 163.243 13.0139 163.325 12.8845C163.409 12.7552 163.45 12.6043 163.45 12.4319C163.45 12.2064 163.377 12.0318 163.231 11.9072C163.085 11.78 162.868 11.7164 162.581 11.7164C162.404 11.7164 162.242 11.7369 162.096 11.7779C161.952 11.8184 161.819 11.8699 161.697 11.9319C161.575 11.9945 161.458 12.0618 161.348 12.1333L160.942 11.5477C161.141 11.3989 161.378 11.2732 161.654 11.1702C161.929 11.0671 162.25 11.0156 162.617 11.0156C163.156 11.0156 163.571 11.1318 163.864 11.3642C164.156 11.5944 164.302 11.9036 164.302 12.2915ZM166.282 15.49L166.333 15.5725C166.29 15.745 166.235 15.9311 166.167 16.1298C166.101 16.3285 166.027 16.5272 165.948 16.7264C165.869 16.9273 165.789 17.1165 165.707 17.2942H165.089C165.14 17.1002 165.187 16.8963 165.233 16.6833C165.281 16.4725 165.324 16.2638 165.362 16.0577C165.403 15.8496 165.436 15.6603 165.46 15.49H166.282ZM167.17 14.1063C167.17 13.7972 167.191 13.4933 167.235 13.1937C167.28 12.894 167.357 12.6138 167.465 12.3525C167.573 12.0918 167.721 11.8615 167.911 11.6628C168.102 11.4641 168.343 11.3079 168.633 11.1954C168.923 11.0803 169.271 11.023 169.679 11.023C169.784 11.023 169.903 11.0277 170.034 11.0372C170.166 11.0472 170.275 11.0624 170.361 11.084V11.7847C170.268 11.7585 170.165 11.7379 170.052 11.7238C169.942 11.7096 169.832 11.7022 169.722 11.7022C169.281 11.7022 168.937 11.7858 168.69 11.9535C168.444 12.1191 168.268 12.3467 168.162 12.6364C168.057 12.924 167.995 13.2536 167.979 13.6247H168.022C168.094 13.5049 168.183 13.3987 168.291 13.3051C168.399 13.2115 168.531 13.1374 168.687 13.0822C168.842 13.0249 169.023 12.996 169.229 12.996C169.536 12.996 169.803 13.0606 170.031 13.19C170.258 13.3172 170.433 13.5012 170.555 13.7436C170.68 13.9854 170.742 14.2787 170.742 14.6241C170.742 14.9953 170.672 15.3149 170.53 15.5836C170.391 15.8517 170.192 16.0577 169.934 16.2018C169.677 16.3453 169.372 16.4173 169.017 16.4173C168.756 16.4173 168.513 16.3695 168.288 16.2733C168.065 16.1776 167.87 16.0341 167.702 15.8422C167.534 15.6503 167.404 15.4111 167.31 15.1236C167.217 14.8334 167.17 14.4943 167.17 14.1063ZM169.003 15.7202C169.276 15.7202 169.495 15.6314 169.661 15.4542C169.828 15.2744 169.912 15 169.912 14.631C169.912 14.3318 169.838 14.0942 169.689 13.9197C169.543 13.7446 169.323 13.6573 169.028 13.6573C168.827 13.6573 168.651 13.7004 168.5 13.7867C168.349 13.8729 168.231 13.9817 168.148 14.1137C168.066 14.2456 168.025 14.3797 168.025 14.5163C168.025 14.6551 168.046 14.795 168.087 14.9364C168.127 15.0778 168.188 15.2087 168.27 15.3281C168.351 15.4458 168.453 15.5404 168.575 15.6119C168.698 15.6839 168.84 15.7202 169.003 15.7202ZM171.382 14.1063C171.382 13.7972 171.403 13.4933 171.447 13.1937C171.492 12.894 171.569 12.6138 171.677 12.3525C171.785 12.0918 171.933 11.8615 172.122 11.6628C172.314 11.4641 172.555 11.3079 172.844 11.1954C173.135 11.0803 173.483 11.023 173.891 11.023C173.996 11.023 174.115 11.0277 174.246 11.0372C174.378 11.0472 174.487 11.0624 174.573 11.084V11.7847C174.48 11.7585 174.377 11.7379 174.264 11.7238C174.154 11.7096 174.044 11.7022 173.934 11.7022C173.493 11.7022 173.149 11.7858 172.902 11.9535C172.655 12.1191 172.479 12.3467 172.374 12.6364C172.268 12.924 172.207 13.2536 172.19 13.6247H172.234C172.306 13.5049 172.395 13.3987 172.503 13.3051C172.611 13.2115 172.743 13.1374 172.899 13.0822C173.054 13.0249 173.235 12.996 173.441 12.996C173.748 12.996 174.015 13.0606 174.243 13.19C174.47 13.3172 174.645 13.5012 174.767 13.7436C174.892 13.9854 174.954 14.2787 174.954 14.6241C174.954 14.9953 174.884 15.3149 174.742 15.5836C174.603 15.8517 174.404 16.0577 174.146 16.2018C173.889 16.3453 173.584 16.4173 173.229 16.4173C172.968 16.4173 172.725 16.3695 172.5 16.2733C172.277 16.1776 172.082 16.0341 171.914 15.8422C171.746 15.6503 171.616 15.4111 171.522 15.1236C171.429 14.8334 171.382 14.4943 171.382 14.1063ZM173.215 15.7202C173.488 15.7202 173.707 15.6314 173.872 15.4542C174.04 15.2744 174.124 15 174.124 14.631C174.124 14.3318 174.05 14.0942 173.901 13.9197C173.755 13.7446 173.535 13.6573 173.24 13.6573C173.039 13.6573 172.863 13.7004 172.711 13.7867C172.561 13.8729 172.443 13.9817 172.36 14.1137C172.278 14.2456 172.237 14.3797 172.237 14.5163C172.237 14.6551 172.258 14.795 172.298 14.9364C172.339 15.0778 172.4 15.2087 172.482 15.3281C172.563 15.4458 172.665 15.5404 172.787 15.6119C172.909 15.6839 173.052 15.7202 173.215 15.7202Z" fill="white" fill-opacity="0.9"/>
<path d="M181.639 12.665L184.004 14.7679L186.37 12.665" stroke="#FF524A" stroke-width="1.5" stroke-linecap="round" stroke-linejoin="round"/>
<path d="M190.309 14.7282V14.0127H192.163V14.7282H190.309ZM197.148 16.3453H196.3V12.9634C196.3 12.8509 196.301 12.7384 196.303 12.6259C196.305 12.5134 196.308 12.403 196.31 12.2952C196.315 12.1875 196.321 12.0844 196.328 11.9861C196.278 12.0413 196.215 12.1012 196.141 12.1659C196.069 12.2305 195.993 12.2973 195.911 12.3672L195.308 12.8488L194.883 12.3131L196.443 11.0913H197.148V16.3453ZM200.001 15.49L200.051 15.5725C200.008 15.745 199.953 15.9311 199.886 16.1298C199.819 16.3285 199.746 16.5272 199.667 16.7265C199.588 16.9273 199.508 17.1165 199.426 17.2942H198.808C198.858 17.1002 198.906 16.8963 198.952 16.6834C199 16.4725 199.043 16.2638 199.081 16.0578C199.122 15.8496 199.154 15.6603 199.178 15.49H200.001ZM200.889 14.1063C200.889 13.7972 200.91 13.4933 200.953 13.1937C200.999 12.894 201.076 12.6138 201.183 12.3525C201.291 12.0918 201.44 11.8615 201.629 11.6628C201.821 11.4641 202.061 11.3079 202.351 11.1954C202.641 11.0803 202.99 11.023 203.397 11.023C203.502 11.023 203.621 11.0277 203.753 11.0372C203.885 11.0472 203.993 11.0624 204.08 11.084V11.7848C203.987 11.7585 203.884 11.7379 203.771 11.7238C203.661 11.7096 203.55 11.7022 203.44 11.7022C202.999 11.7022 202.655 11.7858 202.409 11.9535C202.162 12.1191 201.986 12.3467 201.881 12.6364C201.775 12.924 201.714 13.2536 201.697 13.6248H201.74C201.812 13.5049 201.902 13.3987 202.01 13.3051C202.118 13.2115 202.25 13.1374 202.405 13.0822C202.561 13.0249 202.742 12.996 202.948 12.996C203.255 12.996 203.522 13.0606 203.749 13.19C203.977 13.3172 204.152 13.5012 204.274 13.7436C204.399 13.9854 204.461 14.2787 204.461 14.6241C204.461 14.9953 204.39 15.3149 204.249 15.5836C204.11 15.8517 203.911 16.0577 203.652 16.2018C203.396 16.3453 203.09 16.4174 202.736 16.4174C202.475 16.4174 202.232 16.3695 202.006 16.2733C201.783 16.1776 201.588 16.0341 201.421 15.8422C201.253 15.6503 201.122 15.4111 201.029 15.1236C200.935 14.8334 200.889 14.4943 200.889 14.1063ZM202.722 15.7202C202.995 15.7202 203.214 15.6314 203.379 15.4542C203.547 15.2744 203.631 15 203.631 14.631C203.631 14.3318 203.557 14.0942 203.408 13.9197C203.262 13.7446 203.041 13.6574 202.746 13.6574C202.546 13.6574 202.369 13.7004 202.218 13.7867C202.067 13.8729 201.95 13.9817 201.866 14.1137C201.785 14.2456 201.744 14.3797 201.744 14.5164C201.744 14.6551 201.764 14.795 201.805 14.9364C201.846 15.0778 201.907 15.2087 201.988 15.3281C202.07 15.4458 202.172 15.5404 202.294 15.6119C202.416 15.684 202.559 15.7202 202.722 15.7202ZM208.651 13.7146C208.651 14.1389 208.618 14.5185 208.55 14.8539C208.486 15.1872 208.383 15.4695 208.242 15.7018C208.1 15.9342 207.916 16.1119 207.688 16.2339C207.46 16.3564 207.185 16.4174 206.862 16.4174C206.456 16.4174 206.123 16.3106 205.859 16.0972C205.595 15.8816 205.4 15.5725 205.273 15.1704C205.146 14.765 205.083 14.2803 205.083 13.7146C205.083 13.1495 205.14 12.6653 205.255 12.2626C205.372 11.8578 205.562 11.5476 205.823 11.3321C206.084 11.1166 206.43 11.0088 206.862 11.0088C207.269 11.0088 207.604 11.1166 207.868 11.3321C208.133 11.545 208.33 11.8542 208.457 12.2595C208.587 12.6617 208.651 13.1469 208.651 13.7146ZM205.934 13.7146C205.934 14.1578 205.963 14.5279 206.021 14.8249C206.081 15.1225 206.179 15.3449 206.315 15.4937C206.452 15.6398 206.634 15.7129 206.862 15.7129C207.089 15.7129 207.271 15.6398 207.408 15.4937C207.544 15.3475 207.642 15.1257 207.702 14.8286C207.765 14.5316 207.796 14.1604 207.796 13.7146C207.796 13.2741 207.766 12.905 207.706 12.608C207.646 12.311 207.548 12.0881 207.411 11.9393C207.275 11.7884 207.091 11.7127 206.862 11.7127C206.631 11.7127 206.448 11.7884 206.312 11.9393C206.177 12.0881 206.081 12.311 206.021 12.608C205.963 12.905 205.934 13.2741 205.934 13.7146ZM212.338 11.0156C212.724 11.0156 213.016 11.1597 213.215 11.4472C213.414 11.7322 213.514 12.1359 213.514 12.658C213.514 13.1779 213.418 13.5843 213.226 13.8766C213.037 14.1689 212.741 14.315 212.338 14.315C211.962 14.315 211.676 14.1689 211.48 13.8766C211.283 13.5843 211.185 13.1779 211.185 12.658C211.185 12.1359 211.277 11.7322 211.462 11.4472C211.648 11.1597 211.941 11.0156 212.338 11.0156ZM212.342 11.6049C212.186 11.6049 212.071 11.6927 211.997 11.8673C211.925 12.0423 211.889 12.3073 211.889 12.6616C211.889 13.0139 211.925 13.2799 211.997 13.4597C212.071 13.6368 212.186 13.7257 212.342 13.7257C212.5 13.7257 212.617 13.6368 212.694 13.4597C212.773 13.2825 212.813 13.0165 212.813 12.6616C212.813 12.3094 212.774 12.046 212.698 11.871C212.621 11.6938 212.503 11.6049 212.342 11.6049ZM215.867 11.0913L212.953 16.3453H212.259L215.174 11.0913H215.867ZM215.77 13.118C216.156 13.118 216.449 13.262 216.647 13.5496C216.849 13.8345 216.949 14.2382 216.949 14.7603C216.949 15.2781 216.853 15.6829 216.662 15.9752C216.472 16.2675 216.175 16.4137 215.77 16.4137C215.394 16.4137 215.108 16.2675 214.911 15.9752C214.715 15.6829 214.616 15.2781 214.616 14.7603C214.616 14.2382 214.709 13.8345 214.894 13.5496C215.08 13.262 215.372 13.118 215.77 13.118ZM215.774 13.7073C215.618 13.7073 215.503 13.7951 215.429 13.9696C215.357 14.1447 215.321 14.4096 215.321 14.764C215.321 15.1162 215.357 15.3822 215.429 15.562C215.503 15.7392 215.618 15.828 215.774 15.828C215.934 15.828 216.053 15.7402 216.129 15.5657C216.206 15.388 216.245 15.1209 216.245 14.764C216.245 14.4117 216.206 14.1483 216.129 13.9733C216.053 13.7961 215.934 13.7073 215.774 13.7073Z" fill="#FF524A"/>
<path d="M243.316 11.0913H244.103V13.8766C244.103 13.9964 244.102 14.1279 244.1 14.2719C244.098 14.4154 244.093 14.5558 244.086 14.6919C244.081 14.8286 244.076 14.9511 244.071 15.0589C244.067 15.164 244.062 15.2408 244.057 15.2886H244.082L246.756 11.0913H247.759V16.3453H246.979V13.5816C246.979 13.4523 246.981 13.3119 246.986 13.1611C246.991 13.0102 246.996 12.864 247.004 12.7226C247.011 12.5812 247.018 12.4571 247.025 12.3488C247.033 12.2411 247.037 12.1648 247.04 12.1191H247.007L244.326 16.3453H243.316V11.0913ZM249.904 12.3672V13.9664H251.766V12.3672H252.614V16.3453H251.766V14.6273H249.904V16.3453H249.056V12.3672H249.904ZM257.07 12.3672V15.6913H257.643V17.7469H256.865V16.3453H254.119V17.7469H253.34V15.6913H253.663C253.864 15.399 254.032 15.0731 254.166 14.7135C254.303 14.3544 254.408 13.9759 254.483 13.578C254.559 13.1779 254.607 12.7741 254.626 12.3672H257.07ZM256.233 13.0139H255.352C255.323 13.3372 255.274 13.6595 255.205 13.9807C255.135 14.2992 255.046 14.6047 254.935 14.897C254.827 15.1872 254.698 15.4516 254.547 15.6913H256.233V13.0139ZM259.972 12.2915C260.324 12.2915 260.629 12.3646 260.881 12.5108C261.139 12.6569 261.333 12.864 261.47 13.1327C261.607 13.4008 261.675 13.722 261.675 14.0958V14.5484H259.02C259.025 14.9343 259.13 15.2313 259.325 15.4395C259.525 15.6482 259.803 15.7523 260.161 15.7523C260.413 15.7523 260.644 15.7281 260.844 15.6803C261.049 15.6303 261.254 15.5573 261.47 15.4611V16.1477C261.275 16.2412 261.07 16.3096 260.865 16.3527C260.66 16.3958 260.413 16.4174 260.124 16.4174C259.735 16.4174 259.388 16.3416 259.094 16.1908C258.799 16.0372 258.568 15.8096 258.4 15.5078C258.237 15.2061 258.153 14.8313 258.153 14.3834C258.153 13.9376 258.226 13.559 258.379 13.2473C258.531 12.9361 258.741 12.699 259.015 12.536C259.288 12.373 259.604 12.2915 259.972 12.2915ZM259.972 12.9277C259.703 12.9277 259.488 13.0139 259.325 13.1863C259.162 13.3588 259.062 13.6116 259.036 13.9449H260.85C260.844 13.7457 260.813 13.5696 260.744 13.4166C260.687 13.2631 260.587 13.1432 260.461 13.057C260.334 12.9708 260.171 12.9277 259.972 12.9277ZM265.092 12.3672H266.023L264.377 14.2787L266.165 16.3453H265.187L263.473 14.3255V16.3453H262.626V12.3672H263.473V14.2971L265.092 12.3672ZM268.409 16.4174C268.036 16.4174 267.71 16.3443 267.437 16.1981C267.158 16.052 266.948 15.828 266.801 15.5257C266.648 15.224 266.575 14.8407 266.575 14.376C266.575 13.8918 266.659 13.4965 266.822 13.19C266.985 12.8835 267.205 12.6569 267.495 12.5108C267.784 12.3646 268.115 12.2915 268.493 12.2915C268.73 12.2915 268.94 12.3157 269.135 12.3636C269.329 12.4088 269.492 12.465 269.629 12.5323L269.377 13.2078C269.229 13.1479 269.077 13.098 268.925 13.057C268.772 13.0165 268.625 12.996 268.483 12.996C268.252 12.996 268.057 13.0475 267.899 13.1505C267.747 13.2536 267.631 13.4066 267.558 13.6105C267.484 13.814 267.447 14.0669 267.447 14.3686C267.447 14.6609 267.484 14.908 267.558 15.1088C267.637 15.3081 267.752 15.459 267.899 15.562C268.052 15.6624 268.236 15.7129 268.457 15.7129C268.677 15.7129 268.872 15.6866 269.045 15.6335C269.219 15.5809 269.382 15.5126 269.534 15.429V16.1618C269.382 16.2481 269.219 16.3117 269.045 16.3527C268.877 16.3958 268.662 16.4174 268.409 16.4174ZM276.474 16.3453H275.48L273.845 13.9591L273.33 14.3797V16.3453H272.468V11.0913H273.33V13.6032C273.435 13.4739 273.54 13.3446 273.645 13.2152C273.756 13.0859 273.861 12.9566 273.971 12.8272L275.454 11.0913H276.426L274.466 13.3913L276.474 16.3453ZM280.422 16.3453L279.907 14.8864H277.898L277.383 16.3453H276.474L278.429 11.0698H279.386L281.337 16.3453H280.422ZM279.686 14.1457L279.186 12.7084C279.165 12.6464 279.139 12.5586 279.102 12.4461C279.066 12.331 279.029 12.2148 278.997 12.0975C278.96 11.9777 278.929 11.8773 278.908 11.7958C278.882 11.8941 278.85 12.004 278.813 12.1264C278.782 12.2458 278.75 12.3588 278.713 12.464C278.682 12.5696 278.661 12.6511 278.645 12.7084L278.14 14.1457H279.686ZM285.064 14.9148C285.064 15.2266 284.99 15.4947 284.833 15.7202C284.685 15.9452 284.465 16.1177 284.181 16.2375C283.897 16.3574 283.56 16.4174 283.166 16.4174C282.977 16.4174 282.793 16.4063 282.619 16.3848C282.441 16.3632 282.278 16.3322 282.12 16.2912C281.967 16.248 281.831 16.1965 281.699 16.1371V15.3249C281.915 15.418 282.151 15.5031 282.414 15.5799C282.682 15.654 282.951 15.6913 283.224 15.6913C283.445 15.6913 283.629 15.6624 283.776 15.6051C283.923 15.5452 284.034 15.4611 284.107 15.3533C284.176 15.2434 284.212 15.1152 284.212 14.969C284.212 14.8134 284.17 14.6814 284.086 14.5737C284.002 14.4659 283.876 14.3676 283.708 14.2787C283.539 14.1878 283.329 14.0911 283.077 13.988C282.903 13.9181 282.735 13.8393 282.577 13.7504C282.425 13.6621 282.283 13.558 282.162 13.4381C282.041 13.3182 281.941 13.1769 281.873 13.0139C281.799 12.8488 281.768 12.6543 281.768 12.4319C281.768 12.1349 281.836 11.8804 281.978 11.6696C282.12 11.4588 282.325 11.2974 282.583 11.1849C282.845 11.0719 283.145 11.0156 283.497 11.0156C283.771 11.0156 284.028 11.0445 284.27 11.1018C284.517 11.1597 284.754 11.2412 284.99 11.3463L284.717 12.0402C284.501 11.9514 284.291 11.8804 284.086 11.8278C283.886 11.7753 283.681 11.749 283.471 11.749C283.287 11.749 283.135 11.7763 283.008 11.8315C282.877 11.8867 282.782 11.9645 282.714 12.0649C282.651 12.1632 282.619 12.281 282.619 12.4172C282.619 12.5707 282.656 12.7 282.73 12.8057C282.803 12.9087 282.924 13.0034 283.082 13.0896C283.24 13.1758 283.45 13.2715 283.697 13.3771C283.992 13.4965 284.233 13.6226 284.438 13.7541C284.638 13.886 284.796 14.0443 284.901 14.2288C285.011 14.4107 285.064 14.6394 285.064 14.9148ZM289.054 16.3453H286.079V11.0913H289.054V11.8174H286.941V13.2441H288.923V13.9664H286.941V15.6156H289.054V16.3453ZM292.64 17.4772H289.485V17.0067H292.64V17.4772ZM293.318 11.0913H294.879C295.557 11.0913 296.067 11.1896 296.414 11.3857C296.761 11.5823 296.929 11.9214 296.929 12.403C296.929 12.6043 296.898 12.7862 296.824 12.9492C296.756 13.1095 296.651 13.2426 296.519 13.3482C296.383 13.4513 296.22 13.5207 296.025 13.5564V13.5927C296.225 13.6284 296.409 13.692 296.567 13.783C296.724 13.8739 296.85 14.0048 296.945 14.1746C297.034 14.345 297.082 14.5653 297.082 14.836C297.082 15.1572 297.008 15.43 296.85 15.6556C296.703 15.8806 296.483 16.052 296.204 16.1692C295.92 16.2864 295.589 16.3453 295.205 16.3453H293.318V11.0913ZM294.18 13.2583H295.005C295.394 13.2583 295.668 13.1947 295.82 13.068C295.967 12.9408 296.046 12.7552 296.046 12.5108C296.046 12.2616 295.957 12.0818 295.773 11.9719C295.599 11.8615 295.315 11.8063 294.926 11.8063H294.18V13.2583ZM294.18 13.9554V15.623H295.089C295.489 15.623 295.773 15.5452 295.936 15.3896C296.099 15.2334 296.183 15.0226 296.183 14.7571C296.183 14.5942 296.146 14.4527 296.067 14.3329C295.999 14.213 295.878 14.121 295.715 14.0564C295.547 13.9891 295.326 13.9554 295.047 13.9554H294.18ZM300.436 16.3453L298.922 11.9572H298.89C298.896 12.0555 298.906 12.1895 298.917 12.3599C298.927 12.5302 298.932 12.7121 298.943 12.9061C298.948 13.1001 298.953 13.2857 298.953 13.4634V16.3453H298.17V11.0913H299.379L300.835 15.2849H300.856L302.36 11.0913H303.569V16.3453H302.749V13.4202C302.749 13.2594 302.749 13.0859 302.754 12.8987C302.76 12.7121 302.77 12.5349 302.775 12.3672C302.786 12.1995 302.791 12.0649 302.796 11.9645H302.77L301.198 16.3453H300.436ZM307.191 11.749C306.939 11.749 306.713 11.7942 306.518 11.8857C306.319 11.9766 306.156 12.1081 306.019 12.281C305.882 12.4508 305.777 12.658 305.704 12.9024C305.63 13.1442 305.598 13.4176 305.598 13.722C305.598 14.1294 305.656 14.4801 305.767 14.775C305.882 15.0673 306.061 15.2923 306.292 15.4505C306.529 15.6062 306.823 15.684 307.186 15.684C307.407 15.684 307.622 15.6624 307.833 15.6193C308.048 15.5762 308.264 15.5173 308.49 15.4432V16.1766C308.274 16.2602 308.059 16.3211 307.843 16.3595C307.622 16.3979 307.375 16.4174 307.086 16.4174C306.55 16.4174 306.103 16.3059 305.751 16.083C305.399 15.8601 305.136 15.5462 304.962 15.1414C304.789 14.7366 304.699 14.2619 304.699 13.7183C304.699 13.3204 304.757 12.9566 304.868 12.6259C304.978 12.2952 305.136 12.0103 305.346 11.7705C305.562 11.5287 305.819 11.3426 306.129 11.2133C306.44 11.0819 306.797 11.0156 307.197 11.0156C307.459 11.0156 307.717 11.0456 307.969 11.1055C308.227 11.1634 308.464 11.2459 308.684 11.3537L308.379 12.0649C308.201 11.9787 308.011 11.9046 307.812 11.8426C307.612 11.78 307.407 11.749 307.191 11.749Z" fill="white" fill-opacity="0.9"/>
<path d="M316.405 16.3453H315.559V12.9634C315.559 12.8509 315.559 12.7384 315.564 12.6259C315.564 12.5134 315.569 12.403 315.569 12.2952C315.574 12.1874 315.58 12.0844 315.585 11.9861C315.538 12.0413 315.475 12.1012 315.401 12.1659C315.327 12.2305 315.254 12.2973 315.17 12.3672L314.565 12.8488L314.145 12.3131L315.701 11.0913H316.405V16.3453ZM321.694 13.7146C321.694 14.1389 321.657 14.5185 321.594 14.8539C321.526 15.1872 321.426 15.4695 321.284 15.7018C321.142 15.9342 320.958 16.1119 320.732 16.2339C320.5 16.3564 320.227 16.4173 319.901 16.4173C319.496 16.4173 319.165 16.3106 318.902 16.0972C318.639 15.8816 318.44 15.5725 318.313 15.1703C318.187 14.765 318.124 14.2803 318.124 13.7146C318.124 13.1495 318.182 12.6653 318.298 12.2626C318.413 11.8578 318.603 11.5476 318.865 11.3321C319.128 11.1166 319.47 11.0088 319.901 11.0088C320.311 11.0088 320.648 11.1166 320.911 11.3321C321.173 11.545 321.373 11.8542 321.499 12.2595C321.631 12.6616 321.694 13.1468 321.694 13.7146ZM318.976 13.7146C318.976 14.1578 319.002 14.5279 319.06 14.8249C319.123 15.1225 319.223 15.3449 319.354 15.4936C319.491 15.6398 319.675 15.7129 319.901 15.7129C320.132 15.7129 320.311 15.6398 320.448 15.4936C320.585 15.3475 320.684 15.1256 320.742 14.8286C320.805 14.5316 320.837 14.1604 320.837 13.7146C320.837 13.2741 320.805 12.905 320.748 12.608C320.69 12.311 320.59 12.0881 320.453 11.9393C320.316 11.7884 320.132 11.7127 319.901 11.7127C319.675 11.7127 319.491 11.7884 319.354 11.9393C319.218 12.0881 319.123 12.311 319.06 12.608C319.002 12.905 318.976 13.2741 318.976 13.7146ZM324.832 16.3453H323.981V12.9634C323.981 12.8509 323.981 12.7384 323.986 12.6259C323.986 12.5134 323.991 12.403 323.991 12.2952C323.996 12.1874 324.002 12.0844 324.012 11.9861C323.96 12.0413 323.897 12.1012 323.823 12.1659C323.755 12.2305 323.676 12.2973 323.592 12.3672L322.992 12.8488L322.566 12.3131L324.128 11.0913H324.832V16.3453Z" fill="white" fill-opacity="0.9"/>
<path d="M334.695 10.168C334.8 10.168 334.9 10.2095 334.974 10.2836C335.047 10.3572 335.089 10.4576 335.089 10.5623V16.8709C335.089 16.9755 335.047 17.0759 334.974 17.1495C334.9 17.2236 334.8 17.2651 334.695 17.2651C334.59 17.2651 334.49 17.2236 334.416 17.1495C334.343 17.0759 334.301 16.9755 334.301 16.8709V10.5623C334.301 10.4576 334.343 10.3572 334.416 10.2836C334.49 10.2095 334.59 10.168 334.695 10.168ZM337.849 10.168C337.955 10.168 338.054 10.2095 338.128 10.2836C338.202 10.3572 338.244 10.4576 338.244 10.5623V16.8709C338.244 16.9755 338.202 17.0759 338.128 17.1495C338.054 17.2236 337.955 17.2651 337.849 17.2651C337.744 17.2651 337.644 17.2236 337.571 17.1495C337.497 17.0759 337.455 16.9755 337.455 16.8709V10.5623C337.455 10.4576 337.497 10.3572 337.571 10.2836C337.644 10.2095 337.744 10.168 337.849 10.168Z" fill="white" fill-opacity="0.9"/>
<rect x="0.541016" y="1.33594" width="353.857" height="24.76" rx="7.5" stroke="#53586D"/>
</svg>
