<svg width="355" height="68" viewBox="0 0 355 68" fill="none" xmlns="http://www.w3.org/2000/svg">
<g clip-path="url(#clip0_466_23851)">
<rect x="0.0410156" y="0.928711" width="354.857" height="66.7657" rx="12" fill="#262936"/>
<path d="M353.058 0.928711H1.88101C0.864811 0.928711 0.0410156 1.75251 0.0410156 2.76871V65.8544C0.0410156 66.8706 0.864811 67.6944 1.88101 67.6944H353.058C354.074 67.6944 354.898 66.8706 354.898 65.8544V2.76871C354.898 1.75251 354.074 0.928711 353.058 0.928711Z" fill="#262936"/>
<path d="M24.1475 16.6647V19.5787C24.1475 19.8926 24.0807 20.1738 23.9472 20.4225C23.8158 20.6712 23.6165 20.8683 23.3495 21.0139C23.0824 21.1574 22.747 21.2295 22.3422 21.2295C21.765 21.2295 21.3255 21.0786 21.0237 20.7768C20.724 20.473 20.5742 20.0692 20.5742 19.5661V16.6647H21.3134V19.5015C21.3134 19.8774 21.4017 20.1544 21.5784 20.3331C21.755 20.5119 22.0189 20.6013 22.3701 20.6013C22.6124 20.6013 22.8096 20.5592 22.9615 20.4751C23.1155 20.3889 23.2286 20.2632 23.3 20.0992C23.3742 19.9325 23.411 19.7328 23.411 19.4983V16.6647H24.1475ZM27.899 19.942C27.899 20.2091 27.8333 20.4388 27.7018 20.6317C27.5725 20.8252 27.3859 20.9729 27.1414 21.0754C26.8991 21.1785 26.6094 21.2295 26.273 21.2295C26.1084 21.2295 25.9512 21.2206 25.8014 21.2016C25.6516 21.1832 25.5096 21.1569 25.3761 21.1217C25.2447 21.0849 25.1248 21.0407 25.016 20.9892V20.2932C25.1989 20.3731 25.4029 20.4462 25.629 20.5119C25.855 20.5755 26.0848 20.6076 26.3187 20.6076C26.5101 20.6076 26.6678 20.5829 26.7934 20.5335C26.9207 20.4819 27.0153 20.4104 27.0768 20.3179C27.1383 20.2233 27.1693 20.1134 27.1693 19.9883C27.1693 19.8547 27.133 19.7417 27.0616 19.6492C26.9895 19.5572 26.8807 19.4725 26.7346 19.3968C26.591 19.3185 26.4102 19.2355 26.1925 19.1471C26.0448 19.0877 25.9029 19.0199 25.7678 18.9442C25.6342 18.868 25.5149 18.7786 25.4103 18.6761C25.3057 18.5731 25.2221 18.4521 25.1606 18.3123C25.1011 18.1709 25.0712 18.0042 25.0712 17.8134C25.0712 17.559 25.1322 17.3413 25.2531 17.1605C25.3761 16.9796 25.5491 16.8414 25.7704 16.7446C25.9944 16.6479 26.2551 16.6 26.5532 16.6C26.7892 16.6 27.0111 16.6242 27.2182 16.6736C27.428 16.7231 27.633 16.793 27.8343 16.8834L27.6004 17.4775C27.4153 17.4018 27.2361 17.3413 27.0616 17.2961C26.8886 17.2509 26.712 17.2283 26.5316 17.2283C26.3755 17.2283 26.243 17.2519 26.1342 17.2992C26.0253 17.346 25.9423 17.4128 25.8845 17.499C25.8293 17.5837 25.8014 17.6841 25.8014 17.8013C25.8014 17.9327 25.8335 18.0437 25.8971 18.1341C25.9628 18.2219 26.0632 18.3034 26.1989 18.377C26.3366 18.4511 26.5132 18.5331 26.7288 18.6235C26.9769 18.726 27.1877 18.8343 27.3602 18.9469C27.5347 19.0599 27.6682 19.1955 27.7607 19.3537C27.8527 19.5099 27.899 19.706 27.899 19.942ZM32.4244 18.8732C32.4244 19.3806 32.3297 19.8043 32.141 20.1455C31.9517 20.484 31.6778 20.74 31.3183 20.9125C30.9592 21.0828 30.5255 21.168 30.0187 21.168H28.768V16.6647H30.1538C30.6201 16.6647 31.0228 16.7488 31.3613 16.9171C31.7004 17.0832 31.9622 17.3308 32.1468 17.6594C32.3318 17.9858 32.4244 18.3906 32.4244 18.8732ZM31.6542 18.8948C31.6542 18.5252 31.5958 18.2213 31.4786 17.9827C31.3635 17.7445 31.1931 17.5679 30.9671 17.4533C30.7431 17.3361 30.4671 17.2777 30.1385 17.2777H29.5072V20.5487H30.0308C30.5749 20.5487 30.9818 20.4104 31.2504 20.1329C31.5196 19.8558 31.6542 19.4431 31.6542 18.8948ZM35.2148 16.6647L33.5362 21.168H32.8586L34.5372 16.6647H35.2148ZM39.2933 21.168H38.4433L37.0417 19.1224L36.598 19.4831V21.168H35.8589V16.6647H36.598V18.8175C36.6884 18.7066 36.7799 18.5957 36.8724 18.4847C36.9644 18.3743 37.0569 18.2634 37.1495 18.1525L38.4185 16.6647H39.2534L37.5716 18.6362L39.2933 21.168ZM42.731 21.168H39.4937V20.6596L41.7852 17.293H39.5646V16.6647H42.6695V17.1699L40.3779 20.5397H42.731V21.168ZM45.0846 21.168H44.3423V17.293H43.0238V16.6647H46.3999V17.293H45.0846V21.168ZM49.1904 22.1385H46.4862V21.7347H49.1904V22.1385ZM51.3317 21.168H50.5888V17.293H49.2709V16.6647H52.6465V17.293H51.3317V21.168ZM57.3348 18.91C57.3348 19.257 57.2907 19.5735 57.2029 19.859C57.1161 20.1423 56.9857 20.3868 56.8112 20.5918C56.6367 20.7952 56.418 20.9525 56.1551 21.0634C55.8923 21.1743 55.5842 21.2295 55.2314 21.2295C54.8718 21.2295 54.5596 21.1743 54.2946 21.0634C54.0318 20.9525 53.813 20.7942 53.6385 20.5886C53.4661 20.3836 53.3368 20.1381 53.2505 19.8526C53.1643 19.5672 53.1212 19.2512 53.1212 18.9037C53.1212 18.44 53.1969 18.0353 53.3488 17.6904C53.5029 17.3434 53.7363 17.0742 54.0486 16.8834C54.3624 16.6899 54.7588 16.5938 55.2372 16.5938C55.7056 16.5938 56.0946 16.6889 56.4048 16.8803C56.715 17.0711 56.9468 17.3403 57.1009 17.6872C57.257 18.0321 57.3348 18.4401 57.3348 18.91ZM53.8972 18.91C53.8972 19.257 53.9445 19.5582 54.0391 19.8127C54.1337 20.065 54.2783 20.2601 54.4733 20.3978C54.6705 20.5334 54.9234 20.6013 55.2314 20.6013C55.5411 20.6013 55.7939 20.5334 55.989 20.3978C56.184 20.2601 56.3275 20.065 56.4201 19.8127C56.5126 19.5582 56.5589 19.257 56.5589 18.91C56.5589 18.3822 56.4532 17.9695 56.2413 17.672C56.0321 17.3718 55.6972 17.222 55.2372 17.222C54.9291 17.222 54.6758 17.2898 54.4765 17.4254C54.2794 17.561 54.1337 17.755 54.0391 18.0074C53.9445 18.2581 53.8972 18.5589 53.8972 18.91ZM60.2462 21.168L58.9493 17.407H58.9214C58.9277 17.4911 58.9346 17.6063 58.943 17.7519C58.9514 17.8975 58.9582 18.0537 58.9645 18.2203C58.9708 18.3864 58.974 18.5457 58.974 18.6977V21.168H58.3021V16.6647H59.3404L60.5879 20.259H60.6063L61.897 16.6647H62.9321V21.168H62.2266V18.6603C62.2266 18.5231 62.2287 18.3743 62.2329 18.214C62.2392 18.0536 62.245 17.9017 62.2513 17.7582C62.2597 17.6141 62.2655 17.499 62.2697 17.4128H62.245L60.8992 21.168H60.2462Z" fill="white" fill-opacity="0.9"/>
<path d="M71.0156 21.3C70.2838 21.3 69.5815 21.0093 69.0642 20.4914C68.5463 19.9741 68.2556 19.2718 68.2556 18.54C68.2556 17.8082 68.5463 17.1059 69.0642 16.5886C69.5815 16.0708 70.2838 15.78 71.0156 15.78C71.7474 15.78 72.4497 16.0708 72.967 16.5886C73.4848 17.1059 73.7755 17.8082 73.7755 18.54C73.7755 19.2718 73.4848 19.9741 72.967 20.4914C72.4497 21.0093 71.7474 21.3 71.0156 21.3ZM71.0156 21.6943C71.852 21.6943 72.6542 21.362 73.2462 20.7706C73.8376 20.1786 74.1698 19.3764 74.1698 18.54C74.1698 17.7036 73.8376 16.9014 73.2462 16.3094C72.6542 15.718 71.852 15.3857 71.0156 15.3857C70.1792 15.3857 69.377 15.718 68.785 16.3094C68.1936 16.9014 67.8613 17.7036 67.8613 18.54C67.8613 19.3764 68.1936 20.1786 68.785 20.7706C69.377 21.362 70.1792 21.6943 71.0156 21.6943Z" fill="white"/>
<path d="M71.4102 17.7229L70.5433 17.8422L70.5123 18.0005L70.6826 18.0351C70.7935 18.0641 70.8156 18.1082 70.7914 18.2302L70.5123 19.6738C70.4387 20.0471 70.5517 20.2226 70.8177 20.2226C71.0243 20.2226 71.264 20.1175 71.3723 19.974L71.406 19.8005C71.3303 19.8741 71.2193 19.903 71.1462 19.903C71.0422 19.903 71.0043 19.8226 71.0311 19.6811L71.4102 17.7229ZM71.4364 16.8539C71.4364 16.9643 71.3965 17.0699 71.3255 17.1483C71.2545 17.2261 71.1584 17.2697 71.0579 17.2697C70.9575 17.2697 70.8613 17.2261 70.7904 17.1483C70.7194 17.0699 70.6794 16.9643 70.6794 16.8539C70.6794 16.7435 70.7194 16.6373 70.7904 16.5595C70.8613 16.4811 70.9575 16.4375 71.0579 16.4375C71.1584 16.4375 71.2545 16.4811 71.3255 16.5595C71.3965 16.6373 71.4364 16.7435 71.4364 16.8539Z" fill="white"/>
<path d="M24.6811 36.1484H23.8678V37.4669H22.9152V36.1484H20.1836V35.4176L22.9273 31.4459H23.8678V35.3477H24.6811V36.1484ZM22.9152 35.3477V33.8568C22.9152 33.7333 22.9162 33.6087 22.9194 33.483C22.9247 33.3542 22.9299 33.2312 22.9357 33.1135C22.941 32.9957 22.9467 32.8874 22.952 32.7891C22.9578 32.6876 22.9614 32.604 22.9646 32.5383H22.9315C22.8794 32.6477 22.8221 32.7602 22.7591 32.8753C22.696 32.9873 22.6292 33.0972 22.5577 33.2039L21.0794 35.3477H22.9152ZM29.4945 36.1484H28.6817V37.4669H27.7286V36.1484H24.9975V35.4176L27.7412 31.4459H28.6817V35.3477H29.4945V36.1484ZM27.7286 35.3477V33.8568C27.7286 33.7333 27.7302 33.6087 27.7328 33.483C27.7381 33.3542 27.7439 33.2312 27.7491 33.1135C27.7549 32.9957 27.7602 32.8874 27.7654 32.7891C27.7712 32.6876 27.7754 32.604 27.778 32.5383H27.7449C27.6929 32.6477 27.6356 32.7602 27.5725 32.8753C27.5094 32.9873 27.4426 33.0972 27.3711 33.2039L25.8928 35.3477H27.7286ZM34.0824 34.0208C34.0824 34.3767 34.0566 34.7258 34.0046 35.0686C33.9552 35.4108 33.8674 35.731 33.7417 36.0296C33.6182 36.3277 33.4473 36.5921 33.2281 36.8218C33.012 37.0495 32.7381 37.2272 32.4064 37.356C32.0752 37.4848 31.6757 37.5489 31.2073 37.5489C31.0895 37.5489 30.9528 37.5421 30.7967 37.5284C30.6432 37.5174 30.5175 37.5011 30.4187 37.479V36.6741C30.5228 36.7041 30.6395 36.7288 30.7678 36.7482C30.8992 36.7645 31.0296 36.7729 31.1584 36.7729C31.6646 36.7729 32.0589 36.6783 32.3412 36.4896C32.6256 36.3003 32.827 36.0401 32.9447 35.7089C33.0651 35.3777 33.1335 35.0013 33.1503 34.5797H33.1009C33.0215 34.7111 32.9216 34.8315 32.8007 34.9408C32.6803 35.0476 32.531 35.1338 32.3533 35.2C32.1751 35.2626 31.959 35.2941 31.7046 35.2941C31.3592 35.2941 31.058 35.2216 30.8009 35.0765C30.5459 34.9314 30.3477 34.7206 30.2053 34.444C30.0654 34.1649 29.996 33.8295 29.996 33.4378C29.996 33.0136 30.0764 32.6477 30.2384 32.3412C30.3998 32.0347 30.6285 31.7992 30.9239 31.6346C31.2199 31.468 31.5674 31.3844 31.9674 31.3844C32.2681 31.3844 32.5463 31.4391 32.8007 31.5484C33.0583 31.6551 33.2828 31.8197 33.4747 32.0415C33.666 32.2602 33.8153 32.5357 33.922 32.8669C34.0288 33.1955 34.0824 33.5803 34.0824 34.0208ZM31.9795 32.1808C31.6757 32.1808 31.4281 32.2839 31.2362 32.4889C31.0443 32.6918 30.9486 33.0036 30.9486 33.4252C30.9486 33.768 31.0306 34.0387 31.1952 34.2385C31.3592 34.4388 31.611 34.5387 31.9506 34.5387C32.1861 34.5387 32.3891 34.4908 32.5589 34.3946C32.7313 34.2963 32.8638 34.1717 32.9568 34.0208C33.053 33.8705 33.1009 33.717 33.1009 33.5608C33.1009 33.3994 33.0778 33.2381 33.031 33.0761C32.9873 32.9147 32.9185 32.767 32.8254 32.633C32.7324 32.4984 32.6146 32.3906 32.4726 32.3086C32.3328 32.2234 32.1683 32.1808 31.9795 32.1808ZM36.1237 36.4896L36.181 36.5837C36.1316 36.7808 36.0691 36.9932 35.9923 37.2203C35.9155 37.448 35.832 37.6751 35.7415 37.9022C35.6511 38.1324 35.5596 38.3485 35.4666 38.5509H34.76C34.8173 38.3296 34.8725 38.0967 34.9246 37.8528C34.9792 37.612 35.0281 37.3738 35.0723 37.1383C35.1186 36.9002 35.1559 36.6836 35.1832 36.4896H36.1237ZM37.1378 34.9082C37.1378 34.555 37.1625 34.2069 37.212 33.8647C37.264 33.5225 37.3518 33.2023 37.4748 32.9037C37.5984 32.6056 37.7676 32.3428 37.9842 32.1151C38.2035 31.888 38.4784 31.7098 38.8096 31.5815C39.1408 31.4501 39.5393 31.3844 40.0051 31.3844C40.1255 31.3844 40.2611 31.3896 40.4114 31.4007C40.5623 31.4117 40.6864 31.4296 40.7852 31.4538V32.255C40.6785 32.225 40.5608 32.2013 40.432 32.185C40.3063 32.1688 40.1801 32.1603 40.054 32.1603C39.5503 32.1603 39.1576 32.2565 38.8753 32.4479C38.5935 32.6366 38.3922 32.8969 38.2718 33.2286C38.1514 33.5566 38.0815 33.9336 38.062 34.3578H38.1115C38.1935 34.2211 38.2965 34.0992 38.4195 33.9924C38.5425 33.8857 38.6934 33.8006 38.8711 33.7375C39.0493 33.6718 39.2559 33.6392 39.4915 33.6392C39.8421 33.6392 40.147 33.7128 40.4072 33.861C40.6675 34.0061 40.8672 34.2169 41.0071 34.4934C41.1495 34.77 41.2205 35.1054 41.2205 35.4997C41.2205 35.9239 41.1396 36.2893 40.9782 36.5963C40.8194 36.9028 40.5923 37.1383 40.2963 37.3029C40.0035 37.4669 39.6544 37.5489 39.2491 37.5489C38.9505 37.5489 38.6729 37.4942 38.4153 37.3849C38.1609 37.275 37.9374 37.111 37.7461 36.8918C37.5542 36.6731 37.4049 36.3992 37.2982 36.0706C37.1915 35.7394 37.1378 35.3519 37.1378 34.9082ZM39.2328 36.7524C39.5451 36.7524 39.7953 36.651 39.9846 36.4481C40.1759 36.243 40.2716 35.9297 40.2716 35.5076C40.2716 35.1653 40.187 34.8946 40.0172 34.6948C39.85 34.4945 39.5982 34.3946 39.2617 34.3946C39.0314 34.3946 38.8301 34.444 38.6577 34.5429C38.4852 34.6412 38.3512 34.7658 38.2555 34.9161C38.1619 35.067 38.1157 35.2205 38.1157 35.3761C38.1157 35.5354 38.1388 35.6952 38.1856 35.8571C38.2318 36.0185 38.3018 36.1678 38.3948 36.3045C38.4879 36.4386 38.6046 36.5469 38.7439 36.6289C38.8837 36.7109 39.0467 36.7524 39.2328 36.7524ZM45.7795 32.8343C45.7795 33.105 45.7248 33.3406 45.6155 33.5403C45.5056 33.7401 45.3553 33.9047 45.1634 34.0334C44.9746 34.1591 44.7554 34.2495 44.5062 34.3042V34.3331C44.9857 34.3936 45.3468 34.5439 45.5908 34.7847C45.8368 35.026 45.9603 35.3451 45.9603 35.742C45.9603 36.0895 45.8768 36.4002 45.7096 36.6741C45.5424 36.9454 45.2864 37.1588 44.9415 37.3149C44.5967 37.4711 44.1529 37.5489 43.6109 37.5489C43.285 37.5489 42.9827 37.5231 42.703 37.4711C42.4265 37.419 42.1637 37.3355 41.9145 37.2203V36.3618C42.1694 36.488 42.4402 36.5853 42.7277 36.6536C43.0153 36.7219 43.2876 36.7561 43.5452 36.7561C44.0462 36.7561 44.4037 36.6631 44.6172 36.477C44.8306 36.2882 44.9373 36.028 44.9373 35.6968C44.9373 35.4834 44.8816 35.3078 44.7691 35.1711C44.6597 35.0339 44.4883 34.9314 44.256 34.863C44.0257 34.7947 43.7287 34.7605 43.3644 34.7605H42.8345V33.984H43.3686C43.7166 33.984 43.9958 33.943 44.2066 33.861C44.4174 33.7758 44.5693 33.6597 44.6624 33.5119C44.758 33.3637 44.8059 33.1913 44.8059 32.9941C44.8059 32.737 44.7228 32.5367 44.5556 32.3948C44.3885 32.2497 44.1409 32.1772 43.8123 32.1772C43.6094 32.1772 43.4248 32.2003 43.2577 32.2466C43.0936 32.2933 42.9417 32.3522 42.8019 32.4232C42.662 32.4947 42.5295 32.5714 42.4034 32.6535L41.9392 31.9837C42.1668 31.8139 42.4375 31.6704 42.7525 31.5526C43.0674 31.4349 43.4343 31.376 43.8533 31.376C44.4694 31.376 44.9441 31.509 45.2785 31.7745C45.6123 32.0373 45.7795 32.3906 45.7795 32.8343Z" fill="white" fill-opacity="0.9"/>
<path d="M57.3447 35.3637L54.979 33.2607L52.6133 35.3637" stroke="#18C35D" stroke-width="1.5" stroke-linecap="round" stroke-linejoin="round"/>
<path d="M63.8303 34.4557C63.8303 34.9436 63.7935 35.3789 63.7193 35.7621C63.6452 36.1453 63.529 36.4697 63.3703 36.7352C63.2115 37.0012 63.0059 37.2036 62.7541 37.3434C62.5023 37.4801 62.1995 37.5485 61.8462 37.5485C61.4004 37.5485 61.0303 37.4265 60.7375 37.1831C60.4473 36.9392 60.2296 36.5875 60.0845 36.1275C59.9421 35.6648 59.8711 35.1076 59.8711 34.4557C59.8711 33.8154 59.9352 33.265 60.064 32.805C60.1955 32.3424 60.4063 31.9875 60.6965 31.741C60.9867 31.4918 61.3699 31.3672 61.8462 31.3672C62.2983 31.3672 62.6705 31.4907 62.9639 31.7373C63.2567 31.9807 63.4743 32.334 63.6168 32.7966C63.7593 33.2566 63.8303 33.8096 63.8303 34.4557ZM60.5566 34.4557C60.5566 35.0146 60.5992 35.4798 60.6844 35.8525C60.769 36.2247 60.9057 36.5039 61.095 36.69C61.2863 36.8735 61.5371 36.9654 61.8462 36.9654C62.1559 36.9654 62.405 36.8735 62.5938 36.69C62.7857 36.5065 62.9239 36.2289 63.0086 35.8567C63.0964 35.484 63.14 35.0172 63.14 34.4557C63.14 33.9058 63.0979 33.4458 63.0128 33.0757C62.9281 32.7035 62.7909 32.4244 62.6022 32.2383C62.4135 32.049 62.1611 31.9549 61.8462 31.9549C61.5318 31.9549 61.2795 32.049 61.0908 32.2383C60.902 32.4244 60.7648 32.7035 60.6802 33.0757C60.5982 33.4458 60.5566 33.9058 60.5566 34.4557ZM65.7607 36.4892L65.8138 36.5833C65.7649 36.7836 65.7018 36.997 65.625 37.2241C65.5509 37.4512 65.4689 37.6788 65.3785 37.9059C65.2912 38.1357 65.2019 38.3507 65.1114 38.5505H64.6025C64.6598 38.3318 64.7161 38.1005 64.7708 37.8565C64.8254 37.6158 64.8749 37.3776 64.9185 37.1421C64.9653 36.9039 65.0021 36.6863 65.0294 36.4892H65.7607ZM68.8366 31.3756C69.1847 31.3756 69.4927 31.4303 69.7609 31.5401C70.0295 31.6495 70.2387 31.8109 70.3891 32.0243C70.5426 32.2351 70.6193 32.4953 70.6193 32.805C70.6193 33.0484 70.5657 33.2624 70.459 33.4458C70.3549 33.6261 70.214 33.7849 70.0363 33.9221C69.8581 34.0562 69.661 34.1766 69.4449 34.2833C69.702 34.401 69.9333 34.5341 70.1388 34.6818C70.347 34.8295 70.5111 35.0035 70.6314 35.2033C70.7524 35.4036 70.8123 35.6401 70.8123 35.914C70.8123 36.251 70.7303 36.5423 70.5657 36.7888C70.4043 37.0322 70.1772 37.2199 69.8844 37.3513C69.591 37.4828 69.2477 37.5485 68.8535 37.5485C68.4287 37.5485 68.0675 37.4854 67.7689 37.3597C67.4735 37.2309 67.2474 37.0475 67.0913 36.8093C66.9378 36.5685 66.8615 36.2794 66.8615 35.9429C66.8615 35.6664 66.9204 35.4267 67.0382 35.2238C67.1554 35.0188 67.3115 34.8421 67.5061 34.6944C67.7006 34.5461 67.913 34.4215 68.1427 34.3206C67.9429 34.2107 67.7595 34.0861 67.5923 33.9468C67.4283 33.807 67.2968 33.644 67.198 33.4579C67.1023 33.2692 67.0545 33.05 67.0545 32.8008C67.0545 32.4969 67.1312 32.2393 67.2842 32.0285C67.4403 31.8151 67.6527 31.6537 67.9208 31.5438C68.1921 31.4318 68.4976 31.3756 68.8366 31.3756ZM67.5308 35.9466C67.5308 36.2536 67.6391 36.5065 67.8551 36.7068C68.0717 36.9039 68.3987 37.0023 68.8366 37.0023C69.253 37.0023 69.5748 36.9039 69.8019 36.7068C70.0295 36.5065 70.143 36.2452 70.143 35.9219C70.143 35.7222 70.091 35.5471 69.9869 35.3962C69.8828 35.2432 69.7351 35.106 69.5432 34.9856C69.3518 34.8652 69.1258 34.7559 68.8656 34.6571L68.7178 34.604C68.466 34.7081 68.251 34.8242 68.0728 34.953C67.8977 35.0787 67.7637 35.2227 67.6706 35.3841C67.5776 35.5455 67.5308 35.7332 67.5308 35.9466ZM68.8288 31.9344C68.5054 31.9344 68.2415 32.0122 68.036 32.1684C67.8304 32.3219 67.7279 32.5432 67.7279 32.8339C67.7279 33.0416 67.7773 33.2182 67.8756 33.3633C67.9771 33.5058 68.1138 33.6293 68.2862 33.7329C68.4592 33.8343 68.6521 33.929 68.8656 34.0167C69.0737 33.929 69.2583 33.8333 69.4202 33.7292C69.5816 33.6225 69.7088 33.4963 69.8019 33.3512C69.8949 33.2061 69.9417 33.0321 69.9417 32.8297C69.9417 32.5395 69.8392 32.3177 69.6336 32.1642C69.4312 32.0106 69.1626 31.9344 68.8288 31.9344ZM75.6341 34.4557C75.6341 34.9436 75.5973 35.3789 75.5232 35.7621C75.4496 36.1453 75.3329 36.4697 75.1741 36.7352C75.0154 37.0012 74.8098 37.2036 74.558 37.3434C74.3062 37.4801 74.0039 37.5485 73.6506 37.5485C73.2043 37.5485 72.8347 37.4265 72.5414 37.1831C72.2512 36.9392 72.0335 36.5875 71.8884 36.1275C71.746 35.6648 71.675 35.1076 71.675 34.4557C71.675 33.8154 71.7391 33.265 71.8679 32.805C71.9993 32.3424 72.2102 31.9875 72.5004 31.741C72.7905 31.4918 73.1738 31.3672 73.6506 31.3672C74.1022 31.3672 74.4744 31.4907 74.7678 31.7373C75.0606 31.9807 75.2782 32.334 75.4207 32.7966C75.5632 33.2566 75.6341 33.8096 75.6341 34.4557ZM72.3605 34.4557C72.3605 35.0146 72.4031 35.4798 72.4883 35.8525C72.5729 36.2247 72.7101 36.5039 72.8988 36.69C73.0907 36.8735 73.341 36.9654 73.6506 36.9654C73.9597 36.9654 74.2089 36.8735 74.3982 36.69C74.5895 36.5065 74.7278 36.2289 74.813 35.8567C74.9002 35.484 74.9444 35.0172 74.9444 34.4557C74.9444 33.9058 74.9018 33.4458 74.8167 33.0757C74.732 32.7035 74.5948 32.4244 74.4061 32.2383C74.2173 32.049 73.9655 31.9549 73.6506 31.9549C73.3357 31.9549 73.0839 32.049 72.8946 32.2383C72.7059 32.4244 72.5687 32.7035 72.4841 33.0757C72.402 33.4458 72.3605 33.9058 72.3605 34.4557ZM77.7044 31.3756C78.115 31.3756 78.4257 31.5401 78.6365 31.8687C78.8499 32.1941 78.9567 32.6557 78.9567 33.2524C78.9567 33.8496 78.8541 34.3148 78.6486 34.6492C78.4436 34.9804 78.1287 35.146 77.7044 35.146C77.3101 35.146 77.0073 34.9804 76.7965 34.6492C76.5883 34.3148 76.4842 33.8496 76.4842 33.2524C76.4842 32.6557 76.5841 32.1941 76.7844 31.8687C76.9842 31.5401 77.2907 31.3756 77.7044 31.3756ZM77.7044 31.8645C77.4825 31.8645 77.3196 31.9807 77.2155 32.2136C77.1114 32.4433 77.0594 32.7898 77.0594 33.2524C77.0594 33.7155 77.1114 34.0646 77.2155 34.3001C77.3196 34.5351 77.4825 34.6529 77.7044 34.6529C77.9341 34.6529 78.1055 34.5351 78.2175 34.3001C78.33 34.0646 78.3857 33.7155 78.3857 33.2524C78.3857 32.7924 78.33 32.4465 78.2175 32.2136C78.1082 31.9807 77.9368 31.8645 77.7044 31.8645ZM81.5074 31.4618L78.1765 37.4665H77.5767L80.9076 31.4618H81.5074ZM81.3471 33.7823C81.755 33.7823 82.0657 33.9468 82.2797 34.2754C82.4931 34.6008 82.5999 35.0624 82.5999 35.6591C82.5999 36.2536 82.4974 36.7178 82.2918 37.0517C82.0862 37.3829 81.7719 37.5485 81.3471 37.5485C80.9502 37.5485 80.6479 37.3829 80.4397 37.0517C80.2315 36.7178 80.1274 36.2536 80.1274 35.6591C80.1274 35.0624 80.2257 34.6008 80.4229 34.2754C80.6232 33.9468 80.9312 33.7823 81.3471 33.7823ZM81.3471 34.2754C81.1252 34.2754 80.9623 34.39 80.8587 34.6203C80.7546 34.85 80.7026 35.1964 80.7026 35.6591C80.7026 36.1222 80.7546 36.4713 80.8587 36.7068C80.9623 36.9392 81.1252 37.0559 81.3471 37.0559C81.5774 37.0559 81.7482 36.9407 81.8607 36.7105C81.9727 36.4781 82.0289 36.1275 82.0289 35.6591C82.0289 35.1996 81.9727 34.8542 81.8607 34.6245C81.7508 34.3916 81.58 34.2754 81.3471 34.2754Z" fill="#18C35D"/>
<path d="M22.2348 52.711H21.7359V49.5199C21.7359 49.3984 21.7359 49.2949 21.7359 49.2087C21.738 49.1203 21.7396 49.0404 21.7417 48.9684C21.7459 48.8943 21.7512 48.8196 21.7575 48.7434C21.6938 48.8091 21.6339 48.8659 21.5787 48.9127C21.523 48.9579 21.4547 49.0147 21.3721 49.0825L20.858 49.4952L20.5898 49.1471L21.8095 48.2077H22.2348V52.711ZM26.8921 52.711H23.9413V52.283L25.1457 51.0597C25.3696 50.8342 25.5573 50.6328 25.7093 50.4562C25.8633 50.2795 25.9805 50.106 26.0604 49.9357C26.1409 49.7633 26.1808 49.574 26.1808 49.369C26.1808 49.114 26.1046 48.92 25.9527 48.7865C25.8028 48.6508 25.6046 48.583 25.3581 48.583C25.1425 48.583 24.9517 48.6204 24.7851 48.694C24.6189 48.7681 24.4486 48.8727 24.274 49.0083L23.9996 48.6635C24.119 48.5626 24.2483 48.4732 24.3881 48.3954C24.5296 48.3176 24.6804 48.2555 24.8408 48.2103C25.0032 48.1656 25.1757 48.143 25.3581 48.143C25.6357 48.143 25.8749 48.1909 26.0762 48.2876C26.277 48.3843 26.4321 48.5215 26.5409 48.7003C26.6519 48.879 26.7076 49.0914 26.7076 49.338C26.7076 49.5761 26.6603 49.798 26.5656 50.0035C26.471 50.2064 26.3391 50.4089 26.1682 50.6102C25.9979 50.8095 25.7986 51.0208 25.571 51.2447L24.5911 52.221V52.2425H26.8921V52.711ZM27.7022 52.3908C27.7022 52.2467 27.7375 52.1453 27.8069 52.0859C27.8768 52.0238 27.962 51.9934 28.0629 51.9934C28.1675 51.9934 28.2558 52.0238 28.3278 52.0859C28.3993 52.1453 28.4356 52.2467 28.4356 52.3908C28.4356 52.5322 28.3993 52.6358 28.3278 52.7015C28.2558 52.7656 28.1675 52.7972 28.0629 52.7972C27.962 52.7972 27.8768 52.7656 27.8069 52.7015C27.7375 52.6358 27.7022 52.5322 27.7022 52.3908ZM32.1845 50.453C32.1845 50.8184 32.1566 51.1448 32.1009 51.4324C32.0457 51.72 31.9584 51.9634 31.8391 52.1626C31.7203 52.3619 31.5662 52.5138 31.3775 52.6184C31.1883 52.7215 30.9612 52.7725 30.6967 52.7725C30.3618 52.7725 30.0848 52.681 29.865 52.4986C29.6469 52.3156 29.4839 52.0517 29.3751 51.7069C29.2683 51.3599 29.2147 50.9419 29.2147 50.453C29.2147 49.9725 29.2631 49.5598 29.3598 49.2149C29.4581 48.8674 29.6164 48.602 29.834 48.4169C30.0517 48.2303 30.3392 48.1367 30.6967 48.1367C31.0353 48.1367 31.3144 48.2292 31.5342 48.4138C31.7539 48.5967 31.9174 48.8617 32.0241 49.2087C32.1309 49.5535 32.1845 49.9683 32.1845 50.453ZM29.7294 50.453C29.7294 50.872 29.761 51.2211 29.8246 51.5002C29.8882 51.7799 29.9912 51.9892 30.1326 52.129C30.2767 52.2662 30.4644 52.3351 30.6967 52.3351C30.9286 52.3351 31.1152 52.2662 31.2571 52.129C31.4006 51.9913 31.5047 51.7825 31.5683 51.5034C31.6341 51.2242 31.6667 50.8741 31.6667 50.453C31.6667 50.0403 31.6351 49.6955 31.5715 49.4179C31.5079 49.1387 31.4049 48.9295 31.2634 48.7897C31.1215 48.6477 30.9328 48.5773 30.6967 48.5773C30.4602 48.5773 30.2714 48.6477 30.1295 48.7897C29.988 48.9295 29.8855 49.1387 29.8219 49.4179C29.7599 49.6955 29.7294 50.0403 29.7294 50.453ZM35.9949 51.6669H35.3204V52.711H34.8209V51.6669H32.6434V51.2353L34.7873 48.183H35.3204V51.2048H35.9949V51.6669ZM34.8209 51.2048V49.7322C34.8209 49.6192 34.822 49.5178 34.8241 49.4274C34.8262 49.3348 34.8293 49.2497 34.8335 49.1718C34.8378 49.0914 34.8404 49.0157 34.8425 48.9437C34.8467 48.8717 34.8499 48.8007 34.852 48.7313H34.8273C34.7884 48.8133 34.7431 48.9006 34.6916 48.9931C34.6422 49.0835 34.5922 49.1645 34.5407 49.2365L33.1518 51.2048H34.8209ZM36.58 52.3908C36.58 52.2467 36.6147 52.1453 36.6846 52.0859C36.7545 52.0238 36.8397 51.9934 36.9406 51.9934C37.0452 51.9934 37.1336 52.0238 37.2051 52.0859C37.2771 52.1453 37.3134 52.2467 37.3134 52.3908C37.3134 52.5322 37.2771 52.6358 37.2051 52.7015C37.1336 52.7656 37.0452 52.7972 36.9406 52.7972C36.8397 52.7972 36.7545 52.7656 36.6846 52.7015C36.6147 52.6358 36.58 52.5322 36.58 52.3908ZM41.0375 52.711H38.0861V52.283L39.2906 51.0597C39.5145 50.8342 39.7022 50.6328 39.8547 50.4562C40.0082 50.2795 40.1254 50.106 40.2053 49.9357C40.2857 49.7633 40.3257 49.574 40.3257 49.369C40.3257 49.114 40.2495 48.92 40.0975 48.7865C39.9477 48.6508 39.7495 48.583 39.5035 48.583C39.2874 48.583 39.0966 48.6204 38.9305 48.694C38.7638 48.7681 38.5935 48.8727 38.4189 49.0083L38.145 48.6635C38.2638 48.5626 38.3932 48.4732 38.533 48.3954C38.6744 48.3176 38.8253 48.2555 38.9856 48.2103C39.1481 48.1656 39.3205 48.143 39.5035 48.143C39.7805 48.143 40.0197 48.1909 40.2211 48.2876C40.4224 48.3843 40.5775 48.5215 40.6863 48.7003C40.7967 48.879 40.8525 49.0914 40.8525 49.338C40.8525 49.5761 40.8051 49.798 40.7105 50.0035C40.6164 50.2064 40.4839 50.4089 40.3136 50.6102C40.1427 50.8095 39.9435 51.0208 39.7159 51.2447L38.7365 52.221V52.2425H41.0375V52.711ZM44.6723 50.453C44.6723 50.8184 44.6444 51.1448 44.5887 51.4324C44.5335 51.72 44.4463 51.9634 44.3269 52.1626C44.2081 52.3619 44.0541 52.5138 43.8648 52.6184C43.6761 52.7215 43.449 52.7725 43.184 52.7725C42.8497 52.7725 42.5721 52.681 42.3523 52.4986C42.1347 52.3156 41.9717 52.0517 41.8629 51.7069C41.7562 51.3599 41.7026 50.9419 41.7026 50.453C41.7026 49.9725 41.7509 49.5598 41.8477 49.2149C41.946 48.8674 42.1042 48.602 42.3218 48.4169C42.5395 48.2303 42.8271 48.1367 43.184 48.1367C43.5231 48.1367 43.8023 48.2292 44.022 48.4138C44.2417 48.5967 44.4052 48.8617 44.512 49.2087C44.6187 49.5535 44.6723 49.9683 44.6723 50.453ZM42.2172 50.453C42.2172 50.872 42.2488 51.2211 42.3124 51.5002C42.376 51.7799 42.479 51.9892 42.6204 52.129C42.7645 52.2662 42.9522 52.3351 43.184 52.3351C43.4164 52.3351 43.603 52.2662 43.745 52.129C43.8885 51.9913 43.9926 51.7825 44.0562 51.5034C44.1219 51.2242 44.1545 50.8741 44.1545 50.453C44.1545 50.0403 44.1229 49.6955 44.0593 49.4179C43.9952 49.1387 43.8927 48.9295 43.7512 48.7897C43.6093 48.6477 43.4206 48.5773 43.184 48.5773C42.948 48.5773 42.7592 48.6477 42.6173 48.7897C42.4759 48.9295 42.3734 49.1387 42.3092 49.4179C42.2477 49.6955 42.2172 50.0403 42.2172 50.453ZM48.2577 52.711H45.3068V52.283L46.5113 51.0597C46.7347 50.8342 46.9229 50.6328 47.0748 50.4562C47.2289 50.2795 47.3461 50.106 47.426 49.9357C47.5059 49.7633 47.5459 49.574 47.5459 49.369C47.5459 49.114 47.4702 48.92 47.3182 48.7865C47.1684 48.6508 46.9702 48.583 46.7236 48.583C46.5081 48.583 46.3167 48.6204 46.1506 48.694C45.9845 48.7681 45.8136 48.8727 45.6391 49.0083L45.3652 48.6635C45.4845 48.5626 45.6138 48.4732 45.7532 48.3954C45.8951 48.3176 46.046 48.2555 46.2063 48.2103C46.3682 48.1656 46.5407 48.143 46.7236 48.143C47.0007 48.143 47.2399 48.1909 47.4412 48.2876C47.6426 48.3843 47.7977 48.5215 47.9065 48.7003C48.0174 48.879 48.0726 49.0914 48.0726 49.338C48.0726 49.5761 48.0253 49.798 47.9312 50.0035C47.8366 50.2064 47.7041 50.4089 47.5338 50.6102C47.3634 50.8095 47.1642 51.0208 46.936 51.2447L45.9566 52.221V52.2425H48.2577V52.711ZM51.8678 52.711H48.9169V52.283L50.1213 51.0597C50.3453 50.8342 50.533 50.6328 50.6849 50.4562C50.8389 50.2795 50.9562 50.106 51.0361 49.9357C51.116 49.7633 51.1565 49.574 51.1565 49.369C51.1565 49.114 51.0803 48.92 50.9283 48.7865C50.7785 48.6508 50.5803 48.583 50.3337 48.583C50.1182 48.583 49.9274 48.6204 49.7607 48.694C49.5946 48.7681 49.4242 48.8727 49.2497 49.0083L48.9753 48.6635C49.0946 48.5626 49.2239 48.4732 49.3632 48.3954C49.5052 48.3176 49.6561 48.2555 49.8164 48.2103C49.9783 48.1656 50.1508 48.143 50.3337 48.143C50.6108 48.143 50.8505 48.1909 51.0513 48.2876C51.2527 48.3843 51.4078 48.5215 51.5166 48.7003C51.6275 48.879 51.6832 49.0914 51.6832 49.338C51.6832 49.5761 51.6359 49.798 51.5413 50.0035C51.4467 50.2064 51.3142 50.4089 51.1439 50.6102C50.9735 50.8095 50.7743 51.0208 50.5461 51.2447L49.5667 52.221V52.2425H51.8678V52.711Z" fill="#B4B5BD"/>
<path d="M120.957 13.2832H120.432V55.3403H120.957V13.2832Z" fill="#53586D"/>
<path d="M134.168 21.1683V16.665H136.916V17.2901H134.907V18.4851H135.447C135.873 18.4851 136.216 18.5418 136.475 18.6549C136.734 18.7658 136.921 18.9209 137.036 19.1201C137.151 19.3188 137.208 19.548 137.208 19.8067C137.208 20.2362 137.072 20.5706 136.799 20.8108C136.527 21.049 136.087 21.1683 135.477 21.1683H134.168ZM134.907 20.5522H135.431C135.778 20.5522 136.036 20.4938 136.204 20.3766C136.372 20.2578 136.457 20.0674 136.457 19.8067C136.457 19.6237 136.415 19.4823 136.333 19.3819C136.251 19.2789 136.128 19.2074 135.964 19.1658C135.801 19.1248 135.596 19.1043 135.348 19.1043H134.907V20.5522ZM139.374 17.6938C139.805 17.6938 140.131 17.789 140.35 17.9804C140.572 18.1712 140.683 18.4688 140.683 18.8736V21.1683H140.168L140.03 20.6847H140.005C139.909 20.8077 139.809 20.9096 139.706 20.9896C139.604 21.0695 139.485 21.1294 139.349 21.1683C139.216 21.2093 139.052 21.2298 138.859 21.2298C138.656 21.2298 138.474 21.193 138.314 21.1189C138.154 21.0432 138.028 20.9281 137.935 20.774C137.843 20.62 137.796 20.425 137.796 20.1889C137.796 19.8377 137.927 19.5738 138.188 19.3972C138.45 19.2205 138.847 19.1227 139.377 19.1043L139.968 19.0828V18.904C139.968 18.668 139.913 18.4998 139.802 18.3988C139.693 18.2984 139.539 18.248 139.34 18.248C139.17 18.248 139.004 18.2727 138.844 18.3221C138.684 18.3715 138.528 18.432 138.376 18.504L138.142 17.9925C138.308 17.9041 138.497 17.8321 138.709 17.7769C138.922 17.7212 139.144 17.6938 139.374 17.6938ZM139.965 19.5386L139.524 19.5544C139.163 19.5664 138.91 19.628 138.764 19.7389C138.618 19.8498 138.545 20.0018 138.545 20.1947C138.545 20.3634 138.596 20.4865 138.696 20.5648C138.797 20.6405 138.929 20.6783 139.093 20.6783C139.344 20.6783 139.551 20.6079 139.716 20.466C139.882 20.3224 139.965 20.1116 139.965 19.8346V19.5386ZM142.756 17.6938C143.007 17.6938 143.231 17.7275 143.431 17.7953C143.632 17.861 143.791 17.9604 143.908 18.0939C144.025 18.2274 144.083 18.3941 144.083 18.5933C144.083 18.7984 144.024 18.9629 143.905 19.0859C143.788 19.2074 143.629 19.2947 143.427 19.3477V19.3756C143.569 19.4103 143.698 19.4608 143.813 19.5265C143.927 19.5901 144.019 19.6763 144.087 19.7852C144.157 19.8919 144.191 20.0296 144.191 20.1978C144.191 20.3892 144.135 20.5627 144.022 20.7188C143.911 20.8744 143.741 20.999 143.51 21.0916C143.281 21.1836 142.988 21.2298 142.633 21.2298C142.462 21.2298 142.3 21.2209 142.146 21.202C141.994 21.1857 141.855 21.162 141.73 21.1315C141.605 21.0984 141.496 21.0595 141.404 21.0143V20.3918C141.545 20.4596 141.717 20.5217 141.918 20.5769C142.119 20.6305 142.335 20.6568 142.565 20.6568C142.736 20.6568 142.89 20.6416 143.027 20.6105C143.167 20.5779 143.276 20.5243 143.357 20.4507C143.439 20.3766 143.48 20.2783 143.48 20.1547C143.48 20.0417 143.444 19.9486 143.372 19.8745C143.3 19.8004 143.192 19.7463 143.049 19.7116C142.905 19.6742 142.723 19.6558 142.503 19.6558H142.097V19.1228H142.454C142.756 19.1228 142.992 19.0902 143.162 19.0244C143.335 18.9566 143.422 18.8394 143.422 18.6733C143.422 18.5334 143.361 18.4288 143.24 18.3589C143.118 18.289 142.933 18.2543 142.682 18.2543C142.509 18.2543 142.339 18.2737 142.171 18.3126C142.002 18.3499 141.834 18.403 141.666 18.473L141.438 17.9399C141.625 17.8642 141.824 17.8048 142.038 17.7617C142.252 17.7165 142.491 17.6938 142.756 17.6938ZM147.993 19.4555C147.993 19.7389 147.956 19.9907 147.882 20.2104C147.808 20.4302 147.7 20.6158 147.558 20.7677C147.416 20.9175 147.246 21.0327 147.047 21.1131C146.848 21.1909 146.623 21.2298 146.372 21.2298C146.138 21.2298 145.923 21.1909 145.728 21.1131C145.533 21.0327 145.364 20.9175 145.22 20.7677C145.079 20.6158 144.969 20.4302 144.89 20.2104C144.813 19.9907 144.774 19.7389 144.774 19.4555C144.774 19.0796 144.838 18.7616 144.968 18.5008C145.099 18.238 145.286 18.0377 145.528 17.8999C145.77 17.7622 146.059 17.6938 146.394 17.6938C146.708 17.6938 146.985 17.7622 147.226 17.8999C147.466 18.0377 147.654 18.238 147.789 18.5008C147.925 18.7637 147.993 19.0817 147.993 19.4555ZM145.519 19.4555C145.519 19.7042 145.549 19.9166 145.609 20.0932C145.67 20.2699 145.765 20.4055 145.892 20.5001C146.019 20.5921 146.183 20.6384 146.384 20.6384C146.586 20.6384 146.75 20.5921 146.878 20.5001C147.005 20.4055 147.098 20.2699 147.158 20.0932C147.217 19.9166 147.247 19.7042 147.247 19.4555C147.247 19.2074 147.217 18.9966 147.158 18.8242C147.098 18.6496 147.005 18.5171 146.878 18.4267C146.75 18.3342 146.585 18.2879 146.381 18.2879C146.082 18.2879 145.863 18.3889 145.725 18.5902C145.588 18.7916 145.519 19.0796 145.519 19.4555ZM151.692 18.6333C151.692 18.8304 151.632 18.9913 151.51 19.117C151.391 19.24 151.227 19.3209 151.018 19.3604V19.3846C151.242 19.4135 151.428 19.4923 151.578 19.6222C151.728 19.7515 151.803 19.9308 151.803 20.161C151.803 20.3561 151.754 20.5296 151.655 20.6815C151.559 20.8313 151.405 20.9507 151.193 21.039C150.983 21.1252 150.71 21.1683 150.37 21.1683H148.824V17.7585H150.365C150.619 17.7585 150.846 17.7859 151.045 17.8416C151.246 17.8968 151.405 17.9883 151.52 18.1155C151.635 18.2432 151.692 18.4157 151.692 18.6333ZM151.048 20.1363C151.048 19.9681 150.983 19.8467 150.854 19.7731C150.727 19.6989 150.54 19.6621 150.294 19.6621H149.551V20.6352H150.309C150.539 20.6352 150.72 20.5974 150.851 20.5217C150.982 20.4434 151.048 20.3151 151.048 20.1363ZM150.956 18.698C150.956 18.5645 150.906 18.4656 150.805 18.402C150.704 18.3363 150.546 18.3037 150.331 18.3037H149.551V19.129H150.232C150.47 19.129 150.65 19.0954 150.771 19.0276C150.894 18.9577 150.956 18.8478 150.956 18.698ZM153.956 17.6938C154.387 17.6938 154.713 17.789 154.933 17.9804C155.154 18.1712 155.265 18.4688 155.265 18.8736V21.1683H154.751L154.612 20.6847H154.588C154.491 20.8077 154.392 20.9096 154.289 20.9896C154.186 21.0695 154.067 21.1294 153.932 21.1683C153.798 21.2093 153.635 21.2298 153.442 21.2298C153.238 21.2298 153.057 21.193 152.897 21.1189C152.736 21.0432 152.61 20.9281 152.517 20.774C152.425 20.62 152.379 20.425 152.379 20.1889C152.379 19.8377 152.51 19.5738 152.77 19.3972C153.033 19.2205 153.43 19.1227 153.959 19.1043L154.55 19.0828V18.904C154.55 18.668 154.495 18.4998 154.384 18.3988C154.275 18.2984 154.121 18.248 153.922 18.248C153.752 18.248 153.586 18.2727 153.426 18.3221C153.266 18.3715 153.11 18.432 152.958 18.504L152.724 17.9925C152.89 17.9041 153.079 17.8321 153.291 17.7769C153.504 17.7212 153.726 17.6938 153.956 17.6938ZM154.548 19.5386L154.107 19.5544C153.746 19.5664 153.492 19.628 153.346 19.7389C153.2 19.8498 153.127 20.0018 153.127 20.1947C153.127 20.3634 153.178 20.4865 153.279 20.5648C153.379 20.6405 153.512 20.6783 153.676 20.6783C153.926 20.6783 154.134 20.6079 154.298 20.466C154.464 20.3224 154.548 20.1116 154.548 19.8346V19.5386ZM156.621 21.1683H155.814L156.765 19.7762C156.636 19.7347 156.515 19.6742 156.402 19.5943C156.291 19.5123 156.201 19.4051 156.131 19.2736C156.061 19.1406 156.026 18.9782 156.026 18.7873C156.026 18.4546 156.145 18.2001 156.384 18.0235C156.622 17.8468 156.933 17.7585 157.317 17.7585H158.863V21.1683H158.139V19.8498H157.452L156.621 21.1683ZM156.735 18.7931C156.735 18.9661 156.799 19.0975 156.929 19.1874C157.058 19.2757 157.235 19.3199 157.459 19.3199H158.139V18.3037H157.354C157.138 18.3037 156.981 18.351 156.882 18.4451C156.784 18.5376 156.735 18.6538 156.735 18.7931ZM162.908 21.2298C162.585 21.2298 162.306 21.1673 162.07 21.0421C161.834 20.9165 161.652 20.7246 161.525 20.466C161.397 20.2073 161.334 19.8787 161.334 19.4802C161.334 19.0654 161.404 18.7263 161.543 18.4635C161.683 18.2006 161.876 18.0066 162.122 17.8815C162.37 17.7564 162.655 17.6938 162.976 17.6938C163.179 17.6938 163.362 17.7144 163.527 17.7554C163.693 17.7943 163.834 17.8426 163.949 17.8999L163.733 18.4793C163.608 18.4278 163.48 18.3846 163.348 18.3499C163.217 18.3147 163.091 18.2974 162.969 18.2974C162.77 18.2974 162.604 18.3415 162.47 18.4299C162.339 18.5182 162.24 18.6496 162.174 18.8242C162.111 18.9987 162.079 19.2153 162.079 19.4739C162.079 19.7247 162.112 19.936 162.177 20.1085C162.243 20.2793 162.341 20.4087 162.47 20.497C162.6 20.5832 162.759 20.6263 162.948 20.6263C163.135 20.6263 163.302 20.6037 163.45 20.5585C163.597 20.5133 163.737 20.4549 163.869 20.3829V21.0111C163.739 21.0852 163.601 21.1394 163.453 21.1746C163.305 21.2114 163.123 21.2298 162.908 21.2298ZM167.245 18.3284H166.123V21.1683H165.403V18.3284H164.288V17.7585H167.245V18.3284ZM169.241 17.6938C169.672 17.6938 169.997 17.789 170.217 17.9804C170.439 18.1712 170.55 18.4688 170.55 18.8736V21.1683H170.036L169.897 20.6847H169.872C169.776 20.8077 169.676 20.9096 169.574 20.9896C169.471 21.0695 169.352 21.1294 169.216 21.1683C169.083 21.2093 168.92 21.2298 168.726 21.2298C168.523 21.2298 168.341 21.193 168.181 21.1189C168.021 21.0432 167.895 20.9281 167.803 20.774C167.71 20.62 167.664 20.425 167.664 20.1889C167.664 19.8377 167.794 19.5738 168.055 19.3972C168.318 19.2205 168.714 19.1227 169.244 19.1043L169.836 19.0828V18.904C169.836 18.668 169.78 18.4998 169.669 18.3988C169.56 18.2984 169.406 18.248 169.207 18.248C169.036 18.248 168.871 18.2727 168.711 18.3221C168.551 18.3715 168.395 18.432 168.243 18.504L168.009 17.9925C168.175 17.9041 168.364 17.8321 168.575 17.7769C168.789 17.7212 169.011 17.6938 169.241 17.6938ZM169.832 19.5386L169.392 19.5544C169.03 19.5664 168.777 19.628 168.631 19.7389C168.485 19.8498 168.412 20.0018 168.412 20.1947C168.412 20.3634 168.462 20.4865 168.563 20.5648C168.664 20.6405 168.796 20.6783 168.961 20.6783C169.211 20.6783 169.419 20.6079 169.583 20.466C169.749 20.3224 169.832 20.1116 169.832 19.8346V19.5386ZM174.431 18.6333C174.431 18.8304 174.371 18.9913 174.249 19.117C174.131 19.24 173.966 19.3209 173.757 19.3604V19.3846C173.98 19.4135 174.167 19.4923 174.317 19.6222C174.467 19.7515 174.542 19.9308 174.542 20.161C174.542 20.3561 174.493 20.5296 174.395 20.6815C174.298 20.8313 174.144 20.9507 173.932 21.039C173.723 21.1252 173.449 21.1683 173.11 21.1683H171.564V17.7585H173.104C173.358 17.7585 173.585 17.7859 173.784 17.8416C173.986 17.8968 174.144 17.9883 174.259 18.1155C174.374 18.2432 174.431 18.4157 174.431 18.6333ZM173.787 20.1363C173.787 19.9681 173.723 19.8467 173.593 19.7731C173.466 19.6989 173.279 19.6621 173.033 19.6621H172.291V20.6352H173.048C173.278 20.6352 173.459 20.5974 173.59 20.5217C173.722 20.4434 173.787 20.3151 173.787 20.1363ZM173.695 18.698C173.695 18.5645 173.645 18.4656 173.544 18.402C173.444 18.3363 173.285 18.3037 173.07 18.3037H172.291V19.129H172.971C173.21 19.129 173.389 19.0954 173.51 19.0276C173.633 18.9577 173.695 18.8478 173.695 18.698ZM177.472 17.7585H178.27L176.859 19.3972L178.389 21.1683H177.555L176.085 19.4371V21.1683H175.359V17.7585H176.085V19.4124L177.472 17.7585ZM180.281 17.6938C180.712 17.6938 181.037 17.789 181.257 17.9804C181.479 18.1712 181.59 18.4688 181.59 18.8736V21.1683H181.076L180.937 20.6847H180.912C180.816 20.8077 180.716 20.9096 180.614 20.9896C180.511 21.0695 180.392 21.1294 180.256 21.1683C180.123 21.2093 179.96 21.2298 179.766 21.2298C179.563 21.2298 179.381 21.193 179.221 21.1189C179.061 21.0432 178.935 20.9281 178.843 20.774C178.75 20.62 178.704 20.425 178.704 20.1889C178.704 19.8377 178.834 19.5738 179.095 19.3972C179.358 19.2205 179.754 19.1227 180.284 19.1043L180.876 19.0828V18.904C180.876 18.668 180.82 18.4998 180.709 18.3988C180.6 18.2984 180.446 18.248 180.247 18.248C180.076 18.248 179.911 18.2727 179.751 18.3221C179.591 18.3715 179.435 18.432 179.283 18.504L179.049 17.9925C179.215 17.9041 179.404 17.8321 179.615 17.7769C179.829 17.7212 180.051 17.6938 180.281 17.6938ZM180.872 19.5386L180.432 19.5544C180.07 19.5664 179.817 19.628 179.671 19.7389C179.525 19.8498 179.452 20.0018 179.452 20.1947C179.452 20.3634 179.502 20.4865 179.603 20.5648C179.704 20.6405 179.836 20.6783 180.001 20.6783C180.251 20.6783 180.459 20.6079 180.623 20.466C180.789 20.3224 180.872 20.1116 180.872 19.8346V19.5386Z" fill="white" fill-opacity="0.9"/>
<path d="M189.824 21.3C189.092 21.3 188.39 21.0093 187.873 20.4915C187.355 19.9742 187.064 19.2718 187.064 18.54C187.064 17.8082 187.355 17.1059 187.873 16.5886C188.39 16.0708 189.092 15.78 189.824 15.78C190.556 15.78 191.258 16.0708 191.776 16.5886C192.294 17.1059 192.584 17.8082 192.584 18.54C192.584 19.2718 192.294 19.9742 191.776 20.4915C191.258 21.0093 190.556 21.3 189.824 21.3ZM189.824 21.6943C190.661 21.6943 191.463 21.362 192.055 20.7706C192.646 20.1787 192.979 19.3764 192.979 18.54C192.979 17.7036 192.646 16.9014 192.055 16.3094C191.463 15.718 190.661 15.3857 189.824 15.3857C188.988 15.3857 188.186 15.718 187.594 16.3094C187.002 16.9014 186.67 17.7036 186.67 18.54C186.67 19.3764 187.002 20.1787 187.594 20.7706C188.186 21.362 188.988 21.6943 189.824 21.6943Z" fill="white"/>
<path d="M190.219 17.7229L189.352 17.8422L189.321 18.0004L189.491 18.0351C189.602 18.064 189.624 18.1082 189.6 18.2302L189.321 19.6738C189.247 20.047 189.36 20.2226 189.626 20.2226C189.833 20.2226 190.073 20.1175 190.181 19.9739L190.215 19.8004C190.139 19.874 190.028 19.903 189.955 19.903C189.851 19.903 189.813 19.8225 189.84 19.6811L190.219 17.7229ZM190.245 16.8539C190.245 16.9643 190.205 17.0699 190.134 17.1483C190.063 17.2261 189.967 17.2697 189.867 17.2697C189.766 17.2697 189.67 17.2261 189.599 17.1483C189.528 17.0699 189.488 16.9643 189.488 16.8539C189.488 16.7435 189.528 16.6373 189.599 16.5595C189.67 16.4811 189.766 16.4375 189.867 16.4375C189.967 16.4375 190.063 16.4811 190.134 16.5595C190.205 16.6373 190.245 16.7435 190.245 16.8539Z" fill="white"/>
<path d="M136.791 37.4645H135.821V33.5995C135.821 33.4712 135.823 33.3424 135.825 33.2136C135.828 33.0848 135.831 32.9592 135.834 32.8356C135.839 32.7126 135.846 32.5949 135.854 32.4824C135.797 32.5455 135.726 32.6138 135.641 32.6879C135.558 32.762 135.471 32.8388 135.378 32.9182L134.688 33.4681L134.203 32.8561L135.986 31.4599H136.791V37.4645ZM142.602 32.832C142.602 33.1027 142.548 33.3382 142.438 33.538C142.329 33.7378 142.178 33.9023 141.986 34.0311C141.798 34.1568 141.578 34.2472 141.329 34.3019V34.3308C141.808 34.3912 142.17 34.5416 142.413 34.7824C142.66 35.0237 142.783 35.3428 142.783 35.7397C142.783 36.0872 142.7 36.3979 142.533 36.6718C142.365 36.943 142.109 37.1565 141.764 37.3126C141.42 37.4687 140.976 37.5465 140.434 37.5465C140.108 37.5465 139.806 37.5208 139.526 37.4687C139.249 37.4167 138.987 37.3331 138.737 37.218V36.3595C138.992 36.4857 139.263 36.5829 139.551 36.6513C139.838 36.7196 140.111 36.7538 140.368 36.7538C140.869 36.7538 141.227 36.6607 141.44 36.4746C141.654 36.2859 141.76 36.0257 141.76 35.6945C141.76 35.481 141.705 35.3054 141.592 35.1687C141.483 35.0315 141.311 34.929 141.078 34.8607C140.849 34.7923 140.552 34.7582 140.187 34.7582H139.657V33.9817H140.192C140.539 33.9817 140.819 33.9407 141.03 33.8587C141.24 33.7735 141.392 33.6573 141.485 33.5096C141.581 33.3613 141.629 33.1889 141.629 32.9918C141.629 32.7347 141.545 32.5344 141.379 32.3925C141.211 32.2474 140.964 32.1748 140.635 32.1748C140.432 32.1748 140.248 32.198 140.081 32.2442C139.916 32.291 139.764 32.3499 139.625 32.4209C139.485 32.4924 139.352 32.5691 139.226 32.6511L138.762 31.9814C138.989 31.8116 139.26 31.668 139.575 31.5503C139.89 31.4325 140.257 31.3736 140.676 31.3736C141.292 31.3736 141.767 31.5066 142.101 31.7721C142.435 32.035 142.602 32.3883 142.602 32.832ZM144.866 36.4872L144.923 36.5813C144.874 36.7785 144.81 36.9909 144.734 37.218C144.657 37.4456 144.574 37.6727 144.483 37.8998C144.393 38.1301 144.302 38.3462 144.208 38.5485H143.502C143.559 38.3272 143.614 38.0943 143.666 37.8504C143.721 37.6096 143.77 37.3715 143.814 37.136C143.86 36.8978 143.897 36.6812 143.925 36.4872H144.866ZM147.913 33.7104C148.299 33.7104 148.639 33.7803 148.932 33.9202C149.227 34.0569 149.457 34.2598 149.621 34.5279C149.786 34.7934 149.868 35.1193 149.868 35.5052C149.868 35.9274 149.779 36.2911 149.601 36.5982C149.423 36.902 149.161 37.136 148.816 37.3005C148.472 37.4645 148.051 37.5465 147.556 37.5465C147.241 37.5465 146.946 37.5192 146.673 37.4645C146.401 37.4099 146.167 37.3278 145.97 37.218V36.3474C146.176 36.4625 146.422 36.5566 146.709 36.6308C146.997 36.7017 147.272 36.7375 147.535 36.7375C147.814 36.7375 148.054 36.6965 148.254 36.6145C148.454 36.5324 148.607 36.4063 148.714 36.2365C148.823 36.0667 148.878 35.8516 148.878 35.5919C148.878 35.2465 148.767 34.9811 148.546 34.795C148.326 34.6057 147.983 34.5116 147.515 34.5116C147.35 34.5116 147.175 34.5263 146.989 34.5568C146.806 34.5842 146.652 34.6141 146.529 34.6472L146.106 34.3965L146.332 31.4599H149.453V32.3099H147.182L147.051 33.8051C147.149 33.783 147.267 33.7625 147.404 33.7435C147.54 33.7215 147.71 33.7104 147.913 33.7104ZM154.751 34.458C154.751 34.9427 154.713 35.3769 154.636 35.7602C154.562 36.1408 154.445 36.4636 154.283 36.7296C154.121 36.9951 153.911 37.1975 153.651 37.3373C153.391 37.4766 153.076 37.5465 152.706 37.5465C152.243 37.5465 151.861 37.4246 151.56 37.1812C151.259 36.9346 151.036 36.5813 150.891 36.1213C150.745 35.6587 150.673 35.1041 150.673 34.458C150.673 33.8119 150.738 33.2588 150.87 32.7988C151.004 32.3362 151.22 31.9814 151.519 31.7353C151.818 31.4888 152.213 31.3652 152.706 31.3652C153.171 31.3652 153.555 31.4888 153.856 31.7353C154.16 31.9787 154.384 32.332 154.529 32.7946C154.678 33.2546 154.751 33.8093 154.751 34.458ZM151.646 34.458C151.646 34.9648 151.679 35.3874 151.745 35.7271C151.813 36.0667 151.925 36.3216 152.082 36.4909C152.238 36.6581 152.446 36.7417 152.706 36.7417C152.966 36.7417 153.174 36.6581 153.33 36.4909C153.486 36.3243 153.599 36.0709 153.667 35.7313C153.738 35.3917 153.774 34.9674 153.774 34.458C153.774 33.9544 153.74 33.5327 153.671 33.1931C153.602 32.8535 153.49 32.5991 153.334 32.4293C153.178 32.2568 152.969 32.1706 152.706 32.1706C152.443 32.1706 152.234 32.2568 152.077 32.4293C151.924 32.5991 151.813 32.8535 151.745 33.1931C151.679 33.5327 151.646 33.9544 151.646 34.458ZM156.78 31.3736C157.221 31.3736 157.555 31.5382 157.782 31.8668C158.01 32.1922 158.123 32.6538 158.123 33.2504C158.123 33.845 158.014 34.3087 157.795 34.643C157.578 34.9769 157.24 35.144 156.78 35.144C156.35 35.144 156.023 34.9769 155.798 34.643C155.574 34.3087 155.462 33.845 155.462 33.2504C155.462 32.6538 155.567 32.1922 155.778 31.8668C155.992 31.5382 156.326 31.3736 156.78 31.3736ZM156.784 32.0471C156.606 32.0471 156.475 32.147 156.39 32.3473C156.308 32.547 156.267 32.8493 156.267 33.2546C156.267 33.6573 156.308 33.9612 156.39 34.1667C156.475 34.3691 156.606 34.4706 156.784 34.4706C156.965 34.4706 157.099 34.3691 157.187 34.1667C157.277 33.9638 157.322 33.66 157.322 33.2546C157.322 32.8525 157.279 32.5512 157.191 32.3509C157.103 32.1485 156.968 32.0471 156.784 32.0471ZM160.813 31.4599L157.483 37.4645H156.69L160.021 31.4599H160.813ZM160.703 33.7761C161.143 33.7761 161.478 33.9407 161.705 34.2693C161.935 34.5952 162.05 35.0562 162.05 35.6534C162.05 36.2449 161.94 36.7075 161.721 37.0413C161.505 37.3757 161.165 37.5423 160.703 37.5423C160.273 37.5423 159.945 37.3757 159.721 37.0413C159.496 36.7075 159.384 36.2449 159.384 35.6534C159.384 35.0562 159.489 34.5952 159.7 34.2693C159.914 33.9407 160.248 33.7761 160.703 33.7761ZM160.706 34.4501C160.529 34.4501 160.397 34.55 160.312 34.7498C160.23 34.9495 160.189 35.2523 160.189 35.6571C160.189 36.0598 160.23 36.3637 160.312 36.5692C160.397 36.7716 160.529 36.8731 160.706 36.8731C160.89 36.8731 161.026 36.7732 161.113 36.5734C161.201 36.3705 161.245 36.0656 161.245 35.6571C161.245 35.255 161.201 34.9537 161.113 34.754C161.026 34.551 160.89 34.4501 160.706 34.4501Z" fill="white" fill-opacity="0.9"/>
<path d="M173.003 35.3617L170.637 33.2588L168.271 35.3617" stroke="#18C35D" stroke-width="1.5" stroke-linecap="round" stroke-linejoin="round"/>
<path d="M179.234 32.8606C179.234 33.1292 179.182 33.3616 179.078 33.5587C178.974 33.7559 178.829 33.9178 178.643 34.0434C178.456 34.167 178.238 34.2532 177.986 34.3021V34.3352C178.462 34.3951 178.819 34.5486 179.058 34.7952C179.298 35.0418 179.419 35.3645 179.419 35.7646C179.419 36.1121 179.337 36.4202 179.172 36.6883C179.011 36.9569 178.762 37.1677 178.425 37.3212C178.091 37.4716 177.662 37.5468 177.139 37.5468C176.822 37.5468 176.527 37.521 176.257 37.469C175.988 37.4195 175.731 37.336 175.484 37.2182V36.5774C175.734 36.7009 176.004 36.7982 176.298 36.8691C176.59 36.9375 176.874 36.9716 177.148 36.9716C177.695 36.9716 178.091 36.8639 178.335 36.6473C178.578 36.4286 178.7 36.13 178.7 35.752C178.7 35.4918 178.632 35.2825 178.495 35.1238C178.361 34.9624 178.166 34.8446 177.912 34.7705C177.66 34.6937 177.356 34.6554 177 34.6554H176.4V34.0723H177.004C177.33 34.0723 177.606 34.0245 177.834 33.9283C178.061 33.8326 178.233 33.6986 178.351 33.5261C178.471 33.3505 178.532 33.1439 178.532 32.9058C178.532 32.6019 178.43 32.368 178.228 32.2034C178.025 32.0363 177.75 31.9532 177.402 31.9532C177.189 31.9532 176.994 31.9748 176.819 32.0189C176.644 32.0625 176.48 32.123 176.326 32.1992C176.173 32.276 176.02 32.3648 175.866 32.4663L175.521 31.9984C175.74 31.8286 176.007 31.6819 176.322 31.5589C176.637 31.4354 176.994 31.3739 177.394 31.3739C178.007 31.3739 178.467 31.5137 178.774 31.7929C179.081 32.072 179.234 32.4279 179.234 32.8606ZM184.27 37.4648H180.335V36.8938L181.941 35.2631C182.239 34.9624 182.49 34.6937 182.692 34.4582C182.897 34.2227 183.054 33.9914 183.16 33.7643C183.267 33.534 183.321 33.2822 183.321 33.0083C183.321 32.6692 183.219 32.41 183.017 32.2324C182.817 32.0515 182.553 31.9611 182.224 31.9611C181.936 31.9611 181.682 32.0105 181.46 32.1088C181.238 32.2077 181.011 32.3475 180.778 32.5278L180.413 32.0678C180.572 31.9338 180.744 31.8149 180.93 31.7108C181.12 31.6068 181.32 31.5247 181.534 31.4643C181.75 31.4038 181.981 31.3739 182.224 31.3739C182.594 31.3739 182.913 31.438 183.181 31.5668C183.449 31.6956 183.656 31.8791 183.801 32.1172C183.949 32.3554 184.023 32.6387 184.023 32.9673C184.023 33.2848 183.96 33.5808 183.834 33.8547C183.708 34.1254 183.531 34.3951 183.304 34.6638C183.077 34.9293 182.811 35.2116 182.507 35.5096L181.202 36.8118V36.8402H184.27V37.4648ZM187.046 33.7932C187.454 33.7932 187.808 33.8626 188.109 34.0024C188.411 34.1391 188.644 34.3394 188.808 34.6023C188.975 34.8651 189.058 35.1837 189.058 35.5591C189.058 35.9696 188.969 36.3245 188.791 36.6226C188.614 36.9185 188.358 37.1472 188.023 37.3086C187.689 37.4674 187.289 37.5468 186.824 37.5468C186.512 37.5468 186.222 37.5194 185.953 37.4648C185.685 37.4101 185.459 37.3281 185.276 37.2182V36.5695C185.476 36.6899 185.718 36.7855 186.003 36.857C186.287 36.928 186.564 36.9638 186.832 36.9638C187.136 36.9638 187.402 36.9159 187.629 36.8197C187.859 36.7214 188.037 36.5737 188.163 36.3765C188.292 36.1762 188.356 35.926 188.356 35.6248C188.356 35.2252 188.233 34.9172 187.986 34.7006C187.742 34.4819 187.357 34.372 186.828 34.372C186.658 34.372 186.472 34.3857 186.269 34.413C186.067 34.4403 185.9 34.4708 185.768 34.5034L185.424 34.2779L185.653 31.4601H188.639V32.0846H186.237L186.085 33.8957C186.189 33.8736 186.323 33.8521 186.487 33.83C186.652 33.8053 186.838 33.7932 187.046 33.7932ZM191.046 36.4875L191.1 36.5816C191.05 36.7819 190.987 36.9953 190.91 37.2224C190.837 37.4495 190.755 37.6771 190.664 37.9042C190.577 38.134 190.488 38.349 190.397 38.5488H189.888C189.946 38.3301 190.001 38.0988 190.057 37.8548C190.111 37.6141 190.16 37.3759 190.204 37.1404C190.251 36.9022 190.288 36.6846 190.315 36.4875H191.046ZM196.106 34.454C196.106 34.9419 196.069 35.3772 195.995 35.7604C195.922 36.1436 195.805 36.468 195.646 36.7335C195.487 36.9995 195.282 37.2019 195.03 37.3417C194.778 37.4784 194.476 37.5468 194.123 37.5468C193.676 37.5468 193.307 37.4248 193.013 37.1814C192.723 36.9375 192.505 36.5858 192.36 36.1258C192.218 35.6631 192.147 35.1059 192.147 34.454C192.147 33.8137 192.211 33.2633 192.34 32.8033C192.471 32.3406 192.682 31.9858 192.972 31.7392C193.262 31.4901 193.646 31.3655 194.123 31.3655C194.574 31.3655 194.947 31.489 195.24 31.7356C195.532 31.979 195.75 32.3322 195.893 32.7949C196.035 33.2549 196.106 33.8079 196.106 34.454ZM192.833 34.454C192.833 35.0128 192.875 35.4781 192.96 35.8508C193.045 36.223 193.182 36.5022 193.371 36.6883C193.563 36.8718 193.813 36.9638 194.123 36.9638C194.432 36.9638 194.681 36.8718 194.87 36.6883C195.061 36.5048 195.2 36.2272 195.285 35.855C195.372 35.4823 195.416 35.0155 195.416 34.454C195.416 33.9041 195.374 33.4441 195.289 33.074C195.204 32.7018 195.067 32.4227 194.878 32.2366C194.689 32.0473 194.437 31.9532 194.123 31.9532C193.808 31.9532 193.556 32.0473 193.367 32.2366C193.178 32.4227 193.041 32.7018 192.956 33.074C192.874 33.4441 192.833 33.9041 192.833 34.454ZM200.92 34.454C200.92 34.9419 200.883 35.3772 200.809 35.7604C200.735 36.1436 200.619 36.468 200.46 36.7335C200.301 36.9995 200.096 37.2019 199.844 37.3417C199.592 37.4784 199.289 37.5468 198.936 37.5468C198.49 37.5468 198.12 37.4248 197.827 37.1814C197.537 36.9375 197.319 36.5858 197.174 36.1258C197.032 35.6631 196.96 35.1059 196.96 34.454C196.96 33.8137 197.025 33.2633 197.154 32.8033C197.285 32.3406 197.496 31.9858 197.786 31.7392C198.076 31.4901 198.46 31.3655 198.936 31.3655C199.388 31.3655 199.76 31.489 200.053 31.7356C200.346 31.979 200.564 32.3322 200.706 32.7949C200.848 33.2549 200.92 33.8079 200.92 34.454ZM197.646 34.454C197.646 35.0128 197.689 35.4781 197.774 35.8508C197.859 36.223 197.995 36.5022 198.184 36.6883C198.376 36.8718 198.627 36.9638 198.936 36.9638C199.246 36.9638 199.495 36.8718 199.684 36.6883C199.875 36.5048 200.014 36.2272 200.098 35.855C200.186 35.4823 200.23 35.0155 200.23 34.454C200.23 33.9041 200.187 33.4441 200.102 33.074C200.017 32.7018 199.881 32.4227 199.692 32.2366C199.503 32.0473 199.251 31.9532 198.936 31.9532C198.621 31.9532 198.369 32.0473 198.18 32.2366C197.991 32.4227 197.855 32.7018 197.769 33.074C197.687 33.4441 197.646 33.9041 197.646 34.454ZM204.021 34.7621C204.021 34.1218 204.082 33.5755 204.206 33.1234C204.329 32.6692 204.519 32.3049 204.777 32.031C205.036 31.7545 205.371 31.5658 205.779 31.4643C206.129 31.3686 206.485 31.2861 206.846 31.2177C207.208 31.1468 207.56 31.0852 207.902 31.0332L208.021 31.6325C207.848 31.6572 207.668 31.6861 207.479 31.7187C207.29 31.7492 207.101 31.7818 206.912 31.8176C206.723 31.8502 206.545 31.8859 206.378 31.9243C206.211 31.96 206.063 31.9968 205.935 32.0352C205.702 32.0983 205.501 32.2076 205.331 32.3638C205.164 32.5199 205.031 32.7349 204.932 33.0083C204.837 33.2822 204.779 33.6276 204.76 34.0434H204.809C204.891 33.923 205.004 33.8037 205.146 33.686C205.288 33.5687 205.458 33.4715 205.655 33.3947C205.852 33.3153 206.074 33.2754 206.321 33.2754C206.71 33.2754 207.034 33.3605 207.294 33.5303C207.554 33.697 207.75 33.9325 207.881 34.2364C208.013 34.5408 208.079 34.8967 208.079 35.3046C208.079 35.7946 207.993 36.2067 207.824 36.5406C207.657 36.8749 207.421 37.1267 207.118 37.2965C206.813 37.4632 206.456 37.5468 206.046 37.5468C205.728 37.5468 205.443 37.4853 205.191 37.3622C204.942 37.2387 204.73 37.0584 204.555 36.8197C204.382 36.5816 204.249 36.2903 204.156 35.9449C204.066 35.6001 204.021 35.2058 204.021 34.7621ZM206.099 36.9801C206.359 36.9801 206.582 36.9254 206.769 36.816C206.957 36.7062 207.102 36.5337 207.204 36.2982C207.308 36.0601 207.36 35.7509 207.36 35.3703C207.36 34.8935 207.268 34.5213 207.085 34.2532C206.904 33.9819 206.613 33.8463 206.214 33.8463C205.965 33.8463 205.739 33.8999 205.536 34.0066C205.333 34.1107 205.162 34.2353 205.023 34.3804C204.883 34.5255 204.782 34.6554 204.719 34.7705C204.719 35.0496 204.739 35.3209 204.78 35.5838C204.821 35.8466 204.893 36.0832 204.994 36.294C205.095 36.5048 205.235 36.672 205.413 36.7955C205.594 36.9185 205.822 36.9801 206.099 36.9801ZM209.155 37.0379C209.155 36.846 209.201 36.7104 209.294 36.631C209.387 36.549 209.501 36.508 209.635 36.508C209.775 36.508 209.892 36.549 209.989 36.631C210.084 36.7104 210.132 36.846 210.132 37.0379C210.132 37.2266 210.084 37.3649 209.989 37.4527C209.892 37.5373 209.775 37.5799 209.635 37.5799C209.501 37.5799 209.387 37.5373 209.294 37.4527C209.201 37.3649 209.155 37.2266 209.155 37.0379ZM215.237 32.9636V37.4648H214.551V33.5508H212.153V37.4648H211.467V32.9636H215.237ZM216.58 37.0379C216.58 36.846 216.627 36.7104 216.72 36.631C216.813 36.549 216.926 36.508 217.061 36.508C217.2 36.508 217.318 36.549 217.414 36.631C217.51 36.7104 217.558 36.846 217.558 37.0379C217.558 37.2266 217.51 37.3649 217.414 37.4527C217.318 37.5373 217.2 37.5799 217.061 37.5799C216.926 37.5799 216.813 37.5373 216.72 37.4527C216.627 37.3649 216.58 37.2266 216.58 37.0379Z" fill="#18C35D"/>
<path d="M137.604 52.711H137.081V50.5887H134.715V52.711H134.191V48.2077H134.715V50.1265H137.081V48.2077H137.604V52.711ZM140.028 49.2796C140.431 49.2796 140.73 49.37 140.925 49.5503C141.12 49.7312 141.218 50.0198 141.218 50.4162V52.711H140.845L140.747 52.2121H140.722C140.627 52.3351 140.529 52.4386 140.426 52.5233C140.323 52.6053 140.204 52.6678 140.069 52.711C139.935 52.752 139.771 52.7725 139.576 52.7725C139.37 52.7725 139.188 52.7367 139.027 52.6647C138.869 52.5927 138.744 52.4839 138.652 52.3382C138.561 52.1926 138.516 52.0076 138.516 51.7836C138.516 51.4471 138.649 51.1885 138.917 51.0076C139.184 50.8268 139.59 50.7285 140.136 50.7117L140.719 50.687V50.4809C140.719 50.1891 140.656 49.9846 140.53 49.8679C140.405 49.7506 140.229 49.6923 140.001 49.6923C139.824 49.6923 139.656 49.7181 139.496 49.7691C139.336 49.8206 139.184 49.881 139.04 49.951L138.883 49.563C139.035 49.4847 139.209 49.4179 139.406 49.3627C139.604 49.3069 139.811 49.2796 140.028 49.2796ZM140.712 51.0476L140.198 51.0692C139.777 51.0855 139.48 51.1543 139.308 51.2758C139.135 51.3967 139.049 51.568 139.049 51.7899C139.049 51.9828 139.107 52.1258 139.225 52.2178C139.342 52.3104 139.497 52.3566 139.69 52.3566C139.989 52.3566 140.235 52.2736 140.426 52.1074C140.617 51.9408 140.712 51.6916 140.712 51.3588V51.0476ZM145.586 52.711H145.086V49.5199C145.086 49.3984 145.086 49.2949 145.086 49.2087C145.088 49.1203 145.091 49.0404 145.093 48.9684C145.097 48.8943 145.102 48.8196 145.108 48.7434C145.044 48.8091 144.985 48.8659 144.93 48.9127C144.874 48.9579 144.805 49.0147 144.723 49.0825L144.209 49.4952L143.941 49.1471L145.16 48.2077H145.586V52.711ZM150.077 49.2581C150.077 49.4589 150.037 49.6334 149.96 49.7817C149.882 49.9294 149.773 50.0503 149.633 50.145C149.493 50.2375 149.329 50.3021 149.14 50.3389V50.3636C149.498 50.4088 149.766 50.524 149.944 50.7085C150.125 50.8935 150.215 51.1359 150.215 51.4356C150.215 51.6963 150.154 51.9276 150.031 52.129C149.909 52.3298 149.723 52.488 149.47 52.6032C149.219 52.7162 148.898 52.7725 148.506 52.7725C148.267 52.7725 148.047 52.753 147.844 52.7141C147.642 52.6773 147.449 52.6142 147.264 52.5259V52.0454C147.451 52.1379 147.654 52.211 147.874 52.2641C148.094 52.3156 148.306 52.3414 148.512 52.3414C148.922 52.3414 149.219 52.2604 149.402 52.098C149.585 51.9334 149.676 51.71 149.676 51.4266C149.676 51.2316 149.625 51.0744 149.522 50.9551C149.422 50.8341 149.276 50.7458 149.085 50.6901C148.896 50.6328 148.668 50.6039 148.401 50.6039H147.951V50.1665H148.404C148.649 50.1665 148.856 50.1308 149.027 50.0587C149.197 49.9867 149.326 49.8863 149.415 49.757C149.505 49.6255 149.55 49.4704 149.55 49.2917C149.55 49.0635 149.474 48.8885 149.322 48.765C149.17 48.6398 148.963 48.5773 148.703 48.5773C148.543 48.5773 148.397 48.5935 148.265 48.6261C148.134 48.6593 148.011 48.7045 147.896 48.7618C147.781 48.8196 147.666 48.8864 147.551 48.9621L147.292 48.6109C147.456 48.4837 147.657 48.3738 147.893 48.2813C148.129 48.1887 148.397 48.143 148.697 48.143C149.157 48.143 149.502 48.2476 149.731 48.4569C149.962 48.6666 150.077 48.9332 150.077 49.2581ZM151.053 52.3908C151.053 52.2467 151.088 52.1453 151.158 52.0859C151.228 52.0238 151.313 51.9934 151.414 51.9934C151.518 51.9934 151.607 52.0238 151.679 52.0859C151.75 52.1453 151.787 52.2467 151.787 52.3908C151.787 52.5322 151.75 52.6358 151.679 52.7015C151.607 52.7656 151.518 52.7972 151.414 52.7972C151.313 52.7972 151.228 52.7656 151.158 52.7015C151.088 52.6358 151.053 52.5322 151.053 52.3908ZM155.535 50.453C155.535 50.8184 155.507 51.1448 155.452 51.4324C155.397 51.72 155.309 51.9634 155.19 52.1626C155.071 52.3619 154.917 52.5138 154.728 52.6184C154.539 52.7215 154.312 52.7725 154.047 52.7725C153.713 52.7725 153.435 52.681 153.215 52.4986C152.998 52.3156 152.835 52.0517 152.726 51.7069C152.619 51.3599 152.566 50.9419 152.566 50.453C152.566 49.9725 152.614 49.5598 152.71 49.2149C152.809 48.8674 152.967 48.602 153.185 48.4169C153.403 48.2303 153.69 48.1367 154.047 48.1367C154.386 48.1367 154.665 48.2292 154.885 48.4138C155.105 48.5967 155.268 48.8617 155.375 49.2087C155.482 49.5535 155.535 49.9683 155.535 50.453ZM153.08 50.453C153.08 50.872 153.112 51.2211 153.175 51.5002C153.239 51.7799 153.342 51.9892 153.484 52.129C153.628 52.2662 153.815 52.3351 154.047 52.3351C154.279 52.3351 154.466 52.2662 154.608 52.129C154.752 51.9913 154.856 51.7825 154.919 51.5034C154.985 51.2242 155.018 50.8741 155.018 50.453C155.018 50.0403 154.986 49.6955 154.922 49.4179C154.858 49.1387 154.756 48.9295 154.614 48.7897C154.472 48.6477 154.284 48.5773 154.047 48.5773C153.811 48.5773 153.622 48.6477 153.48 48.7897C153.339 48.9295 153.236 49.1387 153.172 49.4179C153.111 49.6955 153.08 50.0403 153.08 50.453ZM159.346 51.6669H158.671V52.711H158.172V51.6669H155.994V51.2353L158.138 48.183H158.671V51.2048H159.346V51.6669ZM158.172 51.2048V49.7322C158.172 49.6192 158.173 49.5178 158.175 49.4274C158.177 49.3348 158.18 49.2497 158.184 49.1718C158.188 49.0914 158.191 49.0157 158.193 48.9437C158.198 48.8717 158.201 48.8007 158.203 48.7313H158.178C158.139 48.8133 158.094 48.9006 158.043 48.9931C157.993 49.0835 157.943 49.1645 157.892 49.2365L156.502 51.2048H158.172ZM159.931 52.3908C159.931 52.2467 159.966 52.1453 160.035 52.0859C160.105 52.0238 160.191 51.9934 160.291 51.9934C160.396 51.9934 160.484 52.0238 160.556 52.0859C160.628 52.1453 160.664 52.2467 160.664 52.3908C160.664 52.5322 160.628 52.6358 160.556 52.7015C160.484 52.7656 160.396 52.7972 160.291 52.7972C160.191 52.7972 160.105 52.7656 160.035 52.7015C159.966 52.6358 159.931 52.5322 159.931 52.3908ZM164.388 52.711H161.437V52.283L162.641 51.0597C162.865 50.8342 163.053 50.6328 163.205 50.4562C163.359 50.2795 163.476 50.106 163.556 49.9357C163.637 49.7633 163.677 49.574 163.677 49.369C163.677 49.114 163.6 48.92 163.448 48.7865C163.299 48.6508 163.1 48.583 162.854 48.583C162.638 48.583 162.447 48.6204 162.281 48.694C162.115 48.7681 161.944 48.8727 161.77 49.0083L161.495 48.6635C161.615 48.5626 161.744 48.4732 161.884 48.3954C162.025 48.3176 162.176 48.2555 162.337 48.2103C162.499 48.1656 162.671 48.143 162.854 48.143C163.131 48.143 163.371 48.1909 163.572 48.2876C163.773 48.3843 163.928 48.5215 164.037 48.7003C164.148 48.879 164.203 49.0914 164.203 49.338C164.203 49.5761 164.156 49.798 164.061 50.0035C163.967 50.2064 163.835 50.4089 163.664 50.6102C163.494 50.8095 163.294 51.0208 163.067 51.2447L162.087 52.221V52.2425H164.388V52.711ZM168.023 50.453C168.023 50.8184 167.995 51.1448 167.94 51.4324C167.884 51.72 167.797 51.9634 167.678 52.1626C167.559 52.3619 167.405 52.5138 167.216 52.6184C167.027 52.7215 166.8 52.7725 166.535 52.7725C166.201 52.7725 165.923 52.681 165.703 52.4986C165.486 52.3156 165.323 52.0517 165.214 51.7069C165.107 51.3599 165.053 50.9419 165.053 50.453C165.053 49.9725 165.102 49.5598 165.198 49.2149C165.297 48.8674 165.455 48.602 165.673 48.4169C165.89 48.2303 166.178 48.1367 166.535 48.1367C166.874 48.1367 167.153 48.2292 167.373 48.4138C167.593 48.5967 167.756 48.8617 167.863 49.2087C167.97 49.5535 168.023 49.9683 168.023 50.453ZM165.568 50.453C165.568 50.872 165.6 51.2211 165.663 51.5002C165.727 51.7799 165.83 51.9892 165.971 52.129C166.115 52.2662 166.303 52.3351 166.535 52.3351C166.767 52.3351 166.954 52.2662 167.096 52.129C167.239 51.9913 167.343 51.7825 167.407 51.5034C167.473 51.2242 167.505 50.8741 167.505 50.453C167.505 50.0403 167.473 49.6955 167.41 49.4179C167.346 49.1387 167.244 48.9295 167.102 48.7897C166.96 48.6477 166.771 48.5773 166.535 48.5773C166.299 48.5773 166.11 48.6477 165.968 48.7897C165.827 48.9295 165.724 49.1387 165.66 49.4179C165.599 49.6955 165.568 50.0403 165.568 50.453ZM171.609 52.711H168.657V52.283L169.862 51.0597C170.086 50.8342 170.274 50.6328 170.426 50.4562C170.58 50.2795 170.696 50.106 170.777 49.9357C170.857 49.7633 170.897 49.574 170.897 49.369C170.897 49.114 170.821 48.92 170.669 48.7865C170.519 48.6508 170.321 48.583 170.074 48.583C169.859 48.583 169.668 48.6204 169.501 48.694C169.335 48.7681 169.164 48.8727 168.99 49.0083L168.716 48.6635C168.835 48.5626 168.964 48.4732 169.104 48.3954C169.246 48.3176 169.397 48.2555 169.557 48.2103C169.719 48.1656 169.892 48.143 170.074 48.143C170.352 48.143 170.591 48.1909 170.792 48.2876C170.993 48.3843 171.149 48.5215 171.257 48.7003C171.368 48.879 171.423 49.0914 171.423 49.338C171.423 49.5761 171.376 49.798 171.282 50.0035C171.187 50.2064 171.055 50.4089 170.885 50.6102C170.714 50.8095 170.515 51.0208 170.287 51.2447L169.307 52.221V52.2425H171.609V52.711ZM175.219 52.711H172.268V52.283L173.472 51.0597C173.696 50.8342 173.884 50.6328 174.036 50.4562C174.19 50.2795 174.307 50.106 174.387 49.9357C174.467 49.7633 174.507 49.574 174.507 49.369C174.507 49.114 174.431 48.92 174.279 48.7865C174.129 48.6508 173.931 48.583 173.685 48.583C173.469 48.583 173.278 48.6204 173.112 48.694C172.945 48.7681 172.775 48.8727 172.6 49.0083L172.326 48.6635C172.445 48.5626 172.575 48.4732 172.714 48.3954C172.856 48.3176 173.007 48.2555 173.167 48.2103C173.329 48.1656 173.502 48.143 173.685 48.143C173.962 48.143 174.201 48.1909 174.402 48.2876C174.604 48.3843 174.759 48.5215 174.867 48.7003C174.978 48.879 175.034 49.0914 175.034 49.338C175.034 49.5761 174.986 49.798 174.892 50.0035C174.797 50.2064 174.665 50.4089 174.495 50.6102C174.324 50.8095 174.125 51.0208 173.897 51.2447L172.918 52.221V52.2425H175.219V52.711Z" fill="#B4B5BD"/>
<path d="M234.51 13.2832H233.984V55.3403H234.51V13.2832Z" fill="#53586D"/>
<path d="M247.723 16.6657H248.397V19.0529C248.397 19.1554 248.396 19.2685 248.394 19.3915C248.392 19.515 248.388 19.6349 248.382 19.7521C248.378 19.8688 248.374 19.974 248.369 20.066C248.366 20.1564 248.361 20.2221 248.357 20.2631H248.379L250.671 16.6657H251.528V21.1689H250.861V18.8001C250.861 18.6891 250.866 18.5693 250.866 18.44C250.871 18.3101 250.876 18.185 250.882 18.0641C250.887 17.9426 250.897 17.8359 250.903 17.7434C250.908 17.6514 250.913 17.5857 250.913 17.5462H250.887L248.588 21.1689H247.723V16.6657ZM253.368 17.7591V19.1297H254.966V17.7591H255.692V21.1689H254.966V19.6964H253.368V21.1689H252.643V17.7591H253.368ZM258.967 16.376V17.725C259.33 17.756 259.645 17.8464 259.903 17.9963C260.166 18.144 260.366 18.3422 260.507 18.5908C260.644 18.839 260.718 19.1297 260.718 19.4625C260.718 19.791 260.649 20.0807 260.513 20.3309C260.381 20.5817 260.182 20.782 259.919 20.9318C259.661 21.0817 259.346 21.1731 258.967 21.2057V22.6846H258.278V21.2057C257.916 21.1753 257.6 21.0848 257.337 20.935C257.08 20.7852 256.875 20.5849 256.738 20.3341C256.596 20.0839 256.523 19.7932 256.523 19.4625C256.523 19.1276 256.591 18.8353 256.722 18.5845C256.859 18.3337 257.054 18.135 257.316 17.9868C257.574 17.8391 257.9 17.7518 258.289 17.725V16.376H258.967ZM258.289 18.2885C258.068 18.3132 257.879 18.3769 257.726 18.4799C257.579 18.5803 257.464 18.7138 257.39 18.88C257.311 19.0466 257.274 19.2406 257.274 19.4625C257.274 19.6864 257.311 19.8825 257.385 20.0507C257.464 20.2169 257.574 20.3504 257.726 20.4513C257.879 20.5518 258.063 20.6143 258.289 20.639V18.2885ZM258.967 18.298V20.639C259.188 20.6143 259.372 20.5518 259.519 20.4513C259.672 20.3483 259.782 20.2142 259.856 20.0476C259.934 19.8794 259.971 19.6843 259.971 19.4625C259.971 19.1297 259.882 18.8616 259.714 18.6586C259.54 18.4552 259.293 18.3348 258.967 18.298ZM264.356 21.1689H263.625V18.3259H262.679C262.642 18.8432 262.589 19.2858 262.526 19.6533C262.463 20.0208 262.389 20.321 262.295 20.5528C262.205 20.7831 262.09 20.9513 261.953 21.058C261.816 21.1647 261.654 21.2184 261.464 21.2184C261.38 21.2184 261.301 21.2121 261.238 21.2C261.17 21.1895 261.107 21.1732 261.054 21.1506V20.5807C261.091 20.5927 261.128 20.6033 261.17 20.6112C261.212 20.6196 261.254 20.6238 261.296 20.6238C261.37 20.6238 261.438 20.5927 261.506 20.5312C261.569 20.4676 261.632 20.3683 261.685 20.2326C261.743 20.097 261.79 19.9182 261.837 19.6964C261.88 19.4724 261.922 19.2017 261.958 18.8831C261.995 18.5629 262.032 18.1881 262.058 17.7591H264.356V21.1689ZM265.738 21.1689H264.929L265.88 19.7768C265.754 19.7353 265.633 19.6748 265.517 19.5949C265.407 19.5129 265.318 19.4057 265.244 19.2743C265.176 19.1412 265.144 18.9788 265.144 18.788C265.144 18.4552 265.26 18.2007 265.502 18.0241C265.738 17.8475 266.048 17.7591 266.432 17.7591H267.978V21.1689H267.258V19.8504H266.569L265.738 21.1689ZM265.849 18.7937C265.849 18.9667 265.917 19.0981 266.043 19.188C266.175 19.2764 266.348 19.3205 266.574 19.3205H267.258V18.3043H266.469C266.253 18.3043 266.096 18.3516 265.996 18.4457C265.901 18.5383 265.849 18.6544 265.849 18.7937ZM272.53 22.3702H271.858V21.1689H269.008V17.7591H269.739V20.5991H271.316V17.7591H272.047V20.6112H272.53V22.3702ZM273.855 17.7591V19.4992C273.855 19.555 273.85 19.6254 273.845 19.7122C273.845 19.7963 273.84 19.8846 273.834 19.9766C273.829 20.067 273.824 20.1501 273.818 20.2263C273.808 20.3025 273.803 20.3588 273.803 20.3956L275.517 17.7591H276.4V21.1689H275.706V19.4472C275.706 19.3568 275.706 19.2522 275.711 19.1328C275.716 19.0135 275.722 18.8989 275.727 18.788C275.737 18.677 275.743 18.5929 275.743 18.5351L274.034 21.1689H273.156V17.7591H273.855ZM277.782 21.1689H276.973L277.924 19.7768C277.798 19.7353 277.677 19.6748 277.562 19.5949C277.451 19.5129 277.362 19.4057 277.293 19.2743C277.22 19.1412 277.188 18.9788 277.188 18.788C277.188 18.4552 277.304 18.2007 277.546 18.0241C277.782 17.8475 278.093 17.7591 278.476 17.7591H280.022V21.1689H279.302V19.8504H278.613L277.782 21.1689ZM277.893 18.7937C277.893 18.9667 277.961 19.0981 278.087 19.188C278.219 19.2764 278.392 19.3205 278.618 19.3205H279.302V18.3043H278.513C278.298 18.3043 278.14 18.3516 278.04 18.4457C277.945 18.5383 277.893 18.6544 277.893 18.7937Z" fill="white" fill-opacity="0.9"/>
<path d="M288.133 21.3C287.402 21.3 286.698 21.0093 286.182 20.4914C285.662 19.9741 285.373 19.2718 285.373 18.54C285.373 17.8082 285.662 17.1059 286.182 16.5886C286.698 16.0708 287.402 15.78 288.133 15.78C288.864 15.78 289.568 16.0708 290.083 16.5886C290.604 17.1059 290.893 17.8082 290.893 18.54C290.893 19.2718 290.604 19.9741 290.083 20.4914C289.568 21.0093 288.864 21.3 288.133 21.3ZM288.133 21.6943C288.969 21.6943 289.773 21.362 290.362 20.7706C290.956 20.1786 291.287 19.3764 291.287 18.54C291.287 17.7036 290.956 16.9014 290.362 16.3094C289.773 15.718 288.969 15.3857 288.133 15.3857C287.297 15.3857 286.493 15.718 285.904 16.3094C285.31 16.9014 284.979 17.7036 284.979 18.54C284.979 19.3764 285.31 20.1786 285.904 20.7706C286.493 21.362 287.297 21.6943 288.133 21.6943Z" fill="white"/>
<path d="M288.528 17.7229L287.661 17.8422L287.629 18.0005L287.803 18.0351C287.913 18.0641 287.934 18.1082 287.908 18.2302L287.629 19.6738C287.556 20.0471 287.671 20.2226 287.934 20.2226C288.144 20.2226 288.381 20.1175 288.491 19.974L288.523 19.8005C288.449 19.8741 288.339 19.903 288.265 19.903C288.16 19.903 288.123 19.8226 288.15 19.6811L288.528 17.7229ZM288.554 16.8539C288.554 16.9643 288.512 17.0699 288.444 17.1483C288.37 17.2261 288.276 17.2697 288.176 17.2697C288.076 17.2697 287.981 17.2261 287.908 17.1483C287.839 17.0699 287.797 16.9643 287.797 16.8539C287.797 16.7435 287.839 16.6373 287.908 16.5595C287.981 16.4811 288.076 16.4375 288.176 16.4375C288.276 16.4375 288.37 16.4811 288.444 16.5595C288.512 16.6373 288.554 16.7435 288.554 16.8539Z" fill="white"/>
<path d="M250.347 37.4645H249.376V33.5995C249.376 33.4712 249.378 33.3424 249.38 33.2136C249.383 33.0848 249.386 32.9592 249.389 32.8356C249.394 32.7126 249.401 32.5949 249.409 32.4824C249.352 32.5455 249.28 32.6138 249.196 32.6879C249.113 32.762 249.026 32.8388 248.933 32.9182L248.243 33.4681L247.758 32.8561L249.54 31.4599H250.347V37.4645ZM256.387 37.4645H252.324V36.7375L253.88 35.1603C254.179 34.8538 254.426 34.5894 254.621 34.3676C254.815 34.1431 254.957 33.9312 255.052 33.7309C255.147 33.5312 255.194 33.3135 255.194 33.078C255.194 32.7878 255.11 32.5691 254.947 32.4209C254.779 32.2705 254.558 32.1953 254.285 32.1953C254.022 32.1953 253.785 32.2474 253.559 32.3509C253.343 32.4524 253.117 32.5975 252.881 32.7867L252.35 32.1501C252.518 32.0076 252.697 31.8773 252.886 31.7595C253.075 31.6418 253.291 31.5487 253.522 31.4804C253.759 31.4094 254.027 31.3736 254.332 31.3736C254.71 31.3736 255.036 31.442 255.315 31.5792C255.594 31.7132 255.804 31.9009 255.951 32.1417C256.104 32.3825 256.177 32.6632 256.177 32.9839C256.177 33.3067 256.114 33.6053 255.983 33.8792C255.856 34.1531 255.672 34.4238 255.436 34.6924C255.194 34.9579 254.91 35.2466 254.584 35.5588L253.543 36.5734V36.6187H256.387V37.4645ZM258.422 36.4872L258.48 36.5813C258.427 36.7785 258.364 36.9909 258.29 37.218C258.212 37.4456 258.127 37.6727 258.038 37.8998C257.949 38.1301 257.854 38.3462 257.765 38.5485H257.055C257.113 38.3272 257.171 38.0943 257.223 37.8504C257.276 37.6096 257.323 37.3715 257.37 37.136C257.418 36.8978 257.455 36.6812 257.481 36.4872H258.422ZM263.49 34.458C263.49 34.9427 263.453 35.3769 263.379 35.7602C263.306 36.1408 263.185 36.4636 263.022 36.7296C262.864 36.9951 262.654 37.1975 262.391 37.3373C262.133 37.4766 261.818 37.5465 261.445 37.5465C260.982 37.5465 260.604 37.4246 260.299 37.1812C259.999 36.9346 259.778 36.5813 259.631 36.1213C259.489 35.6587 259.415 35.1041 259.415 34.458C259.415 33.8119 259.479 33.2588 259.61 32.7988C259.747 32.3362 259.962 31.9814 260.262 31.7353C260.556 31.4888 260.956 31.3652 261.445 31.3652C261.913 31.3652 262.296 31.4888 262.596 31.7353C262.901 31.9787 263.127 32.332 263.269 32.7946C263.416 33.2546 263.49 33.8093 263.49 34.458ZM260.388 34.458C260.388 34.9648 260.42 35.3874 260.488 35.7271C260.556 36.0667 260.667 36.3216 260.824 36.4909C260.977 36.6581 261.187 36.7417 261.445 36.7417C261.708 36.7417 261.913 36.6581 262.07 36.4909C262.228 36.3243 262.338 36.0709 262.407 35.7313C262.48 35.3917 262.517 34.9674 262.517 34.458C262.517 33.9544 262.48 33.5327 262.412 33.1931C262.344 32.8535 262.233 32.5991 262.076 32.4293C261.918 32.2568 261.708 32.1706 261.445 32.1706C261.182 32.1706 260.977 32.2568 260.819 32.4293C260.667 32.5991 260.556 32.8535 260.488 33.1931C260.42 33.5327 260.388 33.9544 260.388 34.458ZM268.305 34.458C268.305 34.9427 268.269 35.3769 268.19 35.7602C268.116 36.1408 268 36.4636 267.837 36.7296C267.674 36.9951 267.464 37.1975 267.207 37.3373C266.944 37.4766 266.628 37.5465 266.26 37.5465C265.798 37.5465 265.414 37.4246 265.114 37.1812C264.815 36.9346 264.588 36.5813 264.447 36.1213C264.299 35.6587 264.226 35.1041 264.226 34.458C264.226 33.8119 264.294 33.2588 264.426 32.7988C264.557 32.3362 264.778 31.9814 265.072 31.7353C265.372 31.4888 265.766 31.3652 266.26 31.3652C266.728 31.3652 267.112 31.4888 267.412 31.7353C267.716 31.9787 267.937 32.332 268.084 32.7946C268.232 33.2546 268.305 33.8093 268.305 34.458ZM265.204 34.458C265.204 34.9648 265.235 35.3874 265.298 35.7271C265.367 36.0667 265.482 36.3216 265.635 36.4909C265.792 36.6581 266.003 36.7417 266.26 36.7417C266.523 36.7417 266.728 36.6581 266.886 36.4909C267.044 36.3243 267.154 36.0709 267.222 35.7313C267.291 35.3917 267.327 34.9674 267.327 34.458C267.327 33.9544 267.296 33.5327 267.228 33.1931C267.159 32.8535 267.044 32.5991 266.891 32.4293C266.733 32.2568 266.523 32.1706 266.26 32.1706C265.997 32.1706 265.787 32.2568 265.635 32.4293C265.477 32.5991 265.367 32.8535 265.298 33.1931C265.235 33.5327 265.204 33.9544 265.204 34.458ZM270.335 31.3736C270.776 31.3736 271.107 31.5382 271.339 31.8668C271.565 32.1922 271.68 32.6538 271.68 33.2504C271.68 33.845 271.57 34.3087 271.349 34.643C271.134 34.9769 270.797 35.144 270.335 35.144C269.903 35.144 269.578 34.9769 269.351 34.643C269.131 34.3087 269.015 33.845 269.015 33.2504C269.015 32.6538 269.12 32.1922 269.33 31.8668C269.546 31.5382 269.882 31.3736 270.335 31.3736ZM270.34 32.0471C270.161 32.0471 270.03 32.147 269.946 32.3473C269.861 32.547 269.819 32.8493 269.819 33.2546C269.819 33.6573 269.861 33.9612 269.946 34.1667C270.03 34.3691 270.161 34.4706 270.34 34.4706C270.519 34.4706 270.655 34.3691 270.739 34.1667C270.834 33.9638 270.876 33.66 270.876 33.2546C270.876 32.8525 270.834 32.5512 270.745 32.3509C270.66 32.1485 270.524 32.0471 270.34 32.0471ZM274.367 31.4599L271.039 37.4645H270.245L273.573 31.4599H274.367ZM274.256 33.7761C274.698 33.7761 275.034 33.9407 275.26 34.2693C275.492 34.5952 275.602 35.0562 275.602 35.6534C275.602 36.2449 275.497 36.7075 275.276 37.0413C275.061 37.3757 274.719 37.5423 274.256 37.5423C273.825 37.5423 273.499 37.3757 273.273 37.0413C273.052 36.7075 272.937 36.2449 272.937 35.6534C272.937 35.0562 273.042 34.5952 273.257 34.2693C273.468 33.9407 273.804 33.7761 274.256 33.7761ZM274.262 34.4501C274.083 34.4501 273.951 34.55 273.867 34.7498C273.783 34.9495 273.741 35.2523 273.741 35.6571C273.741 36.0598 273.783 36.3637 273.867 36.5692C273.951 36.7716 274.083 36.8731 274.262 36.8731C274.446 36.8731 274.582 36.7732 274.666 36.5734C274.756 36.3705 274.798 36.0656 274.798 35.6571C274.798 35.255 274.756 34.9537 274.666 34.754C274.582 34.551 274.446 34.4501 274.262 34.4501Z" fill="white" fill-opacity="0.9"/>
<path d="M286.558 35.3617L284.192 33.2588L281.826 35.3617" stroke="#18C35D" stroke-width="1.5" stroke-linecap="round" stroke-linejoin="round"/>
<path d="M292.787 32.8606C292.787 33.1292 292.735 33.3616 292.63 33.5587C292.53 33.7559 292.383 33.9178 292.199 34.0434C292.009 34.167 291.794 34.2532 291.541 34.3021V34.3352C292.015 34.3951 292.372 34.5486 292.614 34.7952C292.851 35.0418 292.971 35.3645 292.971 35.7646C292.971 36.1121 292.893 36.4202 292.724 36.6883C292.567 36.9569 292.314 37.1677 291.978 37.3212C291.647 37.4716 291.216 37.5468 290.695 37.5468C290.374 37.5468 290.08 37.521 289.812 37.469C289.544 37.4195 289.286 37.336 289.039 37.2182V36.5774C289.286 36.7009 289.56 36.7982 289.854 36.8691C290.143 36.9375 290.427 36.9716 290.7 36.9716C291.247 36.9716 291.647 36.8639 291.888 36.6473C292.13 36.4286 292.256 36.13 292.256 35.752C292.256 35.4918 292.188 35.2825 292.051 35.1238C291.915 34.9624 291.72 34.8446 291.468 34.7705C291.216 34.6937 290.911 34.6554 290.553 34.6554H289.954V34.0723H290.558C290.884 34.0723 291.163 34.0245 291.389 33.9283C291.615 33.8326 291.789 33.6986 291.904 33.5261C292.025 33.3505 292.088 33.1439 292.088 32.9058C292.088 32.6019 291.983 32.368 291.783 32.2034C291.578 32.0363 291.305 31.9532 290.958 31.9532C290.742 31.9532 290.548 31.9748 290.374 32.0189C290.196 32.0625 290.033 32.123 289.88 32.1992C289.728 32.276 289.575 32.3648 289.423 32.4663L289.076 31.9984C289.297 31.8286 289.56 31.6819 289.875 31.5589C290.19 31.4354 290.548 31.3739 290.947 31.3739C291.562 31.3739 292.02 31.5137 292.33 31.7929C292.635 32.072 292.787 32.4279 292.787 32.8606ZM297.603 32.8606C297.603 33.1292 297.55 33.3616 297.445 33.5587C297.34 33.7559 297.198 33.9178 297.009 34.0434C296.825 34.167 296.604 34.2532 296.352 34.3021V34.3352C296.83 34.3951 297.188 34.5486 297.424 34.7952C297.666 35.0418 297.787 35.3645 297.787 35.7646C297.787 36.1121 297.703 36.4202 297.54 36.6883C297.377 36.9569 297.13 37.1677 296.793 37.3212C296.457 37.4716 296.031 37.5468 295.505 37.5468C295.19 37.5468 294.896 37.521 294.622 37.469C294.354 37.4195 294.096 37.336 293.855 37.2182V36.5774C294.102 36.7009 294.37 36.7982 294.664 36.8691C294.959 36.9375 295.243 36.9716 295.516 36.9716C296.063 36.9716 296.457 36.8639 296.704 36.6473C296.946 36.4286 297.067 36.13 297.067 35.752C297.067 35.4918 296.998 35.2825 296.862 35.1238C296.73 34.9624 296.536 34.8446 296.278 34.7705C296.026 34.6937 295.721 34.6554 295.369 34.6554H294.769V34.0723H295.374C295.7 34.0723 295.973 34.0245 296.199 33.9283C296.431 33.8326 296.599 33.6986 296.72 33.5261C296.841 33.3505 296.899 33.1439 296.899 32.9058C296.899 32.6019 296.799 32.368 296.594 32.2034C296.394 32.0363 296.115 31.9532 295.768 31.9532C295.558 31.9532 295.363 31.9748 295.185 32.0189C295.011 32.0625 294.848 32.123 294.696 32.1992C294.538 32.276 294.386 32.3648 294.233 32.4663L293.891 31.9984C294.107 31.8286 294.375 31.6819 294.69 31.5589C295.006 31.4354 295.363 31.3739 295.763 31.3739C296.373 31.3739 296.835 31.5137 297.14 31.7929C297.45 32.072 297.603 32.4279 297.603 32.8606ZM302.671 34.454C302.671 34.9419 302.634 35.3772 302.56 35.7604C302.487 36.1436 302.371 36.468 302.208 36.7335C302.051 36.9995 301.845 37.2019 301.593 37.3417C301.341 37.4784 301.041 37.5468 300.689 37.5468C300.242 37.5468 299.869 37.4248 299.58 37.1814C299.285 36.9375 299.07 36.5858 298.923 36.1258C298.781 35.6631 298.712 35.1059 298.712 34.454C298.712 33.8137 298.775 33.2633 298.901 32.8033C299.033 32.3406 299.248 31.9858 299.538 31.7392C299.827 31.4901 300.21 31.3655 300.689 31.3655C301.136 31.3655 301.509 31.489 301.803 31.7356C302.098 31.979 302.313 32.3322 302.455 32.7949C302.597 33.2549 302.671 33.8079 302.671 34.454ZM299.396 34.454C299.396 35.0128 299.438 35.4781 299.522 35.8508C299.611 36.223 299.748 36.5022 299.937 36.6883C300.126 36.8718 300.379 36.9638 300.689 36.9638C300.994 36.9638 301.246 36.8718 301.435 36.6883C301.625 36.5048 301.761 36.2272 301.851 35.855C301.935 35.4823 301.982 35.0155 301.982 34.454C301.982 33.9041 301.94 33.4441 301.851 33.074C301.767 32.7018 301.63 32.4227 301.441 32.2366C301.251 32.0473 300.999 31.9532 300.689 31.9532C300.373 31.9532 300.121 32.0473 299.932 32.2366C299.743 32.4227 299.606 32.7018 299.522 33.074C299.438 33.4441 299.396 33.9041 299.396 34.454ZM304.6 36.4875L304.653 36.5816C304.605 36.7819 304.542 36.9953 304.464 37.2224C304.39 37.4495 304.311 37.6771 304.216 37.9042C304.132 38.134 304.043 38.349 303.954 38.5488H303.444C303.501 38.3301 303.554 38.0988 303.612 37.8548C303.664 37.6141 303.717 37.3759 303.759 37.1404C303.806 36.9022 303.843 36.6846 303.869 36.4875H304.6ZM309.663 34.454C309.663 34.9419 309.626 35.3772 309.547 35.7604C309.474 36.1436 309.358 36.468 309.2 36.7335C309.042 36.9995 308.837 37.2019 308.585 37.3417C308.333 37.4784 308.028 37.5468 307.676 37.5468C307.229 37.5468 306.861 37.4248 306.566 37.1814C306.277 36.9375 306.062 36.5858 305.914 36.1258C305.773 35.6631 305.699 35.1059 305.699 34.454C305.699 33.8137 305.767 33.2633 305.893 32.8033C306.025 32.3406 306.235 31.9858 306.524 31.7392C306.819 31.4901 307.203 31.3655 307.676 31.3655C308.128 31.3655 308.501 31.489 308.795 31.7356C309.085 31.979 309.305 32.3322 309.447 32.7949C309.589 33.2549 309.663 33.8079 309.663 34.454ZM306.388 34.454C306.388 35.0128 306.43 35.4781 306.514 35.8508C306.598 36.223 306.735 36.5022 306.924 36.6883C307.118 36.8718 307.365 36.9638 307.676 36.9638C307.986 36.9638 308.233 36.8718 308.422 36.6883C308.617 36.5048 308.753 36.2272 308.837 35.855C308.927 35.4823 308.969 35.0155 308.969 34.454C308.969 33.9041 308.927 33.4441 308.843 33.074C308.759 32.7018 308.622 32.4227 308.433 32.2366C308.243 32.0473 307.991 31.9532 307.676 31.9532C307.36 31.9532 307.108 32.0473 306.919 32.2366C306.735 32.4227 306.593 32.7018 306.509 33.074C306.43 33.4441 306.388 33.9041 306.388 34.454ZM314.473 34.454C314.473 34.9419 314.436 35.3772 314.363 35.7604C314.289 36.1436 314.173 36.468 314.016 36.7335C313.853 36.9995 313.648 37.2019 313.395 37.3417C313.148 37.4784 312.843 37.5468 312.491 37.5468C312.044 37.5468 311.676 37.4248 311.382 37.1814C311.093 36.9375 310.872 36.5858 310.73 36.1258C310.588 35.6631 310.514 35.1059 310.514 34.454C310.514 33.8137 310.578 33.2633 310.709 32.8033C310.84 32.3406 311.051 31.9858 311.34 31.7392C311.629 31.4901 312.013 31.3655 312.491 31.3655C312.943 31.3655 313.317 31.489 313.606 31.7356C313.9 31.979 314.116 32.3322 314.263 32.7949C314.405 33.2549 314.473 33.8079 314.473 34.454ZM311.203 34.454C311.203 35.0128 311.245 35.4781 311.329 35.8508C311.413 36.223 311.55 36.5022 311.739 36.6883C311.929 36.8718 312.181 36.9638 312.491 36.9638C312.801 36.9638 313.048 36.8718 313.238 36.6883C313.427 36.5048 313.569 36.2272 313.653 35.855C313.742 35.4823 313.784 35.0155 313.784 34.454C313.784 33.9041 313.742 33.4441 313.658 33.074C313.574 32.7018 313.432 32.4227 313.248 32.2366C313.059 32.0473 312.807 31.9532 312.491 31.9532C312.176 31.9532 311.923 32.0473 311.734 32.2366C311.545 32.4227 311.408 32.7018 311.324 33.074C311.24 33.4441 311.203 33.9041 311.203 34.454ZM317.575 34.7621C317.575 34.1218 317.638 33.5755 317.759 33.1234C317.885 32.6692 318.074 32.3049 318.332 32.031C318.589 31.7545 318.926 31.5658 319.331 31.4643C319.683 31.3686 320.04 31.2861 320.403 31.2177C320.761 31.1468 321.113 31.0852 321.455 31.0332L321.575 31.6325C321.402 31.6572 321.223 31.6861 321.034 31.7187C320.845 31.7492 320.655 31.7818 320.466 31.8176C320.277 31.8502 320.098 31.8859 319.93 31.9243C319.767 31.96 319.62 31.9968 319.488 32.0352C319.257 32.0983 319.057 32.2076 318.884 32.3638C318.716 32.5199 318.584 32.7349 318.484 33.0083C318.39 33.2822 318.332 33.6276 318.316 34.0434H318.363C318.447 33.923 318.558 33.8037 318.7 33.686C318.842 33.5687 319.01 33.4715 319.21 33.3947C319.404 33.3153 319.63 33.2754 319.877 33.2754C320.261 33.2754 320.587 33.3605 320.85 33.5303C321.108 33.697 321.302 33.9325 321.434 34.2364C321.565 34.5408 321.633 34.8967 321.633 35.3046C321.633 35.7946 321.549 36.2067 321.376 36.5406C321.213 36.8749 320.976 37.1267 320.671 37.2965C320.366 37.4632 320.009 37.5468 319.599 37.5468C319.283 37.5468 318.999 37.4853 318.747 37.3622C318.495 37.2387 318.285 37.0584 318.111 36.8197C317.938 36.5816 317.801 36.2903 317.712 35.9449C317.622 35.6001 317.575 35.2058 317.575 34.7621ZM319.651 36.9801C319.914 36.9801 320.135 36.9254 320.324 36.816C320.514 36.7062 320.656 36.5337 320.755 36.2982C320.861 36.0601 320.913 35.7509 320.913 35.3703C320.913 34.8935 320.824 34.5213 320.64 34.2532C320.456 33.9819 320.167 33.8463 319.767 33.8463C319.52 33.8463 319.294 33.8999 319.089 34.0066C318.889 34.1107 318.716 34.2353 318.579 34.3804C318.437 34.5255 318.337 34.6554 318.274 34.7705C318.274 35.0496 318.295 35.3209 318.337 35.5838C318.374 35.8466 318.447 36.0832 318.547 36.294C318.647 36.5048 318.789 36.672 318.968 36.7955C319.147 36.9185 319.378 36.9801 319.651 36.9801ZM322.711 37.0379C322.711 36.846 322.753 36.7104 322.848 36.631C322.942 36.549 323.053 36.508 323.189 36.508C323.331 36.508 323.447 36.549 323.542 36.631C323.636 36.7104 323.684 36.846 323.684 37.0379C323.684 37.2266 323.636 37.3649 323.542 37.4527C323.447 37.5373 323.331 37.5799 323.189 37.5799C323.053 37.5799 322.942 37.5373 322.848 37.4527C322.753 37.3649 322.711 37.2266 322.711 37.0379ZM328.794 32.9636V37.4648H328.105V33.5508H325.708V37.4648H325.019V32.9636H328.794ZM330.134 37.0379C330.134 36.846 330.181 36.7104 330.276 36.631C330.365 36.549 330.481 36.508 330.613 36.508C330.754 36.508 330.87 36.549 330.97 36.631C331.065 36.7104 331.112 36.846 331.112 37.0379C331.112 37.2266 331.065 37.3649 330.97 37.4527C330.87 37.5373 330.754 37.5799 330.613 37.5799C330.481 37.5799 330.365 37.5373 330.276 37.4527C330.181 37.3649 330.134 37.2266 330.134 37.0379Z" fill="#18C35D"/>
<path d="M251.155 52.711H250.635V50.5887H248.268V52.711H247.744V48.2077H248.268V50.1265H250.635V48.2077H251.155V52.711ZM253.584 49.2796C253.983 49.2796 254.283 49.37 254.477 49.5503C254.672 49.7312 254.772 50.0198 254.772 50.4162V52.711H254.399L254.299 52.2121H254.272C254.178 52.3351 254.083 52.4386 253.978 52.5233C253.878 52.6053 253.757 52.6678 253.621 52.711C253.489 52.752 253.326 52.7725 253.126 52.7725C252.921 52.7725 252.743 52.7367 252.58 52.6647C252.422 52.5927 252.296 52.4839 252.206 52.3382C252.112 52.1926 252.07 52.0076 252.07 51.7836C252.07 51.4471 252.201 51.1885 252.469 51.0076C252.737 50.8268 253.142 50.7285 253.689 50.7117L254.272 50.687V50.4809C254.272 50.1891 254.209 49.9846 254.083 49.8679C253.957 49.7506 253.784 49.6923 253.552 49.6923C253.379 49.6923 253.211 49.7181 253.048 49.7691C252.89 49.8206 252.737 49.881 252.59 49.951L252.438 49.563C252.585 49.4847 252.764 49.4179 252.958 49.3627C253.158 49.3069 253.363 49.2796 253.584 49.2796ZM254.267 51.0476L253.752 51.0692C253.331 51.0855 253.032 51.1543 252.858 51.2758C252.69 51.3967 252.601 51.568 252.601 51.7899C252.601 51.9828 252.659 52.1258 252.779 52.2178C252.895 52.3104 253.048 52.3566 253.242 52.3566C253.542 52.3566 253.789 52.2736 253.978 52.1074C254.167 51.9408 254.267 51.6916 254.267 51.3588V51.0476ZM259.141 52.711H258.641V49.5199C258.641 49.3984 258.641 49.2949 258.641 49.2087C258.641 49.1203 258.641 49.0404 258.646 48.9684C258.652 48.8943 258.657 48.8196 258.662 48.7434C258.599 48.8091 258.536 48.8659 258.483 48.9127C258.426 48.9579 258.357 49.0147 258.278 49.0825L257.763 49.4952L257.495 49.1471L258.715 48.2077H259.141V52.711ZM263.63 49.2581C263.63 49.4589 263.588 49.6334 263.515 49.7817C263.436 49.9294 263.325 50.0503 263.183 50.145C263.047 50.2375 262.884 50.3021 262.694 50.3389V50.3636C263.052 50.4088 263.32 50.524 263.499 50.7085C263.677 50.8935 263.767 51.1359 263.767 51.4356C263.767 51.6963 263.709 51.9276 263.583 52.129C263.462 52.3298 263.273 52.488 263.02 52.6032C262.773 52.7162 262.453 52.7725 262.058 52.7725C261.822 52.7725 261.601 52.753 261.396 52.7141C261.196 52.6773 261.002 52.6142 260.818 52.5259V52.0454C261.002 52.1379 261.207 52.211 261.427 52.2641C261.648 52.3156 261.858 52.3414 262.064 52.3414C262.474 52.3414 262.773 52.2604 262.957 52.098C263.136 51.9334 263.231 51.71 263.231 51.4266C263.231 51.2316 263.178 51.0744 263.073 50.9551C262.973 50.8341 262.831 50.7458 262.637 50.6901C262.447 50.6328 262.221 50.6039 261.953 50.6039H261.506V50.1665H261.958C262.2 50.1665 262.41 50.1308 262.579 50.0587C262.747 49.9867 262.878 49.8863 262.968 49.757C263.057 49.6255 263.104 49.4704 263.104 49.2917C263.104 49.0635 263.026 48.8885 262.873 48.765C262.721 48.6398 262.516 48.5773 262.258 48.5773C262.095 48.5773 261.948 48.5935 261.816 48.6261C261.685 48.6593 261.564 48.7045 261.448 48.7618C261.333 48.8196 261.217 48.8864 261.101 48.9621L260.844 48.6109C261.007 48.4837 261.212 48.3738 261.443 48.2813C261.68 48.1887 261.948 48.143 262.248 48.143C262.71 48.143 263.052 48.2476 263.283 48.4569C263.514 48.6666 263.63 48.9332 263.63 49.2581ZM264.608 52.3908C264.608 52.2467 264.639 52.1453 264.713 52.0859C264.781 52.0238 264.866 51.9934 264.965 51.9934C265.071 51.9934 265.16 52.0238 265.234 52.0859C265.302 52.1453 265.339 52.2467 265.339 52.3908C265.339 52.5322 265.302 52.6358 265.234 52.7015C265.16 52.7656 265.071 52.7972 264.965 52.7972C264.866 52.7972 264.781 52.7656 264.713 52.7015C264.639 52.6358 264.608 52.5322 264.608 52.3908ZM269.087 50.453C269.087 50.8184 269.061 51.1448 269.003 51.4324C268.95 51.72 268.861 51.9634 268.745 52.1626C268.624 52.3619 268.472 52.5138 268.283 52.6184C268.093 52.7215 267.867 52.7725 267.599 52.7725C267.263 52.7725 266.989 52.681 266.769 52.4986C266.553 52.3156 266.385 52.0517 266.28 51.7069C266.169 51.3599 266.117 50.9419 266.117 50.453C266.117 49.9725 266.164 49.5598 266.264 49.2149C266.364 48.8674 266.522 48.602 266.737 48.4169C266.953 48.2303 267.242 48.1367 267.599 48.1367C267.941 48.1367 268.22 48.2292 268.44 48.4138C268.656 48.5967 268.819 48.8617 268.929 49.2087C269.034 49.5535 269.087 49.9683 269.087 50.453ZM266.632 50.453C266.632 50.872 266.664 51.2211 266.727 51.5002C266.79 51.7799 266.895 51.9892 267.037 52.129C267.179 52.2662 267.368 52.3351 267.599 52.3351C267.831 52.3351 268.02 52.2662 268.162 52.129C268.304 51.9913 268.409 51.7825 268.472 51.5034C268.535 51.2242 268.572 50.8741 268.572 50.453C268.572 50.0403 268.54 49.6955 268.477 49.4179C268.409 49.1387 268.309 48.9295 268.167 48.7897C268.025 48.6477 267.836 48.5773 267.599 48.5773C267.363 48.5773 267.173 48.6477 267.032 48.7897C266.89 48.9295 266.79 49.1387 266.727 49.4179C266.664 49.6955 266.632 50.0403 266.632 50.453ZM272.898 51.6669H272.226V52.711H271.726V51.6669H269.544V51.2353L271.689 48.183H272.226V51.2048H272.898V51.6669ZM271.726 51.2048V49.7322C271.726 49.6192 271.726 49.5178 271.726 49.4274C271.731 49.3348 271.731 49.2497 271.737 49.1718C271.742 49.0914 271.742 49.0157 271.747 48.9437C271.752 48.8717 271.752 48.8007 271.758 48.7313H271.731C271.689 48.8133 271.647 48.9006 271.595 48.9931C271.547 49.0835 271.495 49.1645 271.442 49.2365L270.054 51.2048H271.726ZM273.482 52.3908C273.482 52.2467 273.519 52.1453 273.587 52.0859C273.655 52.0238 273.745 51.9934 273.845 51.9934C273.95 51.9934 274.039 52.0238 274.108 52.0859C274.181 52.1453 274.218 52.2467 274.218 52.3908C274.218 52.5322 274.181 52.6358 274.108 52.7015C274.039 52.7656 273.95 52.7972 273.845 52.7972C273.745 52.7972 273.655 52.7656 273.587 52.7015C273.519 52.6358 273.482 52.5322 273.482 52.3908ZM277.94 52.711H274.991V52.283L276.195 51.0597C276.416 50.8342 276.605 50.6328 276.757 50.4562C276.91 50.2795 277.031 50.106 277.109 49.9357C277.188 49.7633 277.23 49.574 277.23 49.369C277.23 49.114 277.151 48.92 276.999 48.7865C276.852 48.6508 276.652 48.583 276.405 48.583C276.189 48.583 276 48.6204 275.832 48.694C275.669 48.7681 275.495 48.8727 275.322 49.0083L275.049 48.6635C275.17 48.5626 275.296 48.4732 275.438 48.3954C275.58 48.3176 275.727 48.2555 275.89 48.2103C276.053 48.1656 276.226 48.143 276.405 48.143C276.684 48.143 276.925 48.1909 277.125 48.2876C277.325 48.3843 277.483 48.5215 277.588 48.7003C277.698 48.879 277.756 49.0914 277.756 49.338C277.756 49.5761 277.709 49.798 277.614 50.0035C277.519 50.2064 277.388 50.4089 277.215 50.6102C277.046 50.8095 276.847 51.0208 276.621 51.2447L275.637 52.221V52.2425H277.94V52.711ZM281.578 50.453C281.578 50.8184 281.546 51.1448 281.494 51.4324C281.436 51.72 281.352 51.9634 281.231 52.1626C281.11 52.3619 280.958 52.5138 280.768 52.6184C280.579 52.7215 280.353 52.7725 280.09 52.7725C279.754 52.7725 279.475 52.681 279.254 52.4986C279.039 52.3156 278.876 52.0517 278.765 51.7069C278.66 51.3599 278.608 50.9419 278.608 50.453C278.608 49.9725 278.655 49.5598 278.75 49.2149C278.85 48.8674 279.007 48.602 279.223 48.4169C279.444 48.2303 279.733 48.1367 280.09 48.1367C280.427 48.1367 280.705 48.2292 280.926 48.4138C281.147 48.5967 281.31 48.8617 281.415 49.2087C281.52 49.5535 281.578 49.9683 281.578 50.453ZM279.123 50.453C279.123 50.872 279.154 51.2211 279.218 51.5002C279.281 51.7799 279.381 51.9892 279.522 52.129C279.67 52.2662 279.854 52.3351 280.09 52.3351C280.322 52.3351 280.506 52.2662 280.647 52.129C280.795 51.9913 280.895 51.7825 280.958 51.5034C281.026 51.2242 281.058 50.8741 281.058 50.453C281.058 50.0403 281.026 49.6955 280.963 49.4179C280.9 49.1387 280.795 48.9295 280.653 48.7897C280.511 48.6477 280.322 48.5773 280.09 48.5773C279.854 48.5773 279.664 48.6477 279.522 48.7897C279.381 48.9295 279.275 49.1387 279.212 49.4179C279.149 49.6955 279.123 50.0403 279.123 50.453ZM285.163 52.711H282.209V52.283L283.413 51.0597C283.639 50.8342 283.828 50.6328 283.98 50.4562C284.133 50.2795 284.249 50.106 284.327 49.9357C284.412 49.7633 284.448 49.574 284.448 49.369C284.448 49.114 284.375 48.92 284.222 48.7865C284.07 48.6508 283.875 48.583 283.628 48.583C283.413 48.583 283.218 48.6204 283.055 48.694C282.887 48.7681 282.719 48.8727 282.545 49.0083L282.267 48.6635C282.388 48.5626 282.519 48.4732 282.656 48.3954C282.798 48.3176 282.95 48.2555 283.108 48.2103C283.271 48.1656 283.444 48.143 283.628 48.143C283.907 48.143 284.143 48.1909 284.343 48.2876C284.548 48.3843 284.701 48.5215 284.811 48.7003C284.922 48.879 284.974 49.0914 284.974 49.338C284.974 49.5761 284.927 49.798 284.832 50.0035C284.738 50.2064 284.606 50.4089 284.438 50.6102C284.264 50.8095 284.07 51.0208 283.839 51.2447L282.861 52.221V52.2425H285.163V52.711ZM288.77 52.711H285.82V52.283L287.024 51.0597C287.25 50.8342 287.434 50.6328 287.587 50.4562C287.745 50.2795 287.86 50.106 287.939 49.9357C288.018 49.7633 288.06 49.574 288.06 49.369C288.06 49.114 287.981 48.92 287.834 48.7865C287.682 48.6508 287.482 48.583 287.235 48.583C287.019 48.583 286.83 48.6204 286.667 48.694C286.499 48.7681 286.325 48.8727 286.152 49.0083L285.878 48.6635C285.999 48.5626 286.125 48.4732 286.267 48.3954C286.409 48.3176 286.562 48.2555 286.719 48.2103C286.882 48.1656 287.056 48.143 287.235 48.143C287.513 48.143 287.755 48.1909 287.955 48.2876C288.155 48.3843 288.312 48.5215 288.418 48.7003C288.533 48.879 288.586 49.0914 288.586 49.338C288.586 49.5761 288.538 49.798 288.444 50.0035C288.349 50.2064 288.218 50.4089 288.05 50.6102C287.876 50.8095 287.676 51.0208 287.45 51.2447L286.472 52.221V52.2425H288.77V52.711Z" fill="#B4B5BD"/>
</g>
<rect x="0.541016" y="1.42871" width="353.857" height="65.7657" rx="11.5" stroke="#53586D"/>
<defs>
<clipPath id="clip0_466_23851">
<rect x="0.0410156" y="0.928711" width="354.857" height="66.7657" rx="12" fill="white"/>
</clipPath>
</defs>
</svg>
