<svg width="120" height="120" viewBox="0 0 120 120" fill="none" xmlns="http://www.w3.org/2000/svg">
<path d="M103.86 104.371L87.6384 88.1493C91.0365 84.2465 93.0985 79.1518 93.0985 73.586C93.0985 71.625 92.8438 69.6784 92.3391 67.7991C92.118 66.9772 91.2721 66.4918 90.4502 66.7129C89.6283 66.934 89.1428 67.7799 89.3639 68.6018C89.7965 70.2168 90.0176 71.8941 90.0176 73.586C90.0176 84.1312 81.4382 92.7106 70.8978 92.7106C60.3526 92.7106 51.7733 84.1312 51.7733 73.586C51.7733 63.0408 60.3526 54.4614 70.8978 54.4614C76.9683 54.4614 82.6206 57.3164 86.2254 62.1565L82.909 64.2568C82.4043 63.9588 81.8131 63.781 81.1787 63.781C79.3042 63.781 77.7806 65.3046 77.7806 67.1791C77.7806 67.4531 77.8142 67.7126 77.8767 67.9625L67.8217 76.4843C67.394 76.2872 66.9181 76.1766 66.4135 76.1766C65.6012 76.1766 64.8562 76.465 64.2698 76.9409L56.9978 73.8744C56.2143 73.5475 55.3107 73.9128 54.9791 74.6962C54.6474 75.4797 55.0176 76.3833 55.801 76.7149L63.0202 79.7574C63.1163 81.5502 64.6015 82.9777 66.4135 82.9777C68.288 82.9777 69.8164 81.4492 69.8164 79.5747C69.8164 79.344 69.7924 79.1133 69.7443 78.897L79.8666 70.3176C80.2703 70.4859 80.7125 70.582 81.1787 70.582C83.058 70.582 84.5816 69.0584 84.5816 67.1791C84.5816 67.0734 84.5768 66.9628 84.5672 66.8571L97.7655 58.4796C98.275 58.7824 98.8661 58.9602 99.4958 58.9602C101.37 58.9602 102.899 57.4318 102.899 55.5573C102.899 53.6828 101.37 52.1592 99.4958 52.1592C97.6213 52.1592 96.0977 53.6828 96.0977 55.5573C96.0977 55.6678 96.1025 55.7735 96.1121 55.8793L88.8305 60.5031C84.6489 54.7739 78.0257 51.3805 70.8978 51.3805C59.127 51.3805 49.4758 60.5847 48.7404 72.1681L37.8348 78.575C37.3012 78.2338 36.6764 78.0367 36.0035 78.0367C34.129 78.0367 32.6006 79.5604 32.6006 81.4348C32.6006 83.3093 34.129 84.8377 36.0035 84.8377C37.878 84.8377 39.4016 83.3093 39.4016 81.4348C39.4016 81.3676 39.3968 81.3002 39.392 81.2329L48.7933 75.7105C49.8699 86.9622 59.3673 95.7915 70.8978 95.7915C76.4636 95.7915 81.5584 93.7248 85.4564 90.3266L101.683 106.553C101.985 106.851 102.38 107 102.774 107C103.168 107 103.562 106.851 103.86 106.553C104.466 105.952 104.466 104.976 103.86 104.371Z" fill="#0C9B45"/>
<path d="M19.0809 98.2715V14.8808H76.3874V18.2693H25.036C24.1853 18.2693 23.498 18.9566 23.498 19.8073V98.2715H19.0809ZM87.7593 99.6365C86.9085 99.6365 86.2212 100.324 86.2212 101.175V103.799H26.5789V99.8384V99.8144V99.7855V21.3502H77.9254H77.9302H77.9351H86.2212V52.0485C86.2212 52.8993 86.9085 53.5914 87.7593 53.5914C88.61 53.5914 89.3021 52.8993 89.3021 52.0485V19.8073C89.3021 18.9566 88.61 18.2693 87.7593 18.2693H79.4683V13.3379C79.4683 12.4872 78.7809 11.7999 77.9302 11.7999H17.5429C16.6921 11.7999 16 12.4872 16 13.3379V99.8144C16 100.665 16.6921 101.352 17.5429 101.352H23.498V105.342C23.498 106.192 24.1853 106.88 25.036 106.88H87.7593C88.61 106.88 89.3021 106.192 89.3021 105.342V101.175C89.3021 100.324 88.61 99.6365 87.7593 99.6365Z" fill="#0C9B45"/>
<path d="M78.545 31.8234C78.545 30.9727 77.8576 30.2854 77.0069 30.2854H37.1572C36.3065 30.2854 35.6191 30.9727 35.6191 31.8234C35.6191 32.6741 36.3065 33.3663 37.1572 33.3663H77.0069C77.8576 33.3663 78.545 32.6741 78.545 31.8234Z" fill="#0C9B45"/>
<path d="M58.0072 39.2204C58.0072 38.3697 57.3151 37.6776 56.4644 37.6776H37.1572C36.3065 37.6776 35.6191 38.3697 35.6191 39.2204C35.6191 40.0711 36.3065 40.7584 37.1572 40.7584H56.4644C57.3151 40.7584 58.0072 40.0711 58.0072 39.2204Z" fill="#0C9B45"/>
<path d="M37.1572 45.4831C36.3065 45.4831 35.6191 46.1752 35.6191 47.0259C35.6191 47.8767 36.3065 48.564 37.1572 48.564H47.6351C48.4858 48.564 49.1731 47.8767 49.1731 47.0259C49.1731 46.1752 48.4858 45.4831 47.6351 45.4831H37.1572Z" fill="#0C9B45"/>
</svg>
