<svg width="87" height="40" viewBox="0 0 87 40" fill="none" xmlns="http://www.w3.org/2000/svg">
<path fill-rule="evenodd" clip-rule="evenodd" d="M58.7154 21.4926C60.3367 21.9182 62.0087 22.131 63.7314 22.131C65.758 22.131 67.4807 21.827 68.8993 21.219C70.318 20.5908 71.382 19.7598 72.0913 18.7262C72.8006 17.6927 73.1553 16.5375 73.1553 15.2607C73.1553 13.7812 72.7601 12.6159 71.9697 11.7647C71.1996 10.8932 70.2775 10.265 69.2033 9.87992C68.1495 9.47459 66.8119 9.09966 65.1906 8.75513C63.7516 8.45113 62.7079 8.15727 62.0594 7.87354C61.4109 7.58981 61.0866 7.16421 61.0866 6.59675C61.0866 6.02928 61.3602 5.57329 61.9074 5.22876C62.4546 4.86396 63.326 4.68156 64.5218 4.68156C66.4268 4.68156 68.3927 5.22876 70.4193 6.32315L72.2737 1.85438C71.2401 1.24639 70.0444 0.790394 68.6865 0.486397C67.3287 0.162132 65.9506 0 64.5522 0C62.5052 0 60.7725 0.303997 59.3538 0.911993C57.9554 1.51999 56.9016 2.35091 56.1922 3.40477C55.4829 4.43836 55.1282 5.60369 55.1282 6.90074C55.1282 8.3802 55.5133 9.55566 56.2834 10.4271C57.0536 11.2986 57.9757 11.937 59.0498 12.3423C60.1239 12.7274 61.4615 13.0922 63.0626 13.4367C64.5218 13.761 65.5756 14.0751 66.2242 14.3791C66.8929 14.6628 67.2273 15.1087 67.2273 15.7167C67.2273 16.8719 66.0722 17.4495 63.7618 17.4495C62.5458 17.4495 61.3095 17.2569 60.053 16.8719C58.7965 16.4868 57.692 15.9801 56.7394 15.3519L54.7634 19.7902C55.7768 20.4996 57.0941 21.067 58.7154 21.4926ZM11.8703 0.425596H5.85119V21.7054H11.8703V0.425596ZM24.6038 16.0511H27.887L31.7477 21.7054H38.1925L33.6021 15.0175C34.9397 14.369 35.9632 13.4772 36.6725 12.3423C37.4021 11.1871 37.7669 9.83939 37.7669 8.29913C37.7669 6.69808 37.3818 5.30982 36.6117 4.13437C35.8416 2.93864 34.7472 2.02665 33.3285 1.39839C31.9099 0.749861 30.2379 0.425596 28.3126 0.425596H18.5847V21.7054H24.6038V16.0511ZM30.7446 5.98875C31.3728 6.53595 31.6869 7.30607 31.6869 8.29913C31.6869 9.29219 31.3728 10.0623 30.7446 10.6095C30.1163 11.1364 29.184 11.3999 27.9478 11.3999H24.6038V5.16796H27.9478C29.184 5.16796 30.1163 5.44156 30.7446 5.98875ZM43.5196 0.425596H49.5387V21.7054H43.5196V0.425596ZM16.7252 29.9498H20.1908V39.8358H16.7252V29.9498ZM18.458 28.8554C17.8257 28.8554 17.315 28.6791 16.9259 28.3265C16.5368 27.9739 16.3422 27.5361 16.3422 27.0132C16.3422 26.4903 16.5368 26.0526 16.9259 25.7C17.315 25.3473 17.8257 25.171 18.458 25.171C19.0903 25.171 19.601 25.3412 19.9902 25.6817C20.3793 26.01 20.5738 26.4356 20.5738 26.9585C20.5738 27.5057 20.3793 27.9617 19.9902 28.3265C19.601 28.6791 19.0903 28.8554 18.458 28.8554ZM8.61149 29.8586V32.6676H14.2476V35.4583H8.61149V39.8358H5V27.0679H15.0137V29.8586H8.61149ZM32.2013 30.8801C31.4596 30.1505 30.4746 29.7857 29.2465 29.7857C28.6141 29.7857 28.0305 29.8951 27.4954 30.114C26.9604 30.3207 26.4983 30.6247 26.1092 31.026V29.9498H22.8078V39.8358H26.2734V35.057C26.2734 34.2788 26.4497 33.6951 26.8023 33.306C27.1671 32.9169 27.6474 32.7223 28.2433 32.7223C29.3255 32.7223 29.8666 33.3972 29.8666 34.7469V39.8358H33.3322V34.1815C33.3322 32.7101 32.9552 31.6097 32.2013 30.8801ZM40.0862 29.7857C41.7278 29.7857 42.9803 30.1626 43.8436 30.9166C44.707 31.6583 45.1386 32.8013 45.1386 34.3456V39.8358H41.9102V38.5591C41.4116 39.5197 40.4388 40 38.9918 40C38.2257 40 37.563 39.8662 37.0037 39.5987C36.4443 39.3312 36.0187 38.9725 35.7269 38.5226C35.4472 38.0605 35.3074 37.5376 35.3074 36.9539C35.3074 36.0176 35.6661 35.2941 36.3835 34.7834C37.101 34.2605 38.2075 33.9991 39.7032 33.9991H41.6731C41.6123 32.9533 40.9131 32.4305 39.5755 32.4305C39.1013 32.4305 38.6209 32.5095 38.1345 32.6676C37.6481 32.8135 37.2347 33.0202 36.8942 33.2877L35.7269 30.9348C36.2741 30.57 36.9368 30.2903 37.715 30.0958C38.5054 29.889 39.2958 29.7857 40.0862 29.7857ZM39.9585 37.8112C40.3598 37.8112 40.7124 37.7139 41.0164 37.5194C41.3204 37.3248 41.5393 37.0391 41.6731 36.6621V35.8048H40.1774C39.1681 35.8048 38.6635 36.1392 38.6635 36.808C38.6635 37.112 38.779 37.3552 39.0101 37.5376C39.2411 37.72 39.5573 37.8112 39.9585 37.8112ZM57.0845 30.8801C56.3427 30.1505 55.3578 29.7857 54.1296 29.7857C53.4973 29.7857 52.9136 29.8951 52.3786 30.114C51.8436 30.3207 51.3815 30.6247 50.9924 31.026V29.9498H47.6909V39.8358H51.1565V35.057C51.1565 34.2788 51.3328 33.6951 51.6855 33.306C52.0503 32.9169 52.5306 32.7223 53.1264 32.7223C54.2086 32.7223 54.7498 33.3972 54.7498 34.7469V39.8358H58.2153V34.1815C58.2153 32.7101 57.8384 31.6097 57.0845 30.8801ZM65.9509 40C64.8565 40 63.8776 39.7811 63.0143 39.3434C62.1509 38.9056 61.476 38.2976 60.9897 37.5194C60.5154 36.7411 60.2783 35.8596 60.2783 34.8746C60.2783 33.8896 60.5154 33.0141 60.9897 32.2481C61.476 31.4698 62.1509 30.8679 63.0143 30.4423C63.8776 30.0046 64.8565 29.7857 65.9509 29.7857C67.0696 29.7857 68.0363 30.0289 68.851 30.5153C69.6657 30.9895 70.2433 31.6522 70.5838 32.5034L67.9026 33.8714C67.4526 32.9837 66.796 32.5399 65.9326 32.5399C65.3125 32.5399 64.7957 32.7466 64.3823 33.1601C63.981 33.5735 63.7803 34.145 63.7803 34.8746C63.7803 35.6164 63.981 36.2 64.3823 36.6256C64.7957 37.0391 65.3125 37.2458 65.9326 37.2458C66.796 37.2458 67.4526 36.8019 67.9026 35.9143L70.5838 37.2823C70.2433 38.1335 69.6657 38.8022 68.851 39.2886C68.0363 39.7629 67.0696 40 65.9509 40ZM82.1968 35.7684C82.2332 35.2212 82.2515 34.9354 82.2515 34.9111C82.2515 33.8532 82.0144 32.9412 81.5401 32.1751C81.078 31.3969 80.4457 30.8071 79.6432 30.4058C78.8406 29.9924 77.9469 29.7857 76.9619 29.7857C75.9283 29.7857 74.9981 30.0046 74.1712 30.4423C73.3443 30.8801 72.6938 31.4881 72.2196 32.2663C71.7575 33.0324 71.5264 33.9018 71.5264 34.8746C71.5264 35.8596 71.7636 36.7411 72.2378 37.5194C72.7242 38.2976 73.4051 38.9056 74.2807 39.3434C75.1562 39.7811 76.1715 40 77.3267 40C79.175 40 80.5795 39.465 81.5401 38.3949L79.7161 36.4979C79.3635 36.8019 79.0109 37.0208 78.6582 37.1546C78.3177 37.2883 77.9104 37.3552 77.4362 37.3552C76.8038 37.3552 76.2749 37.2215 75.8493 36.9539C75.4358 36.6743 75.1562 36.2791 75.0103 35.7684H82.1968ZM75.6304 32.7041C75.9952 32.4001 76.4451 32.2481 76.9802 32.2481C77.5152 32.2481 77.959 32.4001 78.3117 32.7041C78.6765 33.0081 78.9075 33.4215 79.0048 33.9444H74.9555C75.0528 33.4215 75.2778 33.0081 75.6304 32.7041Z" fill="url(#paint0_linear_466_24681)"/>
<defs>
<linearGradient id="paint0_linear_466_24681" x1="43.9347" y1="1.94637e-08" x2="42.9363" y2="39.9828" gradientUnits="userSpaceOnUse">
<stop stop-color="#61E198"/>
<stop offset="0.458333" stop-color="#23C159"/>
<stop offset="1" stop-color="#06A947"/>
</linearGradient>
</defs>
</svg>
