<svg width="452" height="135" viewBox="0 0 452 135" fill="none" xmlns="http://www.w3.org/2000/svg">
<g opacity="0.3">
<ellipse cx="225.083" cy="67.5" rx="62.0834" ry="62.5" fill="#13AB53" fill-opacity="0.1"/>
<ellipse cx="225.084" cy="67.5002" rx="22.0833" ry="21.6667" fill="#13AB53" fill-opacity="0.8"/>
<rect x="43.2502" y="76.2749" width="13.5" height="29.7" fill="#18C35D"/>
<rect x="48.6499" y="66.8247" width="2.7" height="49.275" fill="#18C35D"/>
<rect x="124.25" y="49.2747" width="13.5" height="29.7" fill="#FF524A"/>
<rect x="129.649" y="39.8245" width="2.7" height="49.275" fill="#FF524A"/>
<rect x="63.5002" y="60.7498" width="13.5" height="24.975" fill="#18C35D"/>
<rect x="68.9001" y="46.5747" width="2.7" height="49.275" fill="#18C35D"/>
<rect x="103.999" y="27.6746" width="13.5" height="24.975" fill="#FF524A"/>
<rect x="109.399" y="18.8994" width="2.7" height="43.875" fill="#FF524A"/>
<rect x="83.749" y="29.6997" width="13.5" height="56.025" fill="#18C35D"/>
<rect x="89.1489" y="18.8994" width="2.7" height="76.95" fill="#18C35D"/>
<path d="M293 135C293 117.272 296.492 99.7167 303.277 83.3378C310.061 66.9588 320.005 52.0765 332.541 39.5406C345.077 27.0047 359.959 17.0607 376.338 10.2763C392.717 3.49188 410.272 -7.74936e-07 428 0L428 135H293Z" fill="#FF524A"/>
<path d="M303.277 83.3376C296.492 99.7166 293 117.271 293 135H428L332.541 39.5405C320.005 52.0764 310.061 66.9587 303.277 83.3376Z" fill="#18C35D"/>
</g>
</svg>
