<svg width="120" height="120" viewBox="0 0 120 120" fill="none" xmlns="http://www.w3.org/2000/svg">
<path d="M92.5287 33.3283C91.8231 33.8589 91.6829 34.8613 92.2121 35.5643C97.6397 42.7941 100.507 51.5977 100.507 61.0272C100.507 84.6123 81.3701 103.802 57.8502 103.802C34.3258 103.802 15.1888 84.6123 15.1888 61.0272C15.1888 37.4375 34.3258 18.2474 57.8502 18.2474C66.3355 18.2474 74.5359 20.742 81.5602 25.459C82.2885 25.9488 83.2789 25.7493 83.7674 25.0191C84.2604 24.2843 84.0615 23.291 83.3333 22.8011C75.7843 17.7303 66.9687 15.0498 57.8502 15.0498C45.6018 15.0498 34.0907 19.8349 25.4291 28.516C16.7719 37.2017 12 48.7448 12 61.0272C12 73.305 16.7719 84.8481 25.4291 93.5338C34.0907 102.215 45.6018 107 57.8502 107C70.0942 107 81.6055 102.215 90.2671 93.5338C98.9243 84.8481 103.696 73.305 103.696 61.0272C103.696 50.8992 100.607 41.4288 94.7584 33.6457C94.2292 32.9382 93.2298 32.7976 92.5287 33.3283Z" fill="#0C9B45"/>
<path d="M18.6712 59.7027C17.7892 59.7027 17.0791 60.4148 17.0791 61.2992C17.0791 62.1791 17.7892 62.8958 18.6712 62.8958H19.7341C20.6116 62.8958 21.3262 62.1791 21.3262 61.2992C21.3262 60.4148 20.6116 59.7027 19.7341 59.7027H18.6712Z" fill="#0C9B45"/>
<path d="M97.0557 62.8958C97.9377 62.8958 98.6524 62.1791 98.6524 61.2992C98.6524 60.4148 97.9377 59.7027 97.0557 59.7027H95.5721C94.6901 59.7027 93.9756 60.4148 93.9756 61.2992C93.9756 62.1791 94.6901 62.8958 95.5721 62.8958H97.0557Z" fill="#0C9B45"/>
<path d="M59.4566 100.6V99.3212C59.4566 98.4413 58.7465 97.7247 57.8645 97.7247C56.9871 97.7247 56.2725 98.4413 56.2725 99.3212V100.6C56.2725 101.485 56.9871 102.197 57.8645 102.197C58.7465 102.197 59.4566 101.485 59.4566 100.6Z" fill="#0C9B45"/>
<path d="M56.2725 21.9983V23.2728C56.2725 24.1573 56.9871 24.8739 57.8645 24.8739C58.7465 24.8739 59.4566 24.1573 59.4566 23.2728V21.9983C59.4566 21.1139 58.7465 20.3973 57.8645 20.3973C56.9871 20.3973 56.2725 21.1139 56.2725 21.9983Z" fill="#0C9B45"/>
<path d="M29.7755 87.2067L29.0248 87.9596C28.4006 88.581 28.4006 89.597 29.0248 90.2184C29.3369 90.5313 29.7439 90.6855 30.1509 90.6855C30.558 90.6855 30.965 90.5313 31.2771 90.2184L32.028 89.4655C32.6522 88.8395 32.6522 87.8281 32.028 87.2067C31.4084 86.5808 30.3952 86.5808 29.7755 87.2067Z" fill="#0C9B45"/>
<path d="M85.5769 90.6855C85.9885 90.6855 86.3957 90.5313 86.7032 90.2184C87.3274 89.597 87.3273 88.581 86.7076 87.9596L85.803 87.0571C85.1834 86.4312 84.1749 86.4312 83.5507 87.0571C82.931 87.6784 82.931 88.6899 83.5507 89.3158L84.4507 90.2184C84.7628 90.5313 85.1698 90.6855 85.5769 90.6855Z" fill="#0C9B45"/>
<path d="M32.1773 33.2829L31.2771 32.3757C30.6575 31.7544 29.6444 31.7544 29.0248 32.3757C28.4006 33.0017 28.4006 34.0131 29.0248 34.639L29.9248 35.5416C30.2369 35.8546 30.6439 36.0088 31.051 36.0088C31.458 36.0088 31.8652 35.8546 32.1773 35.5416C32.8015 34.9157 32.8015 33.9042 32.1773 33.2829Z" fill="#0C9B45"/>
<path d="M106.735 12.2694C106.111 11.6435 105.102 11.6435 104.482 12.2694L57.6099 59.2673L43.5114 46.0551C42.8691 45.4519 41.8606 45.4882 41.2591 46.1322C40.6575 46.7763 40.6936 47.7877 41.3359 48.391L56.5604 62.6599C56.868 62.9457 57.257 63.0863 57.646 63.0863C58.0576 63.0863 58.4646 62.9321 58.7767 62.6191L106.735 14.5282C107.354 13.9068 107.354 12.8908 106.735 12.2694Z" fill="#0C9B45"/>
</svg>
