<svg width="362" height="288" viewBox="0 0 362 288" fill="none" xmlns="http://www.w3.org/2000/svg">
<circle cx="180" cy="133" r="35" fill="#13AB53" fill-opacity="0.8"/>
<ellipse cx="180.5" cy="133" rx="99.5" ry="100" fill="#13AB53" fill-opacity="0.1"/>
<g filter="url(#filter0_d_7_2)">
<rect x="42.0391" y="138.621" width="88.58" height="88.58" rx="20" fill="white" fill-opacity="0.1"/>
</g>
<g clip-path="url(#clip0_7_2)">
<path d="M107.369 202.664H105.996V177.271C105.996 176.561 105.42 175.984 104.71 175.984H99.5623C98.8516 175.984 98.2755 176.561 98.2755 177.271V202.664H95.7018V185.85C95.7018 185.139 95.1257 184.563 94.415 184.563H89.2677C88.5571 184.563 87.9809 185.139 87.9809 185.85V202.664H85.4073V190.568C85.4073 189.858 84.8311 189.281 84.1205 189.281H78.9732C78.2625 189.281 77.6864 189.858 77.6864 190.568V202.664H75.1127V193.657C75.1127 192.946 74.5366 192.37 73.8259 192.37H68.6787C67.968 192.37 67.3918 192.946 67.3918 193.657V202.664H66.0192C65.3086 202.664 64.7324 203.241 64.7324 203.951C64.7324 204.662 65.3086 205.238 66.0192 205.238H107.369C108.08 205.238 108.656 204.662 108.656 203.951C108.656 203.241 108.08 202.664 107.369 202.664Z" fill="white" fill-opacity="0.9"/>
<path d="M66.0192 188.964C74.0505 188.964 82.7599 186.08 90.5431 180.843C96.6387 176.741 101.72 171.501 104.876 166.135L106.126 170.799C106.28 171.374 107.024 171.87 107.702 171.709C108.393 171.544 108.796 170.819 108.612 170.133L106.505 162.269C106.321 161.582 105.615 161.175 104.929 161.359L97.0646 163.466C96.3781 163.65 95.9708 164.355 96.1547 165.042C96.3387 165.728 97.044 166.136 97.7307 165.952L102.797 164.594C99.8522 169.711 94.9857 174.751 89.1062 178.707C81.7432 183.662 73.5441 186.391 66.0192 186.391C65.3086 186.391 64.7324 186.967 64.7324 187.678C64.7324 188.388 65.3086 188.964 66.0192 188.964V188.964Z" fill="white" fill-opacity="0.9"/>
</g>
<g filter="url(#filter1_d_7_2)">
<rect x="229.52" y="40.5801" width="89.3073" height="89.3073" rx="20" fill="white" fill-opacity="0.2"/>
</g>
<g clip-path="url(#clip1_7_2)">
<path d="M288.746 89.3482L274.004 88.3038C273.633 88.2775 273.428 88.7262 273.691 88.9894L285.224 100.522C287.699 98.0466 289.463 94.8602 290.183 91.2955C290.374 90.35 289.705 89.4462 288.746 89.3482V89.3482Z" fill="white" fill-opacity="0.9"/>
<path d="M270.564 89.5826L267.157 73.488C266.993 72.7129 266.309 72.1895 265.56 72.1895C265.398 72.1895 265.233 72.214 265.07 72.2658C257.724 74.5943 252.4 81.4664 252.4 89.5826C252.4 99.6141 260.532 107.746 270.564 107.746C275.58 107.746 280.121 105.713 283.408 102.426L270.564 89.5826Z" fill="white" fill-opacity="0.9"/>
<path d="M278.753 63.4624C278.004 63.453 277.265 63.4894 276.54 63.5684C275.577 63.6732 274.915 64.5859 275.116 65.5329L278.338 80.7539C278.448 81.2727 278.88 81.661 279.408 81.7149L294.897 83.2955C295.852 83.393 296.683 82.6453 296.686 81.6855L296.686 81.6672C296.709 71.6753 288.744 63.5871 278.753 63.4624V63.4624Z" fill="white" fill-opacity="0.9"/>
</g>
<defs>
<filter id="filter0_d_7_2" x="2.03906" y="118.621" width="168.58" height="168.58" filterUnits="userSpaceOnUse" color-interpolation-filters="sRGB">
<feFlood flood-opacity="0" result="BackgroundImageFix"/>
<feColorMatrix in="SourceAlpha" type="matrix" values="0 0 0 0 0 0 0 0 0 0 0 0 0 0 0 0 0 0 127 0" result="hardAlpha"/>
<feOffset dy="20"/>
<feGaussianBlur stdDeviation="20"/>
<feColorMatrix type="matrix" values="0 0 0 0 0 0 0 0 0 0 0 0 0 0 0 0 0 0 0.25 0"/>
<feBlend mode="normal" in2="BackgroundImageFix" result="effect1_dropShadow_7_2"/>
<feBlend mode="normal" in="SourceGraphic" in2="effect1_dropShadow_7_2" result="shape"/>
</filter>
<filter id="filter1_d_7_2" x="189.52" y="20.5801" width="169.307" height="169.307" filterUnits="userSpaceOnUse" color-interpolation-filters="sRGB">
<feFlood flood-opacity="0" result="BackgroundImageFix"/>
<feColorMatrix in="SourceAlpha" type="matrix" values="0 0 0 0 0 0 0 0 0 0 0 0 0 0 0 0 0 0 127 0" result="hardAlpha"/>
<feOffset dy="20"/>
<feGaussianBlur stdDeviation="20"/>
<feColorMatrix type="matrix" values="0 0 0 0 0 0 0 0 0 0 0 0 0 0 0 0 0 0 0.25 0"/>
<feBlend mode="normal" in2="BackgroundImageFix" result="effect1_dropShadow_7_2"/>
<feBlend mode="normal" in="SourceGraphic" in2="effect1_dropShadow_7_2" result="shape"/>
</filter>
<clipPath id="clip0_7_2">
<rect width="43.924" height="43.924" fill="white" transform="translate(64.7324 161.314)"/>
</clipPath>
<clipPath id="clip1_7_2">
<rect width="44.2846" height="44.2846" fill="white" transform="translate(252.4 63.4609)"/>
</clipPath>
</defs>
</svg>
