<svg width="13" height="12" viewBox="0 0 13 12" fill="none" xmlns="http://www.w3.org/2000/svg">
<path d="M5.65147 6L0.675736 1.02426C0.441421 0.789949 0.441421 0.410051 0.675736 0.175736C0.910051 -0.0585786 1.28995 -0.0585786 1.52426 0.175736L6.5 5.15147L11.4757 0.175736C11.7101 -0.0585786 12.09 -0.0585786 12.3243 0.175736C12.5586 0.410051 12.5586 0.789949 12.3243 1.02426L7.34853 6L12.3243 10.9757C12.5586 11.2101 12.5586 11.59 12.3243 11.8243C12.09 12.0586 11.7101 12.0586 11.4757 11.8243L6.5 6.84853L1.52426 11.8243C1.28995 12.0586 0.910051 12.0586 0.675736 11.8243C0.441421 11.59 0.441421 11.2101 0.675736 10.9757L5.65147 6Z" fill="white"/>
</svg>
